<?xml version="1.0" encoding="UTF-8"?>
<svg width="14px" height="11px" viewBox="0 0 14 11" version="1.1" xmlns="http://www.w3.org/2000/svg" xmlns:xlink="http://www.w3.org/1999/xlink">
    <!-- Generator: Sketch 52.5 (67469) - http://www.bohemiancoding.com/sketch -->
    <title>accepted copy 5</title>
    <desc>Created with Sketch.</desc>
    <g id="Page-1" stroke="none" stroke-width="1" fill="none" fill-rule="evenodd">
        <g id="accepted-copy-5" fill="#6EBE44">
            <path d="M12,0.4 C11.6,0.4 11.3,0.5 11,0.8 L5.5,6.5 L3,4 C2.7,3.7 2.4,3.6 2,3.6 C1.2,3.6 0.5,4.3 0.5,5.1 C0.5,5.5 0.7,5.9 0.9,6.1 L4.5,9.7 C4.8,10 5.1,10.1 5.5,10.1 C5.9,10.1 6.2,10 6.5,9.7 L13.1,2.9 L13.2,2.8 C13.4,2.5 13.5,2.2 13.5,1.9 C13.5,1 12.8,0.4 12,0.4 Z" id="Path"></path>
        </g>
    </g>
</svg>