<?xml version="1.0" encoding="utf-8"?>
<!-- Generator: Adobe Illustrator 22.0.1, SVG Export Plug-In . SVG Version: 6.00 Build 0)  -->
<svg version="1.1" id="Layer_1" xmlns="http://www.w3.org/2000/svg" xmlns:xlink="http://www.w3.org/1999/xlink" x="0px" y="0px"
	 viewBox="0 0 10.5 28.7" style="enable-background:new 0 0 10.5 28.7;" xml:space="preserve">
<style type="text/css">
	.st0{fill:#4A4A4A;}
	.st1{fill:#FFFFFF;}
</style>
<title>Group</title>
<desc>Created with Sketch.</desc>
<g id="Page-1">
	<g id="technical-test--result-opt2" transform="translate(-55.000000, -384.000000)">
		<g id="Group" transform="translate(56.000000, 384.000000)">
			<polygon class="st0" points="8.7,4.4 5.5,3.9 4,0.8 2.6,3.9 -0.6,4.4 1.7,6.8 1.1,10.2 4,8.6 6.9,10.2 6.3,6.8 			"/>
			<g id="Star-Copy-5-Copy-2">
				<polygon class="st1" points="4,17.2 1.5,18.6 2,15.7 0,13.7 2.8,13.2 4,10.6 5.2,13.2 8,13.7 6,15.7 6.5,18.6 				"/>
				<path class="st0" d="M6.9,19.2L4,17.6l-2.9,1.6l0.6-3.4l-2.3-2.4l3.2-0.5L4,9.8l1.5,3.1l3.2,0.5l-2.3,2.4L6.9,19.2z M4,16.9
					L6,18l-0.3-2.4l1.7-1.7L5,13.5l-1-2.1l-1,2.2L0.7,14l1.6,1.6L2,18L4,16.9z"/>
			</g>
			<g id="Star-Copy-5-Copy-3">
				<polygon class="st1" points="4,26.2 1.5,27.6 2,24.7 0,22.7 2.8,22.2 4,19.6 5.2,22.2 8,22.7 6,24.7 6.5,27.6 				"/>
				<path class="st0" d="M6.9,28.2L4,26.6l-2.9,1.6l0.6-3.4l-2.3-2.4l3.2-0.5L4,18.8l1.5,3.1l3.2,0.5l-2.3,2.4L6.9,28.2z M4,25.9
					L6,27l-0.3-2.4l1.7-1.7L5,22.5l-1-2.2l-1,2.2l-2.3,0.4l1.6,1.7L2,27L4,25.9z"/>
			</g>
		</g>
	</g>
</g>
</svg>
