<?xml version="1.0" encoding="utf-8"?>
<!-- Generator: Adobe Illustrator 22.0.1, SVG Export Plug-In . SVG Version: 6.00 Build 0)  -->
<svg version="1.1" id="Layer_1" xmlns="http://www.w3.org/2000/svg" xmlns:xlink="http://www.w3.org/1999/xlink" x="0px" y="0px"
	 viewBox="0 0 10.1 29" style="enable-background:new 0 0 10.1 29;" xml:space="preserve">
<style type="text/css">
	.st0{fill:#4A4A4A;}
	.st1{fill:#FFFFFF;}
</style>
<title>Group 2</title>
<desc>Created with Sketch.</desc>
<g>
	<g>
		<polygon class="st0" points="2.1,9.8 5,8.2 7.9,9.8 7.3,6.4 9.7,4 6.5,3.5 5,0.4 3.6,3.5 0.4,4 2.7,6.4 		"/>
		<polygon class="st0" points="6.5,12.5 5,9.4 3.6,12.5 0.4,13 2.7,15.4 2.1,18.8 5,17.2 7.9,18.8 7.4,15.4 9.7,13 		"/>
	</g>
	<g id="Star-Copy-5-Copy-6">
		<polygon class="st1" points="5,25.8 2.5,27.2 3,24.3 1,22.3 3.8,21.8 5,19.2 6.2,21.8 9,22.3 7,24.3 7.5,27.2 		"/>
		<path class="st0" d="M7.9,27.8L5,26.2l-2.9,1.6l0.6-3.4L0.4,22l3.2-0.5L5,18.4l1.5,3.1L9.7,22l-2.3,2.4L7.9,27.8z M5,25.5l2,1.1
			l-0.3-2.4l1.7-1.7L6,22.1l-1-2.2l-1,2.2l-2.3,0.4l1.6,1.7L3,26.6L5,25.5z"/>
	</g>
</g>
</svg>
