<?xml version="1.0" encoding="UTF-8" standalone="no"?>
<svg width="367px" height="42px" viewBox="0 0 367 42" version="1.1" xmlns="http://www.w3.org/2000/svg" xmlns:xlink="http://www.w3.org/1999/xlink">
    <!-- Generator: Sketch 50.2 (55047) - http://www.bohemiancoding.com/sketch -->
    <title>Group</title>
    <desc>Created with Sketch.</desc>
    <defs></defs>
    <g id="Page-1" stroke="none" stroke-width="1" fill="none" fill-rule="evenodd">
        <g id="IQ-test-B" transform="translate(-496.000000, -68.000000)">
            <g id="Group" transform="translate(496.000000, 68.000000)">
                <g id="Page-1" transform="translate(217.000000, 3.000000)">
                    <path d="M59.9386408,24.4221536 C60.6357282,24.4221536 61.2274757,24.3205079 61.7124272,24.1157574 C62.1964078,23.911007 62.6070874,23.6819395 62.9498058,23.426123 C63.2891262,23.1693339 63.5905825,22.9392936 63.8546602,22.7355159 C64.1182524,22.5307655 64.386699,22.4276608 64.6585437,22.4276608 C64.9978641,22.4276608 65.167767,22.6844499 65.167767,23.1946237 C65.167767,23.4679485 65.1347573,23.7957437 65.0672816,24.1784957 C64.9978641,24.5627067 64.9051456,24.9931203 64.7857282,25.4711955 C64.7182524,25.7600833 64.5512621,26.0757199 64.2886408,26.4166464 C64.025534,26.7570865 63.6633981,27.0771002 63.2051456,27.3747422 C62.744466,27.6738431 62.178932,27.9204191 61.5070874,28.1164153 C60.8357282,28.3119252 60.0658252,28.4096802 59.1983495,28.4096802 C58.3303883,28.4096802 57.4643689,28.2822583 56.5959223,28.0264419 C55.7279612,27.7711118 54.9532039,27.3372938 54.2740777,26.7230425 C53.5934951,26.1097639 53.0400971,25.2829808 52.6138835,24.242693 C52.1896117,23.2048369 51.9774757,21.9009512 51.9774757,20.3320086 C51.9774757,19.769796 52.0153398,19.119069 52.0925243,18.3764232 C52.1687379,17.6347501 52.3167961,16.8736232 52.5376699,16.0886655 C52.7585437,15.3051669 53.0687379,14.5328541 53.4701942,13.7746453 C53.8697087,13.0169229 54.3847573,12.339447 55.0143689,11.7427041 C55.6439806,11.1464475 56.4129126,10.6659406 57.3231068,10.2987516 C58.233301,9.93253531 59.3167961,9.74967033 60.5769903,9.74967033 C61.578932,9.74967033 62.4502913,9.86833803 63.1915534,10.1061598 C63.9318447,10.3454406 64.5439806,10.6727494 65.028932,11.0910044 C65.5124272,11.5092595 65.8701942,11.9985206 66.1002913,12.5607331 C66.3299029,13.1229457 66.4449515,13.7196886 66.4449515,14.3514482 C66.4449515,15.441343 66.1245631,16.2384592 65.4881553,16.7393925 C64.8498058,17.2432439 63.9439806,17.4941969 62.7697087,17.4941969 C62.3964078,17.4941969 62.1624272,17.4655027 62.0682524,17.4047098 C61.975534,17.3463486 61.928932,17.2223312 61.928932,17.0350891 C61.9114563,16.4553682 61.8939806,15.9529758 61.8769903,15.5269393 C61.8604854,15.0994438 61.8007767,14.7463587 61.6983495,14.4652525 C61.5954369,14.1841462 61.4386408,13.9793958 61.2274757,13.8510012 C61.0133981,13.7226066 60.7206796,13.6608411 60.3464078,13.6608411 C59.8002913,13.6608411 59.3386408,13.7746453 58.9556311,14.0061446 C58.5731068,14.2352122 58.2507767,14.5328541 57.9857282,14.9005295 C57.7216505,15.2667458 57.5085437,15.679651 57.3483495,16.1397316 C57.1857282,16.6002984 57.0575728,17.0696195 56.9648544,17.545263 C56.8721359,18.0233382 56.8124272,18.483905 56.7881553,18.9264772 C56.7619417,19.3690494 56.7493204,19.754233 56.7493204,20.0771648 C56.7493204,21.6441621 57.0070874,22.7612921 57.5284466,23.426123 C58.0454369,24.0899813 58.8493204,24.4221536 59.9386408,24.4221536" id="Fill-1" fill="#1565C0"></path>
                    <path d="M74.532767,17.2397909 C73.8866505,17.2397909 73.3730583,17.4046612 72.9895631,17.7378062 C72.6065534,18.0699785 72.3167476,18.4707251 72.1225728,18.9385871 C71.9259709,19.4079082 71.7987864,19.9015464 71.7381068,20.4214471 C71.6783981,20.9428068 71.6497573,21.3800292 71.6497573,21.738464 C71.6497573,22.8638618 71.8274272,23.6896723 72.1856796,24.2173545 C72.5419903,24.7464957 73.0536408,25.0110664 73.7162621,25.0110664 C74.3118932,25.0110664 74.8012136,24.8228516 75.1847087,24.4488538 C75.5667476,24.0724243 75.8648058,23.6210979 76.0769417,23.0929294 C76.2890777,22.5652472 76.4337379,22.0108161 76.5109223,21.4306089 C76.5871359,20.8518607 76.625,20.366004 76.625,19.9754705 C76.625,19.1224248 76.4682039,18.4527304 76.1541262,17.9678464 C75.8385922,17.481017 75.2992718,17.2397909 74.532767,17.2397909 M73.3342233,28.4096315 C72.1599515,28.4096315 71.1847087,28.2447612 70.4123786,27.9116163 C69.6381068,27.5784713 69.0206311,27.1222815 68.5633495,26.5449923 C68.1026699,25.9647851 67.7793689,25.2877955 67.5934466,24.5130511 C67.4055825,23.7358749 67.3118932,22.9061737 67.3118932,22.0185976 C67.3118932,20.9982499 67.4356796,19.9963832 67.6817961,19.0159157 C67.9293689,18.0354481 68.3492718,17.1624623 68.9458738,16.3964721 C69.5400485,15.6285364 70.3264563,15.0108807 71.306068,14.5430187 C72.282767,14.0746704 73.5031553,13.838794 74.9682039,13.838794 C77.1099515,13.838794 78.6463592,14.3635581 79.5720874,15.4116274 C80.4997573,16.4606693 80.9628641,17.9294253 80.9628641,19.8208134 C80.9628641,20.3494683 80.9240291,20.9340526 80.8487864,21.572621 C80.7716019,22.2111895 80.6259709,22.8463535 80.4148058,23.4761677 C80.201699,24.1079273 79.9123786,24.7207196 79.5463592,25.3174625 C79.1808252,25.913719 78.717233,26.4428603 78.156068,26.9009954 C77.5949029,27.362535 76.9196602,27.7287513 76.1279126,28.0011034 C75.3356796,28.2734555 74.4055825,28.4096315 73.3342233,28.4096315" id="Fill-3" fill="#1565C0"></path>
                    <path d="M87.2910194,23.553399 C87.2390777,24.3368976 87.1793689,25.0829479 87.1109223,25.7900906 C87.0434466,26.4982061 86.9929612,27.1158618 86.9584951,27.6425713 C86.9419903,27.8473217 86.8997573,27.9844704 86.8317961,28.0520721 C86.7628641,28.1206465 86.6196602,28.1551769 86.398301,28.1551769 L85.4783981,28.1551769 C84.9512136,28.1551769 84.5230583,28.0997337 84.190534,27.9878748 C83.8589806,27.8784477 83.5949029,27.7198998 83.3992718,27.5141767 C83.2041262,27.310399 83.0682039,27.0584733 82.990534,26.761804 C82.9148058,26.4641621 82.8769417,26.1173995 82.8769417,25.7258934 C82.8769417,25.4710496 82.8900485,25.1082377 82.9148058,24.6403757 C82.9410194,24.1720273 82.9876214,23.5232457 83.0546117,22.6969489 C83.1220874,21.8701657 83.2041262,20.8220965 83.2968447,19.5527411 C83.390534,18.2824131 83.5065534,16.7110387 83.6415049,14.8361863 C83.6589806,14.4621885 83.7012136,14.2394434 83.7696602,14.1723281 C83.8201456,14.1202893 83.956068,14.0945132 84.1769417,14.0945132 L85.1725728,14.0945132 C85.682767,14.0945132 86.1002427,14.1543334 86.4225728,14.2739737 C86.7463592,14.3936141 87.0080097,14.5463259 87.213835,14.7330816 C87.4191748,14.9212963 87.5628641,15.1425824 87.6478155,15.3983989 C87.732767,15.6527563 87.7837379,15.9182996 87.8012136,16.1906517 C88.2929612,15.270977 88.856068,14.6489442 89.4856796,14.3250398 C90.1143204,14.0016216 90.8531553,13.8391831 91.7041262,13.8391831 C92.1648058,13.8391831 92.6065534,13.8819813 93.032767,13.9661186 C93.4570388,14.0526877 93.8390777,14.1966452 94.1793689,14.4013956 C94.5196602,14.6071187 94.8089806,14.8736347 95.0478155,15.2067797 C95.2851942,15.5399247 95.4565534,15.9606114 95.5580097,16.471758 C96.0837379,15.4844816 96.6623786,14.7972789 97.2919903,14.4154996 C97.9216019,14.0303159 98.713835,13.8391831 99.6648058,13.8391831 C100.192961,13.8391831 100.697816,13.8955989 101.183738,14.0059987 C101.668689,14.1168849 102.090534,14.3080178 102.446359,14.5813426 C102.803155,14.8536947 103.088107,15.2233154 103.30267,15.6926364 C103.51432,16.1619574 103.620631,16.7460554 103.620631,17.4434714 C103.620631,17.9711536 103.595388,18.6189625 103.543447,19.3868981 C103.493447,20.1524021 103.432767,20.9850214 103.365291,21.8789199 C103.296845,22.7733048 103.21966,23.6939521 103.13568,24.6403757 C103.051699,25.5853402 102.983252,26.493829 102.931311,27.3624377 C102.91335,27.5496798 102.898301,27.69461 102.88034,27.7962557 C102.864806,27.8993604 102.834223,27.9757163 102.791019,28.0267823 C102.748786,28.077362 102.685194,28.1118923 102.599757,28.1294007 C102.514806,28.1449637 102.396845,28.1551769 102.242961,28.1551769 L101.427913,28.1551769 C100.882282,28.1551769 100.440534,28.1031381 100.098786,28.0010061 C99.7589806,27.8993604 99.4949029,27.7544302 99.309466,27.5662154 C99.1216019,27.3789734 98.9890777,27.144556 98.9114078,26.8634497 C98.8366505,26.5813708 98.7978155,26.2637888 98.7978155,25.9048676 C98.7978155,25.6826088 98.8109223,25.3684312 98.8366505,24.9589304 C98.8618932,24.5504022 98.8963592,24.1078301 98.9381068,23.6297548 C98.9798544,23.1526523 99.0245146,22.6595005 99.0662621,22.1468949 C99.1080097,21.6357484 99.1512136,21.1630229 99.1944175,20.7282323 C99.2351942,20.2944143 99.2691748,19.9145803 99.2958738,19.5901895 C99.3225728,19.2672578 99.3337379,19.0547259 99.3337379,18.9530802 C99.3337379,18.509049 99.2453883,18.1175428 99.0662621,17.7756437 C98.8871359,17.4347172 98.5434466,17.2640108 98.0322816,17.2640108 C97.590534,17.2640108 97.2070388,17.4104 96.8856796,17.6992878 C96.5609223,17.9901209 96.2890777,18.3884359 96.0682039,18.9010414 C95.8473301,19.4112153 95.667233,20.0176851 95.5313107,20.7160737 C95.3953883,21.4139759 95.3026699,22.1721848 95.2507282,22.9902137 C95.2167476,23.5188686 95.1745146,24.1243657 95.1225728,24.805246 C95.0740291,25.4880716 95.0143204,26.3401446 94.9458738,27.3624377 C94.9274272,27.5496798 94.9118932,27.69461 94.893932,27.7962557 C94.8774272,27.8993604 94.8478155,27.9757163 94.8046117,28.0267823 C94.7628641,28.077362 94.698301,28.1118923 94.6133495,28.1294007 C94.5283981,28.1449637 94.4089806,28.1551769 94.2565534,28.1551769 L93.4395631,28.1551769 C92.8958738,28.1551769 92.4541262,28.1031381 92.113835,28.0010061 C91.7725728,27.8993604 91.509466,27.7544302 91.3230583,27.5662154 C91.1351942,27.3789734 91.0026699,27.144556 90.9274272,26.8634497 C90.8502427,26.5813708 90.8114078,26.2637888 90.8114078,25.9048676 C90.8114078,25.5644275 90.8415049,25.0664122 90.9007282,24.4088764 C90.9614078,23.7537723 91.0201456,23.0719194 91.0798544,22.3638039 C91.1385922,21.6576338 91.1978155,20.9850214 91.2589806,20.3449939 C91.3186893,19.7054528 91.3473301,19.2419679 91.3473301,18.9530802 C91.3473301,18.509049 91.2589806,18.1175428 91.0798544,17.7756437 C90.9007282,17.4347172 90.556068,17.2640108 90.0458738,17.2640108 C89.5885922,17.2640108 89.1953883,17.4347172 88.8716019,17.7756437 C88.5478155,18.1175428 88.2808252,18.5722736 88.0686893,19.144213 C87.8555825,19.714207 87.6866505,20.3829287 87.5584951,21.1498917 C87.4303398,21.9178273 87.3419903,22.7188343 87.2910194,23.553399" id="Fill-5" fill="#1565C0"></path>
                    <path d="M112.856262,17.2397909 C111.989272,17.2397909 111.351893,17.6137887 110.943155,18.364216 C110.535388,19.1146433 110.331019,20.1359637 110.331019,21.4306089 C110.331019,21.8746401 110.362087,22.3094308 110.421796,22.7354673 C110.480049,23.1615038 110.586359,23.5447421 110.740728,23.8842095 C110.892184,24.2270814 111.099951,24.4994335 111.365,24.7041839 C111.627621,24.9069889 111.963544,25.0110664 112.372282,25.0110664 C113.104806,25.0110664 113.716942,24.6521452 114.210631,23.9362482 C114.70335,23.2203513 114.950437,22.0959262 114.950437,20.5620002 C114.950437,20.1359637 114.919854,19.7230585 114.861117,19.3227981 C114.800437,18.9230242 114.694126,18.5679937 114.541699,18.2625703 C114.388301,17.9547152 114.175194,17.7081392 113.90335,17.5208972 C113.631505,17.3326824 113.282476,17.2397909 112.856262,17.2397909 M114.719854,13.838794 C116.32034,13.838794 117.523252,14.3338912 118.330534,15.3221403 C119.138301,16.3103893 119.543641,17.8696051 119.543641,19.9997877 C119.543641,21.3289632 119.388786,22.5141812 119.082961,23.5534963 C118.778107,24.592325 118.351893,25.4745513 117.807233,26.1996888 C117.261602,26.9233672 116.625194,27.4719621 115.894126,27.847419 C115.161602,28.2223895 114.371796,28.4096315 113.521311,28.4096315 C112.619854,28.4096315 111.913058,28.2136353 111.403835,27.8216428 C110.892184,27.4301366 110.493641,26.8766783 110.202864,26.1598086 C110.151893,26.7740599 110.110146,27.2428946 110.074709,27.5663127 C110.041699,27.8907035 110.017427,28.1513834 109.999951,28.3464069 C109.98199,28.5414305 109.969854,28.7170003 109.961117,28.8711711 C109.95335,29.0238828 109.935388,29.2286332 109.910146,29.4839633 C109.884903,29.7397798 109.853835,30.0884877 109.820825,30.5310599 C109.787816,30.9746047 109.735874,31.588856 109.668398,32.3723546 C109.650437,32.5771051 109.608689,32.7132811 109.540243,32.7818555 C109.471796,32.8494572 109.328107,32.8839875 109.107233,32.8839875 L108.188301,32.8839875 C107.660146,32.8839875 107.231505,32.8285444 106.899951,32.7176582 C106.566456,32.6072583 106.303835,32.4487105 106.109175,32.2439601 C105.912573,32.0406687 105.77665,31.7882566 105.700437,31.4906147 C105.623252,31.1929728 105.585388,30.8476692 105.585388,30.454704 C105.585388,30.284484 105.612087,29.8248898 105.662087,29.0744625 C105.712573,28.3245215 105.77665,27.4257596 105.853835,26.378663 C105.930049,25.329621 106.014029,24.2008188 106.109175,22.9898247 C106.201893,21.7817486 106.290243,20.6261975 106.37568,19.5260895 C106.462573,18.4274406 106.533447,17.4523228 106.594126,16.6002498 C106.653835,15.7481768 106.698981,15.1592154 106.733447,14.8362836 C106.750922,14.4622858 106.794126,14.2395407 106.861602,14.171939 C106.913544,14.1199003 107.04801,14.0946104 107.27034,14.0946104 L108.264515,14.0946104 C109.183447,14.0946104 109.851893,14.2872023 110.266942,14.6699543 C110.684417,15.0531926 110.892184,15.508896 110.892184,16.0380372 C111.283447,15.2545386 111.789272,14.6913533 112.411117,14.3513996 C113.032961,14.0104731 113.801893,13.838794 114.719854,13.838794" id="Fill-7" fill="#1565C0"></path>
                    <path d="M124.467961,28.3840499 C123.413107,28.3840499 122.656311,28.1029436 122.197087,27.5407311 C121.737379,26.9785185 121.507767,26.0500896 121.507767,24.7539854 C121.507767,24.550694 121.520874,24.2948776 121.546117,23.9884815 C121.571359,23.681599 121.604854,23.2842568 121.649029,22.7998591 C121.689806,22.3130297 121.746117,21.7128824 121.813592,20.9979581 C121.881068,20.2810885 121.953883,19.4110208 122.031068,18.3887277 C122.106311,17.366921 122.192233,16.1651673 122.286408,14.7839531 C122.379126,13.4041979 122.477184,11.8036429 122.580097,9.97985649 C122.596602,9.60391332 122.638835,9.38262724 122.707282,9.31405287 C122.756796,9.26298685 122.893689,9.23769701 123.114563,9.23769701 L124.110194,9.23769701 C124.620388,9.23769701 125.04466,9.29703086 125.385922,9.41569856 C125.726214,9.53631164 125.997573,9.69777753 126.202427,9.90252795 C126.406796,10.1063057 126.55,10.340723 126.636408,10.6052936 C126.721359,10.8698643 126.763107,11.1465934 126.763107,11.4364539 C126.763107,11.7773804 126.741262,12.2666415 126.699029,12.9061826 C126.657282,13.5457237 126.601942,14.265025 126.533495,15.0665184 C126.466019,15.8675254 126.399029,16.70209 126.330583,17.5706987 C126.26165,18.4393074 126.193204,19.2704676 126.124757,20.0641795 C126.057767,20.8564323 126.000971,21.5679522 125.960194,22.1977664 C125.918447,22.8285533 125.897573,23.3066285 125.897573,23.6295603 C125.897573,24.0726188 125.976699,24.3887418 126.13932,24.5759839 C126.299515,24.7632259 126.473786,24.8945386 126.66165,24.9708944 C126.849515,25.0487093 127.022816,25.099289 127.185437,25.1260379 C127.346602,25.150355 127.427184,25.2057981 127.427184,25.2918808 C127.427184,25.6673377 127.383981,26.0379311 127.299029,26.4031747 C127.214078,26.769391 127.06165,27.102536 126.840777,27.4011506 C126.619903,27.6987925 126.31699,27.9371006 125.933981,28.1160749 C125.550485,28.2955355 125.063592,28.3840499 124.467961,28.3840499" id="Fill-9" fill="#1565C0"></path>
                    <path d="M130.028544,11.0778245 C130.028544,10.3959716 130.275146,9.86050791 130.768835,9.46754273 C131.262524,9.07603658 131.925146,8.88004034 132.760097,8.88004034 C133.49068,8.88004034 134.022718,9.02934765 134.354272,9.32698959 C134.685825,9.62609056 134.851359,10.0219738 134.851359,10.515612 C134.851359,11.1463989 134.615922,11.6711631 134.148932,12.0884454 C133.682427,12.5052414 132.996505,12.7148552 132.096505,12.7148552 C130.717864,12.7148552 130.028544,12.1691783 130.028544,11.0778245 L130.028544,11.0778245 Z M131.840194,28.1547878 C131.31301,28.1547878 130.883398,28.099831 130.55233,27.9879721 C130.220777,27.8780586 129.955728,27.7199971 129.761068,27.514274 C129.565922,27.3104963 129.43,27.0580842 129.352816,26.7619013 C129.277573,26.463773 129.238738,26.1174968 129.238738,25.7259906 C129.238738,25.4711469 129.250874,25.108335 129.277573,24.6399866 C129.301845,24.1721246 129.349417,23.523343 129.416408,22.6970462 C129.484854,21.870263 129.565922,20.8221937 129.659612,19.5528384 C129.75233,18.282024 129.866408,16.7106497 130.004272,14.8362836 C130.019806,14.4622858 130.061553,14.2395407 130.131456,14.171939 C130.181942,14.1199003 130.317864,14.0946104 130.538738,14.0946104 L131.534369,14.0946104 C132.061068,14.0946104 132.49068,14.1456765 132.822233,14.2482948 C133.154757,14.3513996 133.418835,14.5041113 133.613981,14.707889 C133.809612,14.9126394 133.945534,15.1592154 134.022718,15.4490758 C134.100388,15.7389363 134.137767,16.0623544 134.137767,16.4207892 C134.137767,16.6766056 134.119806,17.0603303 134.086796,17.5705042 C134.051359,18.0831097 134.005243,18.7771212 133.945534,19.6544841 C133.885825,20.533306 133.806214,21.622228 133.703786,22.9261137 C133.600874,24.2304858 133.472718,25.8023465 133.320291,27.6426686 C133.304757,27.847419 133.260583,27.9845677 133.194563,28.0521694 C133.12466,28.1207438 132.981456,28.1547878 132.760097,28.1547878 L131.840194,28.1547878 Z" id="Fill-11" fill="#1565C0"></path>
                    <path d="M141.255874,16.4474408 C141.255874,16.8394333 141.230631,17.3038909 141.180631,17.8398409 C141.127718,18.3762773 141.072379,18.9132 141.014126,19.4496364 C140.954417,19.9875318 140.898107,20.4899242 140.847136,20.9582725 C140.796165,21.4275936 140.769951,21.7894328 140.769951,22.0437902 C140.769951,22.6935445 140.928689,23.1740514 141.243738,23.4901744 C141.558786,23.8048383 141.945194,23.9619271 142.403447,23.9619271 C143.203447,23.9619271 143.840825,23.5446448 144.316553,22.7091075 C144.792767,21.8745428 145.090825,20.7666534 145.210243,19.3868981 L145.620437,14.6071187 C145.635485,14.418904 145.699563,14.287105 145.810243,14.2097765 C145.920437,14.1324479 146.043252,14.0945132 146.180146,14.0945132 L147.098107,14.0945132 C147.45733,14.0945132 147.791796,14.1256391 148.106845,14.1844866 C148.421408,14.2443068 148.69665,14.3547067 148.935971,14.5176316 C149.173835,14.6781248 149.361699,14.8960065 149.498592,15.1683586 C149.633058,15.4416834 149.701505,15.791364 149.701505,16.2174005 C149.701505,16.3866479 149.688398,16.7061753 149.663155,17.1754963 C149.637427,17.6448174 149.59568,18.3179161 149.535,19.1943063 C149.476262,20.0731282 149.39568,21.1795586 149.293252,22.5174883 C149.191311,23.855418 149.071893,25.4880716 148.935971,27.4135037 C148.850049,28.5379288 148.599563,29.4707348 148.183058,30.2124079 C147.765583,30.9535947 147.243738,31.5415835 146.614126,31.9763741 C145.985,32.4111648 145.277718,32.7131838 144.49665,32.8838903 C143.71267,33.0541103 142.915097,33.1382477 142.098592,33.1382477 C141.230631,33.1382477 140.435,33.0618918 139.711699,32.9101528 C138.989369,32.7564684 138.364126,32.5429638 137.836942,32.269639 C137.309272,31.9972869 136.896165,31.6821366 136.598592,31.3246745 C136.301505,30.9672123 136.152476,30.5830013 136.152476,30.1744732 C136.152476,29.8491097 136.225291,29.5694624 136.368981,29.329209 C136.515097,29.0923599 136.705874,28.8963637 136.942282,28.7426792 C137.182087,28.5889948 137.458301,28.4737315 137.772864,28.3973757 C138.087913,28.3210198 138.414612,28.2821124 138.754903,28.2821124 C138.925291,28.2821124 139.048592,28.3662497 139.125291,28.5379288 C139.202476,28.7081489 139.320437,28.8997681 139.481602,29.1132726 C139.644223,29.3258046 139.903932,29.5174237 140.260728,29.6876438 C140.617524,29.8593229 141.153932,29.9444329 141.86801,29.9444329 C142.497621,29.9444329 143.007816,29.7907485 143.398592,29.483866 C143.789854,29.1774699 144.092282,28.7845048 144.304417,28.3088613 C144.516553,27.830786 144.658301,27.310399 144.725291,26.7481864 C144.792767,26.1864602 144.828204,25.6480785 144.828204,25.1369319 C144.555388,25.6150071 144.253932,26.0026226 143.92335,26.3012372 C143.590825,26.6003381 143.24665,26.8303784 142.888398,26.9918443 C142.530631,27.1533102 142.174806,27.2598193 141.817039,27.310399 C141.459272,27.3624377 141.119951,27.3882139 140.796165,27.3882139 C140.166553,27.3882139 139.592282,27.3016448 139.075291,27.1323974 C138.556359,26.9607183 138.108786,26.6839892 137.734515,26.3012372 C137.360728,25.9175125 137.070437,25.4194972 136.867039,24.805246 C136.66267,24.1919674 136.561214,23.4502943 136.561214,22.5816856 C136.561214,22.2577811 136.577718,21.8283402 136.612184,21.2904448 C136.646165,20.7544948 136.688398,20.148025 136.738883,19.4754126 C136.789854,18.8023138 136.846165,18.0742583 136.905874,17.2907596 C136.965583,16.5062883 137.02966,15.704795 137.097136,14.8872523 C137.131117,14.3600565 137.368981,14.0945132 137.810728,14.0945132 L138.627718,14.0945132 C139.172379,14.0945132 139.614612,14.1455792 139.954417,14.2486839 C140.293738,14.3513023 140.562184,14.4996369 140.758786,14.6946605 C140.954417,14.8916294 141.085971,15.139178 141.153932,15.438279 C141.221408,15.7359209 141.255874,16.0724703 141.255874,16.4474408" id="Fill-13" fill="#1565C0"></path>
                    <path d="M16.1228155,0.000194537217 C16.1228155,0.000194537217 30.642233,11.9121947 41.6762136,9.33263117 C32.9684466,18.507979 23.7436893,20.7748239 23.7436893,20.7748239 C23.7436893,20.7748239 8.31796117,16.1696417 0,0.0775230809 C0,0.0775230809 9.15970874,2.71252968 16.1228155,0.000194537217 Z" id="Fill-15" fill="#569FD6"></path>
                    <path d="M1.51558252,7.54313195 L3.16169903,7.80867525 C3.16169903,7.80867525 11.0485922,18.1638913 24.1058738,22.5166615 C24.1058738,22.5166615 31.0796602,20.1943735 37.3835437,15.3294841 C42.5883981,15.2677185 43.6121845,15.2278384 43.6121845,15.2278384 C43.6121845,15.2278384 35.3078155,24.3049449 23.5801456,27.531831 C14.4791748,24.6400352 5.36849515,15.6815964 1.51558252,7.54313195" id="Fill-17" fill="#3D82C3"></path>
                    <path d="M37.0023786,22.8695034 L42.9936408,23.2746272 C42.9936408,23.2746272 33.1790777,31.9164567 20.5591748,33.9814692 C20.5591748,33.9814692 7.84169903,28.2688839 2.61257282,12.9281653 C9.38490291,22.3175041 18.8567476,27.5296424 23.9611165,29.5484524 C23.9611165,29.5484524 36.1858738,24.3611175 37.0023786,22.8695034" id="Fill-19" fill="#1565C0"></path>
                </g>
                <g id="Group-Copy" fill="#D6BA69">
                    <path d="M10.0563343,20.378402 L10.0563343,10.9680528 C9.41261067,10.8667292 8.58746176,10.8164029 7.58155955,10.8164029 C6.57296956,10.8164029 5.87481832,11.1337942 5.48240223,11.7672347 C5.0879703,12.4000041 4.89377809,13.3085618 4.89377809,14.4949207 L4.89377809,16.847508 C4.89377809,18.0164205 5.0879703,18.9263202 5.48240223,19.5772072 C5.87481832,20.2314492 6.57296956,20.5589057 7.58155955,20.5589057 C8.26492799,20.5589057 9.09142078,20.4985142 10.0563343,20.378402 Z M14.9514563,31.2347939 C14.9514563,31.3944961 14.8849337,31.5374228 14.7559202,31.6561929 C14.6242189,31.7769761 14.4790787,31.8387097 14.315796,31.8387097 L10.6610852,31.8387097 C10.4998183,31.8387097 10.3593817,31.7769761 10.2391035,31.6561929 C10.1181533,31.5374228 10.0563343,31.3944961 10.0563343,31.2347939 L10.0563343,24.3602198 C9.02960181,24.5004625 8.2044529,24.5702483 7.58155955,24.5702483 C5.08461057,24.5702483 3.19510021,23.8931916 1.91706013,22.5350522 C0.639020042,21.1775839 0,19.2812885 0,16.847508 L0,14.4949207 C0,12.0436939 0.65380284,10.1420303 1.96140852,8.79596923 C3.27035809,7.44990816 5.14642955,6.77419355 7.58155955,6.77419355 C9.73514444,6.77419355 11.880666,7.03656139 14.0140925,7.55928401 C14.3971014,7.64047712 14.648409,7.74112974 14.7686872,7.85989984 C14.8896373,7.98068299 14.9514563,8.17259399 14.9514563,8.43294877 L14.9514563,31.2347939 Z" id="Fill-5"></path>
                    <path d="M33.9805825,23.538079 C33.9805825,23.6985764 33.9217638,23.8422149 33.7987176,23.9615764 C33.6770237,24.082961 33.5343713,24.1436532 33.3734648,24.1436532 L29.9707662,24.1436532 C29.8078315,24.1436532 29.6651791,24.082961 29.5441613,23.9615764 C29.4224673,23.8422149 29.3602681,23.6985764 29.3602681,23.538079 L29.3602681,22.8084228 C27.8823625,23.8604225 26.2307049,24.3870968 24.4073236,24.3870968 C23.3343884,24.3870968 22.4325009,24.2137866 21.7023371,23.8698636 C20.9728493,23.5279637 20.4218461,23.0228689 20.0459469,22.3552537 C19.672076,21.6876385 19.4077297,20.9694464 19.2569644,20.2040491 C19.1048469,19.4366288 19.0291262,18.5350111 19.0291262,17.5059395 L19.0291262,7.41078826 C19.0291262,7.24894215 19.0947057,7.10462936 19.2258648,6.97245504 C19.3590521,6.83960635 19.5030566,6.77419355 19.6673435,6.77419355 L23.3445296,6.77419355 C23.50476,6.77419355 23.6474124,6.83960635 23.7704585,6.97245504 C23.8921525,7.10462936 23.9529994,7.24894215 23.9529994,7.41078826 L23.9529994,17.5059395 C23.9529994,18.5977264 24.0990322,19.3381724 24.393802,19.7326723 C24.6858676,20.1285209 25.2896049,20.3247593 26.2016336,20.3247593 C26.8885284,20.3247593 27.8417978,20.0010671 29.0567093,19.3550314 L29.0567093,7.41078826 C29.0567093,7.24894215 29.1189084,7.10462936 29.2406024,6.97245504 C29.3602681,6.83960635 29.5049488,6.77419355 29.6651791,6.77419355 L33.3423653,6.77419355 C33.5046239,6.77419355 33.6506567,6.83960635 33.7838439,6.97245504 C33.915003,7.10462936 33.9805825,7.24894215 33.9805825,7.41078826 L33.9805825,23.538079 Z" id="Fill-7"></path>
                    <path d="M47.9867507,17.0043038 L47.9867507,14.8344058 C47.9867507,12.3127444 47.0608662,11.0526033 45.2104853,11.0526033 C43.3378943,11.0526033 42.4036811,12.3127444 42.4036811,14.8344058 L42.4036811,17.0043038 C42.4036811,19.5459676 43.3378943,20.817834 45.2104853,20.817834 C47.0608662,20.817834 47.9867507,19.5459676 47.9867507,17.0043038 Z M53.0097087,17.0043038 C53.0097087,19.5059631 52.3343822,21.4737695 50.982341,22.9111717 C49.6302997,24.3485739 47.7070419,25.0645161 45.2104853,25.0645161 C42.716705,25.0645161 40.7872006,24.3485739 39.4233602,22.9111717 C38.0595199,21.4737695 37.3786408,19.5059631 37.3786408,17.0043038 L37.3786408,14.8344058 C37.3786408,12.3327466 38.0595199,10.3663197 39.4233602,8.92753796 C40.7872006,7.49013573 42.716705,6.77419355 45.2104853,6.77419355 C47.7070419,6.77419355 49.6302997,7.49013573 50.982341,8.92753796 C52.3343822,10.3663197 53.0097087,12.3327466 53.0097087,14.8344058 L53.0097087,17.0043038 Z" id="Fill-9"></path>
                    <path d="M65.1062219,20.1408207 L65.1062219,10.6082811 C64.3012314,10.5056418 63.4760825,10.454662 62.6301032,10.454662 C61.6228571,10.454662 60.923362,10.7809326 60.530274,11.4307549 C60.1405457,12.0839758 59.9423218,13.0009322 59.9423218,14.1809442 L59.9423218,16.5640792 C59.9423218,17.7678818 60.1405457,18.6943544 60.530274,19.3462158 C60.923362,19.9973976 61.6228571,20.3236682 62.6301032,20.3236682 C63.5150553,20.3236682 64.3435639,20.2624925 65.1062219,20.1408207 Z M70,22.7068031 C70,22.9705385 69.9395249,23.1649414 69.8185748,23.2886524 C69.6982965,23.4089647 69.4456451,23.5109242 69.0639801,23.5918122 C66.9305536,24.1233614 64.785032,24.3870968 62.6301032,24.3870968 C60.1929574,24.3870968 58.3215896,23.7039677 57.01264,22.3404284 C55.7023465,20.9768892 55.0485437,19.0505331 55.0485437,16.5640792 L55.0485437,14.1809442 C55.0485437,11.7176011 55.6889076,9.79668292 56.9669477,8.4229477 C58.2449878,7.04785302 60.1324823,6.35996582 62.6301032,6.35996582 C63.2543405,6.35996582 64.0808333,6.43269698 65.1062219,6.57476064 L65.1062219,1.28781729 C65.1062219,1.12604144 65.1680409,0.984657513 65.288991,0.860266843 C65.4092693,0.737235633 65.5497058,0.677419355 65.7109727,0.677419355 L69.3656836,0.677419355 C69.5256066,0.677419355 69.6720907,0.737235633 69.8044639,0.860266843 C69.9348213,0.984657513 70,1.12604144 70,1.28781729 L70,22.7068031 Z" id="Fill-11"></path>
                    <path d="M79.3864688,23.7727182 C79.3864688,23.935549 79.3209983,24.0812758 79.1964622,24.2023727 C79.0655213,24.3255221 78.9153662,24.3870968 78.7474203,24.3870968 L74.8441011,24.3870968 C74.6733086,24.3870968 74.5231536,24.3255221 74.3957709,24.2023727 C74.2690998,24.0812758 74.2036293,23.935549 74.2036293,23.7727182 L74.2036293,7.38085088 C74.2036293,7.2166517 74.2690998,7.07229325 74.3957709,6.94914387 C74.5231536,6.82667864 74.6733086,6.76510395 74.8441011,6.76510395 L78.7474203,6.76510395 C78.9153662,6.76510395 79.0655213,6.82667864 79.1964622,6.94914387 C79.3209983,7.07229325 79.3864688,7.2166517 79.3864688,7.38085088 L79.3864688,23.7727182 Z M79.5145631,4.15091617 C79.5145631,4.31511535 79.448381,4.4594738 79.3209983,4.58057069 C79.1964622,4.70577257 79.0448839,4.7666631 78.8755147,4.7666631 L74.7167183,4.7666631 C74.5459259,4.7666631 74.3957709,4.70577257 74.2690998,4.58057069 C74.1402938,4.4594738 74.0776699,4.31511535 74.0776699,4.15091617 L74.0776699,1.29111379 C74.0776699,1.12691461 74.1402938,0.982556164 74.2690998,0.860090943 C74.3957709,0.736941558 74.5459259,0.677419355 74.7167183,0.677419355 L78.8755147,0.677419355 C79.0448839,0.677419355 79.1964622,0.736941558 79.3209983,0.860090943 C79.448381,0.982556164 79.5145631,1.12691461 79.5145631,1.29111379 L79.5145631,4.15091617 Z" id="Fill-13"></path>
                    <path d="M131.948738,23.1629788 C130.836786,24.1168161 129.210056,24.5917081 127.065821,24.5917081 C124.986275,24.5917081 123.129391,24.3694613 121.49517,23.9236167 C121.109086,23.8236394 120.914341,23.5905843 120.914341,23.2271534 L120.914341,20.7655507 C120.914341,20.3838807 121.109086,20.1900058 121.49517,20.1900058 L121.619099,20.1900058 C123.823254,20.4737251 125.55621,20.6149093 126.822731,20.6149093 C127.516594,20.6149093 127.990518,20.5230382 128.246546,20.3413228 C128.49985,20.1575808 128.628545,19.8542713 128.628545,19.4300434 C128.628545,19.0071666 128.249951,18.5809121 127.495485,18.1546576 L123.515476,15.8788235 C121.700129,14.8445991 120.793136,13.3469665 120.793136,11.3832236 C120.793136,8.24542329 122.882896,6.67686087 127.065821,6.67686087 C128.862784,6.67686087 130.680174,6.90924049 132.515268,7.37670181 C132.902033,7.47803013 133.096778,7.7090587 133.096778,8.07451618 L133.096778,10.5327413 C133.096778,10.9177889 132.923142,11.1096372 132.576551,11.1096372 L132.483945,11.1096372 C130.565778,10.8475346 128.872997,10.7151322 127.402879,10.7151322 C126.791408,10.7151322 126.365149,10.7772803 126.134315,10.8968477 C125.898034,11.0177662 125.782277,11.2521723 125.782277,11.5966886 C125.782277,11.9189127 126.097545,12.2735618 126.732168,12.6586095 L130.524923,14.8148761 C132.586084,15.9882581 133.615643,17.5466877 133.615643,19.4901649 C133.615643,20.989824 133.062051,22.2138702 131.948738,23.1629788 Z M118.819133,7.54220473 C118.807558,7.57327875 118.802791,7.59759755 118.802791,7.61921426 L113.662485,25.5029875 C113.151791,27.2843394 112.436138,28.554321 111.519613,29.3136079 C110.601044,30.0735703 109.079857,30.4525382 106.958774,30.4525382 C105.509765,30.4525382 104.274566,30.2904129 103.255221,29.9654868 C102.825557,29.805388 102.611065,29.621646 102.611065,29.4196649 L102.611065,26.9600888 C102.611065,26.7979634 102.67371,26.6601569 102.796277,26.5507223 C102.918163,26.4392612 103.060476,26.3831928 103.22526,26.3831928 L103.285181,26.3831928 L104.877185,26.5047868 C105.957814,26.5844984 106.702746,26.6257053 107.110621,26.6257053 C107.682598,26.6257053 108.114986,26.5095155 108.413912,26.2764603 C108.708072,26.0420542 108.949119,25.6340388 109.130926,25.0476856 L109.406701,24.1066832 L108.949119,24.1066832 C108.61887,24.1066832 108.344457,24.0810134 108.121795,24.0296737 C107.897089,23.9790095 107.657404,23.8675484 107.403418,23.6973168 C107.145348,23.5250587 106.912471,23.2366107 106.69798,22.8319729 C106.48485,22.4273352 106.284658,21.9078586 106.101489,21.2816496 L102.060877,7.61921426 C102.041131,7.55706622 102.029555,7.4861364 102.029555,7.40439822 C102.029555,7.08149863 102.234513,6.91937332 102.642388,6.91937332 L106.71296,6.91937332 C107.020057,6.91937332 107.214802,7.11257265 107.293789,7.49626923 L110.049495,18.9119179 C110.130525,19.2989921 110.251049,19.4901649 110.416514,19.4901649 L110.445793,19.4901649 L110.569722,19.4901649 L110.69365,19.4901649 L113.538557,7.49626923 C113.620949,7.11257265 113.832035,6.91937332 114.180669,6.91937332 L118.252603,6.91937332 C118.414664,6.91937332 118.553572,6.97476613 118.665925,7.08622729 C118.778278,7.19768844 118.832752,7.32401108 118.832752,7.46519521 C118.832752,7.4861364 118.829347,7.51248176 118.819133,7.54220473 Z M98.4349495,23.1629788 C97.3216364,24.1168161 95.6942247,24.5917081 93.5520332,24.5917081 C91.4704442,24.5917081 89.6156033,24.3694613 87.9813822,23.9236167 C87.5932547,23.8236394 87.4005528,23.5905843 87.4005528,23.2271534 L87.4005528,20.7655507 C87.4005528,20.3838807 87.5932547,20.1900058 87.9813822,20.1900058 L88.1039488,20.1900058 C90.3074235,20.4737251 92.0424215,20.6149093 93.307581,20.6149093 C94.001444,20.6149093 94.4740063,20.5230382 94.7313961,20.3413228 C94.9860622,20.1575808 95.1127143,19.8542713 95.1127143,19.4300434 C95.1127143,19.0071666 94.7348007,18.5809121 93.9796544,18.1546576 L90.0003262,15.8788235 C88.1836171,14.8445991 87.2779863,13.3469665 87.2779863,11.3832236 C87.2779863,8.24542329 89.3691083,6.67686087 93.5520332,6.67686087 C95.3476336,6.67686087 97.1629808,6.90924049 99.0001176,7.37670181 C99.3882451,7.47803013 99.581628,7.7090587 99.581628,8.07451618 L99.581628,10.5327413 C99.581628,10.9177889 99.4059492,11.1096372 99.06072,11.1096372 L98.9701569,11.1096372 C97.0506281,10.8475346 95.3571666,10.7151322 93.8870485,10.7151322 C93.2762584,10.7151322 92.851361,10.7772803 92.6184845,10.8968477 C92.3842461,11.0177662 92.2650842,11.2521723 92.2650842,11.5966886 C92.2650842,11.9189127 92.5803526,12.2735618 93.2149751,12.6586095 L97.0111344,14.8148761 C99.0722957,15.9882581 100.101855,17.5466877 100.101855,19.4901649 C100.101855,20.989824 99.544858,22.2138702 98.4349495,23.1629788 Z M82.2330097,31.8387097 L140,31.8387097 L140,0 L82.2330097,0 L82.2330097,31.8387097 Z" id="Fill-15"></path>
                    <polygon id="Fill-17" points="2.01432616 41.3225806 0.67961165 36.5806452 1.38701034 36.5806452 2.44705465 40.3947687 3.42350369 36.5806452 4.13090238 36.5806452 5.05607027 40.361977 6.19479249 36.5806452 6.7961165 36.5806452 5.34268265 41.3225806 4.60999464 41.3225806 3.69817388 37.6679147 2.74209681 41.3225806"></polygon>
                    <polygon id="Fill-19" points="7.47572816 41.3225806 7.47572816 36.5806452 10.059915 36.5806452 10.059915 37.0828081 8.13196982 37.0828081 8.13196982 38.6053712 9.74685133 38.6053712 9.74685133 39.1030334 8.13196982 39.1030334 8.13196982 40.8204177 10.1941748 40.8204177 10.1941748 41.3225806"></polygon>
                    <path d="M12.179941,40.8202134 L12.3105716,40.8202134 C12.7726168,40.8202134 13.0750024,40.7886948 13.211076,40.7282306 C13.4711276,40.609232 13.6017582,40.391175 13.6017582,40.0740597 C13.6017582,39.7916791 13.4826182,39.5562547 13.2467575,39.3703595 C13.0102919,39.1831778 12.7127445,39.0899086 12.3577438,39.0899086 L12.179941,39.0899086 L12.179941,40.8202134 Z M12.179941,38.6634432 L12.3807251,38.6634432 C12.7200017,38.6634432 12.9812629,38.5856116 13.1657181,38.4325215 C13.3519876,38.2781449 13.446332,38.0613743 13.446332,37.7822099 C13.446332,37.3152206 13.1058458,37.0830124 12.4266877,37.0830124 L12.179941,37.0830124 L12.179941,38.6634432 Z M11.5533981,41.3225806 L11.5533981,36.5806452 L12.7109302,36.5806452 C13.155437,36.5806452 13.4971327,36.6694117 13.7366221,36.8488746 C13.9742972,37.0283374 14.0928324,37.2875615 14.0928324,37.6259036 C14.0928324,38.2003133 13.7880277,38.6074817 13.1778135,38.8525546 C13.9065628,39.0899086 14.2718447,39.5170173 14.2718447,40.1383832 C14.2718447,40.5223951 14.1502856,40.8169972 13.9095867,41.01833 C13.6676782,41.2228791 13.3199348,41.3225806 12.8681707,41.3225806 L11.5533981,41.3225806 Z" id="Fill-21"></path>
                    <polygon id="Fill-23" points="19.7087379 42 20.2144062 42 20.2144062 35.9032258 19.7087379 35.9032258"></polygon>
                    <polygon id="Fill-25" points="25.8252427 41.3225806 25.8252427 36.5806452 26.8250314 36.5806452 28.2356447 40.2494565 29.6876858 36.5806452 30.5825243 36.5806452 30.5825243 41.3225806 29.9086336 41.3225806 29.9086336 37.4653778 28.5056153 41.0043084 27.8047966 41.0043084 26.443206 37.4557332 26.443206 41.3225806"></polygon>
                    <path d="M34.2993506,41.4513463 C34.8180509,41.4513463 35.2194918,41.2609971 35.5057426,40.8809984 C35.7906139,40.5023994 35.9306354,39.9656425 35.9306354,39.2728272 C35.9306354,38.6010064 35.7885446,38.0761464 35.5043631,37.6975473 C35.2181123,37.3175487 34.8228792,37.128599 34.321423,37.128599 C33.8137589,37.128599 33.4178361,37.3175487 33.1329648,37.6996468 C32.8487833,38.0761464 32.7060028,38.6059051 32.7060028,39.2833244 C32.7060028,39.9572447 32.8487833,40.4870035 33.129516,40.8726006 C33.412318,41.257498 33.802033,41.4513463 34.2993506,41.4513463 M34.2876247,42 C33.5833787,42 33.0143259,41.7515662 32.5859843,41.2560984 C32.1555735,40.7585311 31.9417476,40.1014063 31.9417476,39.2854239 C31.9417476,38.4666422 32.1576428,37.8095175 32.5873639,37.3175487 C33.0212235,36.8269795 33.5964842,36.5806452 34.321423,36.5806452 C35.0387744,36.5806452 35.6147248,36.8269795 36.0478948,37.3154492 C36.4810647,37.8067182 36.6990291,38.4617435 36.6990291,39.2798254 C36.6990291,40.1133031 36.4810647,40.7753266 36.0478948,41.2644961 C35.6147248,41.7550653 35.0291178,42 34.2876247,42" id="Fill-26"></path>
                    <path d="M38.6850743,40.8202134 L38.8139479,40.8202134 C39.279829,40.8202134 39.578719,40.7886948 39.7154581,40.7282306 C39.9768356,40.609232 40.1075243,40.391175 40.1075243,40.0740597 C40.1075243,39.7916791 39.9901465,39.5562547 39.7505505,39.3703595 C39.5145847,39.1831778 39.2181149,39.0899086 38.8629562,39.0899086 L38.6850743,39.0899086 L38.6850743,40.8202134 Z M38.6850743,38.6634432 L38.8877628,38.6634432 C39.2235603,38.6634432 39.4867529,38.5856116 39.6712902,38.4325215 C39.8576426,38.2781449 39.9520289,38.0613743 39.9520289,37.7822099 C39.9520289,37.3152206 39.6113912,37.0830124 38.9331409,37.0830124 L38.6850743,37.0830124 L38.6850743,38.6634432 Z M38.0582524,41.3225806 L38.0582524,36.5806452 L39.2162998,36.5806452 C39.6628196,36.5806452 40.0046675,36.6694117 40.2424483,36.8488746 C40.4802292,37.0283374 40.5988171,37.2875615 40.5988171,37.6259036 C40.5988171,38.2003133 40.2938768,38.6074817 39.683391,38.8525546 C40.4124647,39.0899086 40.776699,39.5170173 40.776699,40.1383832 C40.776699,40.5223951 40.656296,40.8169972 40.4154899,41.01833 C40.1746838,41.2228791 39.8255755,41.3225806 39.3717952,41.3225806 L38.0582524,41.3225806 Z" id="Fill-27"></path>
                    <polygon id="Fill-28" points="42.815534 41.3225806 43.4988695 41.3225806 43.4988695 36.5806452 42.815534 36.5806452"></polygon>
                    <polygon id="Fill-29" points="45.5339806 41.3225806 45.5339806 36.5806452 46.1868064 36.5806452 46.1868064 40.8204177 48.2524272 40.8204177 48.2524272 41.3225806"></polygon>
                    <polygon id="Fill-30" points="50.2912621 41.3225806 50.2912621 36.5806452 52.8742567 36.5806452 52.8742567 37.0828081 50.947201 37.0828081 50.947201 38.6053712 52.5625917 38.6053712 52.5625917 39.1030334 50.947201 39.1030334 50.947201 40.8204177 53.0097087 40.8204177 53.0097087 41.3225806"></polygon>
                    <polygon id="Fill-31" points="57.7669903 42 58.2706086 42 58.2706086 35.9032258 57.7669903 35.9032258"></polygon>
                    <path d="M64.5742227,40.8202134 L65.4604143,40.8202134 C66.0910499,40.8202134 66.5400888,40.6549017 66.8029087,40.3242784 C67.0861994,39.9711419 67.2288353,39.497077 67.2288353,38.9040134 C67.2288353,38.3469711 67.0875201,37.9069977 66.8088519,37.5898824 C66.6411226,37.3949819 66.4390551,37.2624753 66.2033096,37.1904328 C65.9682245,37.1190337 65.6155969,37.0830124 65.146087,37.0830124 L64.5742227,37.0830124 L64.5742227,40.8202134 Z M63.8834951,41.3225806 L63.8834951,36.5806452 L65.5033371,36.5806452 C65.9853937,36.5806452 66.3763217,36.632104 66.6728195,36.7363083 C66.9706379,36.8411557 67.2288353,37.0186888 67.4434495,37.2701941 C67.788153,37.6664275 67.961165,38.1893783 67.961165,38.8396898 C67.961165,39.6276539 67.7478715,40.2393713 67.3199638,40.6722691 C66.8907354,41.1058101 66.2884949,41.3225806 65.5132424,41.3225806 L63.8834951,41.3225806 Z" id="Fill-32"></path>
                    <polygon id="Fill-33" points="69.3203883 41.3225806 70.0037239 41.3225806 70.0037239 36.5806452 69.3203883 36.5806452"></polygon>
                    <path d="M76.1165049,41.7318676 C75.5055029,41.9103892 74.9750577,42 74.5197076,42 C73.720285,42 73.1058696,41.7654717 72.679875,41.2985152 C72.252515,40.8315588 72.038835,40.1608778 72.038835,39.2892725 C72.038835,38.4316688 72.2559284,37.7679886 72.6867018,37.2919311 C73.120206,36.8165737 73.7284772,36.5806452 74.5115154,36.5806452 C75.0235282,36.5806452 75.5580696,36.6555542 76.109678,36.8116731 L76.109678,37.489355 C75.4160714,37.2478258 74.8842607,37.1274112 74.5135635,37.1274112 C73.9701472,37.1274112 73.547566,37.315734 73.2478678,37.69658 C72.9481697,38.0753258 72.7959312,38.60669 72.7959312,39.2962733 C72.7959312,39.9774556 72.9584099,40.5074196 73.2792713,40.8861654 C73.6021807,41.2628109 74.0527519,41.4518338 74.6323504,41.4518338 C74.8712897,41.4518338 75.1313922,41.4112289 75.4058311,41.3223181 L75.4058311,39.6407149 L76.1165049,39.6407149 L76.1165049,41.7318676 Z" id="Fill-34"></path>
                    <polygon id="Fill-35" points="78.1553398 41.3225806 78.8386754 41.3225806 78.8386754 36.5806452 78.1553398 36.5806452"></polygon>
                    <polygon id="Fill-36" points="81.8763841 41.3225806 81.8763841 37.0828081 80.1941748 37.0828081 80.1941748 36.5806452 84.2718447 36.5806452 84.2718447 37.0828081 82.5896354 37.0828081 82.5896354 41.3225806"></polygon>
                    <path d="M87.4727917,39.5081072 L86.5990479,37.4647348 L85.7225236,39.5081072 L87.4727917,39.5081072 Z M88.2415751,41.3225806 L87.6834078,40.0089841 L85.5119075,40.0089841 L84.9481794,41.3225806 L84.2718447,41.3225806 L86.3057146,36.5806452 L87.0258408,36.5806452 L89.0291262,41.3225806 L88.2415751,41.3225806 Z" id="Fill-37"></path>
                    <polygon id="Fill-38" points="90.3883495 41.3225806 90.3883495 36.5806452 91.0411754 36.5806452 91.0411754 40.8204177 93.1067961 40.8204177 93.1067961 41.3225806"></polygon>
                    <path d="M98.3345548,42 C98.0349264,42 97.6517652,41.9237203 97.184466,41.7725607 L97.184466,41.047554 C97.6886891,41.317682 98.1009052,41.4513463 98.4241406,41.4513463 C98.6735283,41.4513463 98.8732805,41.3771661 99.0276346,41.2260064 C99.178962,41.0748467 99.2540204,40.8760997 99.2540204,40.6283658 C99.2540204,40.4261197 99.2055957,40.2546654 99.1057195,40.1140029 C99.0058434,39.971241 98.8218292,39.8130832 98.5548876,39.6381298 L98.2461795,39.4330845 C97.8648343,39.1818515 97.5991033,38.9460144 97.4429333,38.7234737 C97.2861581,38.5009331 97.209889,38.2427019 97.209889,37.9473807 C97.209889,37.5484871 97.3345829,37.222374 97.5827599,36.9662423 C97.8339635,36.7101106 98.1511459,36.5806452 98.5385442,36.5806452 C98.8793336,36.5806452 99.2437302,36.6471274 99.6250754,36.7793922 L99.6250754,37.4498134 C99.1553549,37.2342709 98.8030646,37.1292989 98.5736522,37.1292989 C98.3533194,37.1292989 98.172937,37.1957811 98.0306892,37.3294455 C97.8884414,37.4652093 97.8164095,37.6352639 97.8164095,37.8389096 C97.8164095,38.0117635 97.8678609,38.1629232 97.9731848,38.2972874 C98.0772981,38.4281525 98.2667601,38.5877099 98.5458079,38.7710611 L98.8660168,38.9796054 C99.2509939,39.2329379 99.5209621,39.4722741 99.6735002,39.697614 C99.8266436,39.9236537 99.9029126,40.1951813 99.9029126,40.5107971 C99.9029126,40.9593775 99.7606648,41.3190816 99.4725373,41.5927086 C99.1862257,41.8621368 98.8060911,42 98.3345548,42" id="Fill-39"></path>
                    <path d="M104.300377,41.4513463 C104.819303,41.4513463 105.222988,41.2609971 105.507294,40.8809984 C105.790219,40.5023994 105.934441,39.9656425 105.934441,39.2728272 C105.934441,38.6010064 105.790219,38.0761464 105.505913,37.6975473 C105.219538,37.3175487 104.826203,37.128599 104.320388,37.128599 C103.814574,37.128599 103.417788,37.3175487 103.133483,37.6996468 C102.849178,38.0761464 102.706335,38.6059051 102.706335,39.2833244 C102.706335,39.9572447 102.849178,40.4870035 103.132103,40.8726006 C103.412958,41.257498 103.801462,41.4513463 104.300377,41.4513463 M104.290026,42 C103.584093,42 103.016173,41.7515662 102.586265,41.2560984 C102.157737,40.7585311 101.941748,40.1014063 101.941748,39.2854239 C101.941748,38.4666422 102.157737,37.8095175 102.589715,37.3175487 C103.021693,36.8269795 103.598584,36.5806452 104.320388,36.5806452 C105.040122,36.5806452 105.617703,36.8269795 106.049682,37.3154492 C106.48304,37.8067182 106.699029,38.4617435 106.699029,39.2798254 C106.699029,40.1133031 106.48304,40.7753266 106.049682,41.2644961 C105.617703,41.7550653 105.030461,42 104.290026,42" id="Fill-40"></path>
                    <polygon id="Fill-41" points="108.058252 41.3225806 108.058252 36.5806452 108.711078 36.5806452 108.711078 40.8204177 110.776699 40.8204177 110.776699 41.3225806"></polygon>
                    <path d="M112.815534,36.5806452 L113.489625,36.5806452 L113.489625,39.9165703 C113.489625,40.4485403 113.575651,40.8349713 113.752841,41.0765804 C113.929388,41.3181894 114.208012,41.4386354 114.592565,41.4386354 C114.969414,41.4386354 115.23263,41.3253588 115.389918,41.0973716 C115.547206,40.8693845 115.623603,40.4851043 115.623603,39.9409463 L115.623603,36.5806452 L116.213592,36.5806452 L116.213592,39.932343 C116.213592,40.6535853 116.081342,41.177669 115.816842,41.5081787 C115.550416,41.8365375 115.126702,42 114.547626,42 C113.95571,42 113.521082,41.8300851 113.239248,41.4888213 C112.957414,41.1475575 112.815534,40.6227569 112.815534,39.9094009 L112.815534,36.5806452 Z" id="Fill-42"></path>
                    <polygon id="Fill-43" points="119.254223 41.3225806 119.254223 37.0828081 117.572816 37.0828081 117.572816 36.5806452 121.650485 36.5806452 121.650485 37.0828081 119.969078 37.0828081 119.969078 41.3225806"></polygon>
                    <polygon id="Fill-44" points="123.009709 41.3225806 123.693044 41.3225806 123.693044 36.5806452 123.009709 36.5806452"></polygon>
                    <path d="M127.405451,41.4513463 C127.925681,41.4513463 128.327929,41.2609971 128.612193,40.8809984 C128.896457,40.5023994 129.039278,39.9656425 129.039278,39.2728272 C129.039278,38.6010064 128.895077,38.0761464 128.610813,37.6975473 C128.325859,37.3175487 127.931201,37.128599 127.426839,37.128599 C126.919718,37.128599 126.52299,37.3175487 126.240106,37.6996468 C125.957222,38.0761464 125.81509,38.6059051 125.81509,39.2833244 C125.81509,39.9572447 125.955842,40.4870035 126.237347,40.8726006 C126.520231,41.257498 126.907989,41.4513463 127.405451,41.4513463 M127.395101,42 C126.689271,42 126.121433,41.7515662 125.691587,41.2560984 C125.263122,40.7585311 125.048544,40.1014063 125.048544,39.2854239 C125.048544,38.4666422 125.263122,37.8095175 125.695037,37.3175487 C126.126953,36.8269795 126.70376,36.5806452 127.426839,36.5806452 C128.147159,36.5806452 128.722586,36.8269795 129.156572,37.3154492 C129.589867,37.8067182 129.805825,38.4617435 129.805825,39.2798254 C129.805825,40.1133031 129.589867,40.7753266 129.156572,41.2644961 C128.722586,41.7550653 128.13543,42 127.395101,42" id="Fill-45"></path>
                    <polygon id="Fill-46" points="131.84466 41.3225806 131.84466 36.5806452 132.587107 36.5806452 135.273232 40.2430268 135.273232 36.5806452 135.92233 36.5806452 135.92233 41.3225806 135.183501 41.3225806 132.494482 37.661485 132.494482 41.3225806"></polygon>
                    <path d="M138.430594,42 C138.130765,42 137.747348,41.9237203 137.281553,41.7725607 L137.281553,41.047554 C137.784296,41.317682 138.198605,41.4513463 138.521451,41.4513463 C138.771611,41.4513463 138.971497,41.3771661 139.124137,41.2260064 C139.275565,41.0748467 139.350674,40.8760997 139.350674,40.6283658 C139.350674,40.4261197 139.302217,40.2546654 139.202274,40.1140029 C139.103543,39.971241 138.918194,39.8130832 138.651074,39.6381298 L138.343977,39.4330845 C137.961771,39.1818515 137.694651,38.9460144 137.540193,38.7234737 C137.382708,38.5009331 137.305176,38.2427019 137.305176,37.9473807 C137.305176,37.5484871 137.429953,37.222374 137.678296,36.9662423 C137.927851,36.7101106 138.247062,36.5806452 138.63472,36.5806452 C138.976948,36.5806452 139.340377,36.6471274 139.721977,36.7793922 L139.721977,37.4498134 C139.251943,37.2342709 138.899417,37.1292989 138.66864,37.1292989 C138.449977,37.1292989 138.268868,37.1957811 138.126525,37.3294455 C137.982365,37.4652093 137.912102,37.6352639 137.912102,37.8389096 C137.912102,38.0117635 137.963588,38.1629232 138.067771,38.2972874 C138.173771,38.4281525 138.364571,38.5877099 138.641988,38.7710611 L138.962411,38.9796054 C139.347646,39.2329379 139.617794,39.4722741 139.770434,39.697614 C139.92368,39.9236537 140,40.1951813 140,40.5107971 C140,40.9593775 139.857657,41.3190816 139.571154,41.5927086 C139.284045,41.8621368 138.902445,42 138.430594,42" id="Fill-47"></path>
                </g>
                <path d="M182.5,0.5 L182.5,40.1232255" id="Line-2" stroke="#CCCCCC" stroke-linecap="square"></path>
            </g>
        </g>
    </g>
</svg>