<?xml version="1.0" encoding="UTF-8"?>
<svg width="130px" height="130px" viewBox="0 0 130 130" version="1.1" xmlns="http://www.w3.org/2000/svg" xmlns:xlink="http://www.w3.org/1999/xlink">
    <!-- Generator: Sketch 52.5 (67469) - http://www.bohemiancoding.com/sketch -->
    <title>Group 29</title>
    <desc>Created with Sketch.</desc>
    <g id="Page-1" stroke="none" stroke-width="1" fill="none" fill-rule="evenodd">
        <g id="thankyou-popup" transform="translate(-616.000000, -116.000000)" fill="#D6BA69">
            <g id="Group-29" transform="translate(616.000000, 116.000000)">
                <path d="M89.7439444,70.1133889 L88.5056111,70.6895 L89.3067222,71.7961667 C89.7633889,72.4278333 90.2483889,73.5228333 89.9650556,75.1545 C89.7556111,76.3567222 89.0033889,77.1389444 87.7306111,77.4789444 L86.8789444,77.7061667 L86.8939444,78.5883889 C86.8950556,78.6233889 86.8972778,78.6583889 86.8989444,78.6828333 L86.9206111,79.1317222 L87.0011667,79.3183889 C87.3811667,80.2028333 87.4245,81.0711667 87.1311667,81.8972778 C86.4595,83.7750556 84.0278333,83.9206111 83.2983889,83.9206111 L69.8545,83.9206111 C68.1756111,83.9206111 64.9195,83.0445 60.8617222,81.5056111 L57.6606111,57.8450556 C59.6972778,55.5356111 64.1828333,48.2017222 64.7678333,44.9106111 C65.1533889,42.7522778 64.7839444,41.1761667 64.5061667,39.9939444 C64.3400556,39.2967222 64.1828333,38.6383889 64.3145,38.1478333 C64.6022778,37.0511667 66.4311667,36.4589444 68.0056111,36.4589444 C68.2650556,36.4589444 68.5217222,36.4745 68.7695,36.5056111 C69.3861667,36.5817222 70.0878333,37.0567222 70.7983889,37.8811667 C72.4067222,39.7400556 73.9845,43.2939444 73.8395,46.0250556 C73.7189444,48.3778333 73.7300556,50.9411667 73.7478333,52.2595 L73.7622778,53.3717222 L85.6233889,53.3717222 C87.5295,53.3717222 88.7133889,54.2139444 89.3695,54.9195 C90.6322778,56.2806111 91.0600556,58.2889444 90.9245,59.6750556 C90.8456111,60.4811667 90.5078333,61.0856111 89.8911667,61.5245 L88.6700556,62.3928333 L89.8433889,63.3250556 C90.9122778,64.1750556 91.5083889,65.2422778 91.6150556,66.4978333 C91.7161667,67.7028333 91.4733889,69.3089444 89.7439444,70.1133889 Z M54.6472778,81.8245 L52.2395,58.5500556 L55.5178333,58.8200556 L58.5456111,81.1972778 L54.6472778,81.8245 Z M40.2917222,84.1328333 C39.3389444,84.0900556 38.4428333,83.2750556 38.3133889,82.3139444 C38.3106111,82.2978333 38.3111667,82.2822778 38.3111667,82.2722778 L38.4361667,59.0728333 L38.4361667,59.0167222 L38.4311667,58.9617222 C38.3928333,58.5578333 38.5056111,58.1895 38.7472778,57.9239444 C38.9783889,57.6700556 39.3150556,57.5261667 39.6989444,57.5172778 L49.9545,58.3617222 L52.4183889,82.1828333 L40.2917222,84.1328333 Z M93.8611667,66.3095 L93.8611667,66.3083889 C93.7372778,64.8489444 93.1606111,63.5295 92.1772778,62.4350556 C92.7356111,61.7278333 93.0728333,60.8683889 93.1678333,59.8945 C93.3395,58.1445 92.8800556,55.3895 91.0211667,53.3850556 C90.0583889,52.3506111 88.3406111,51.1178333 85.6233889,51.1178333 L75.9922778,51.1178333 C75.9861667,49.7545 76.0017222,47.8845 76.0911667,46.1422778 C76.2733889,42.6839444 74.4245,38.6261667 72.5039444,36.4072778 C71.4078333,35.1367222 70.2439444,34.4167222 69.0472778,34.2683889 C68.7083889,34.2261667 68.3578333,34.2050556 68.0056111,34.2050556 C65.5245,34.2050556 62.7461667,35.2467222 62.1356111,37.5700556 C61.8583889,38.6072778 62.1006111,39.6217222 62.3195,40.5400556 C62.5689444,41.6056111 62.8528333,42.8133889 62.5483889,44.5150556 C62.0261667,47.4539444 57.2672778,55.1439444 55.7600556,56.5783889 L39.8317222,55.2661667 L39.7389444,55.2622778 C38.6967222,55.2622778 37.7522778,55.6683889 37.0806111,56.4056111 C36.4195,57.1322778 36.1006111,58.0906111 36.1811667,59.1117222 L36.0567222,82.2661667 C36.0567222,82.3845 36.0633889,82.4995 36.0789444,82.6172778 C36.3650556,84.7322778 38.2500556,86.3889444 40.3706111,86.3889444 L40.4606111,86.3889444 L59.3706111,83.3483889 L59.4267222,83.3700556 C62.1272778,84.4172778 67.0728333,86.1750556 69.8545,86.1750556 L83.2983889,86.1750556 C84.4000556,86.1750556 88.0856111,85.9211667 89.2539444,82.6539444 C89.6411667,81.5645 89.6783889,80.4111667 89.3683889,79.2739444 C90.9000556,78.5522778 91.8867222,77.2583889 92.1861667,75.5406111 C92.4800556,73.8467222 92.1906111,72.5145 91.7456111,71.5311667 C93.2856111,70.3722778 94.0472778,68.5278333 93.8611667,66.3095 Z" id="Fill-1"></path>
                <path d="M65,21.1111111 C40.7994444,21.1111111 21.1111111,40.7994444 21.1111111,65 C21.1111111,89.2005556 40.7994444,108.888889 65,108.888889 C89.2005556,108.888889 108.888889,89.2005556 108.888889,65 C108.888889,40.7994444 89.2005556,21.1111111 65,21.1111111 M65,111.111111 C39.5738889,111.111111 18.8888889,90.4255556 18.8888889,65 C18.8888889,39.5744444 39.5738889,18.8888889 65,18.8888889 C90.4261111,18.8888889 111.111111,39.5744444 111.111111,65 C111.111111,90.4255556 90.4261111,111.111111 65,111.111111" id="Fill-3"></path>
                <path d="M65,13.8888889 C64.3866667,13.8888889 63.8888889,13.3911111 63.8888889,12.7777778 L63.8888889,1.11111111 C63.8888889,0.497777778 64.3866667,0 65,0 C65.6133333,0 66.1111111,0.497777778 66.1111111,1.11111111 L66.1111111,12.7777778 C66.1111111,13.3911111 65.6133333,13.8888889 65,13.8888889" id="Fill-5"></path>
                <path d="M38.89,20.8856667 C38.5061111,20.8856667 38.1327778,20.6862222 37.9266667,20.3301111 L32.0933333,10.2262222 C31.7866667,9.69455556 31.9683333,9.01511111 32.5,8.70844444 C33.0305556,8.40011111 33.7105556,8.58344444 34.0177778,9.11511111 L39.8511111,19.219 C40.1577778,19.7501111 39.9761111,20.4295556 39.4444444,20.7362222 C39.27,20.8378889 39.0783333,20.8856667 38.89,20.8856667" id="Fill-7"></path>
                <path d="M19.7732222,40.0002778 C19.5848889,40.0002778 19.3937778,39.9525 19.2187778,39.8508333 L9.11488889,34.0175 C8.58322222,33.7108333 8.40155556,33.0313889 8.70822222,32.5002778 C9.01488889,31.9686111 9.69322222,31.7852778 10.226,32.0936111 L20.3298889,37.9269444 C20.8615556,38.2336111 21.0432222,38.9130556 20.7365556,39.4447222 C20.5304444,39.8008333 20.1571111,40.0002778 19.7732222,40.0002778" id="Fill-9"></path>
                <path d="M12.7777778,66.1111111 L1.11111111,66.1111111 C0.497777778,66.1111111 0,65.6133333 0,65 C0,64.3866667 0.497777778,63.8888889 1.11111111,63.8888889 L12.7777778,63.8888889 C13.3911111,63.8888889 13.8888889,64.3866667 13.8888889,65 C13.8888889,65.6133333 13.3911111,66.1111111 12.7777778,66.1111111" id="Fill-11"></path>
                <path d="M9.67177778,98.0558333 C9.28788889,98.0558333 8.91455556,97.8563889 8.70844444,97.5002778 C8.40177778,96.9686111 8.58344444,96.2891667 9.11511111,95.9825 L19.219,90.1491667 C19.7495556,89.8408333 20.429,90.0241667 20.7367778,90.5558333 C21.0434444,91.0869444 20.8617778,91.7663889 20.3301111,92.0730556 L10.2262222,97.9063889 C10.0517778,98.0080556 9.86011111,98.0558333 9.67177778,98.0558333" id="Fill-13"></path>
                <path d="M33.0544444,121.440444 C32.8661111,121.440444 32.675,121.392667 32.5,121.291556 C31.9683333,120.984889 31.7866667,120.305444 32.0933333,119.773778 L37.9266667,109.669889 C38.2333333,109.138778 38.9105556,108.955444 39.4444444,109.263222 C39.9761111,109.570444 40.1577778,110.249333 39.8511111,110.781 L34.0177778,120.884889 C33.8116667,121.241556 33.4383333,121.440444 33.0544444,121.440444" id="Fill-15"></path>
                <path d="M65,130 C64.3866667,130 63.8888889,129.502222 63.8888889,128.888889 L63.8888889,117.222222 C63.8888889,116.608889 64.3866667,116.111111 65,116.111111 C65.6133333,116.111111 66.1111111,116.608889 66.1111111,117.222222 L66.1111111,128.888889 C66.1111111,129.502222 65.6133333,130 65,130" id="Fill-17"></path>
                <path d="M96.9455556,121.440444 C96.5616667,121.440444 96.1883333,121.241556 95.9822222,120.884889 L90.1488889,110.781 C89.8422222,110.249333 90.0238889,109.570444 90.5555556,109.263222 C91.0861111,108.955444 91.7661111,109.138778 92.0733333,109.669889 L97.9066667,119.773778 C98.2133333,120.305444 98.0316667,120.984889 97.5,121.291556 C97.3255556,121.392667 97.1338889,121.440444 96.9455556,121.440444" id="Fill-19"></path>
                <path d="M120.328222,98.0558333 C120.139889,98.0558333 119.948778,98.0080556 119.773778,97.9063889 L109.669889,92.0730556 C109.138222,91.7663889 108.956556,91.0869444 109.263222,90.5558333 C109.570444,90.0241667 110.247667,89.8408333 110.781,90.1491667 L120.884889,95.9825 C121.416556,96.2891667 121.598222,96.9686111 121.291556,97.5002778 C121.085444,97.8563889 120.712111,98.0558333 120.328222,98.0558333" id="Fill-21"></path>
                <path d="M128.888889,66.1111111 L117.222222,66.1111111 C116.608889,66.1111111 116.111111,65.6133333 116.111111,65 C116.111111,64.3866667 116.608889,63.8888889 117.222222,63.8888889 L128.888889,63.8888889 C129.502222,63.8888889 130,64.3866667 130,65 C130,65.6133333 129.502222,66.1111111 128.888889,66.1111111" id="Fill-23"></path>
                <path d="M110.226778,40.0002778 C109.842889,40.0002778 109.469556,39.8008333 109.263444,39.4447222 C108.956778,38.9130556 109.138444,38.2336111 109.670111,37.9269444 L119.774,32.0936111 C120.304556,31.7852778 120.984556,31.9686111 121.291778,32.5002778 C121.598444,33.0313889 121.416778,33.7108333 120.885111,34.0175 L110.781222,39.8508333 C110.606778,39.9525 110.415111,40.0002778 110.226778,40.0002778" id="Fill-25"></path>
                <path d="M91.11,20.8856667 C90.9216667,20.8856667 90.7305556,20.8378889 90.5555556,20.7362222 C90.0238889,20.4295556 89.8422222,19.7501111 90.1488889,19.219 L95.9822222,9.11511111 C96.2888889,8.58344444 96.9661111,8.40011111 97.5,8.70844444 C98.0316667,9.01511111 98.2133333,9.69455556 97.9066667,10.2262222 L92.0733333,20.3301111 C91.8672222,20.6862222 91.4938889,20.8856667 91.11,20.8856667" id="Fill-27"></path>
            </g>
        </g>
    </g>
</svg>