<svg width="132" height="132" viewBox="0 0 132 132" fill="none" xmlns="http://www.w3.org/2000/svg">
<circle cx="65.7762" cy="65.7762" r="57.7762" stroke="#ECECEC" stroke-width="15"/>
<path d="M65.37 112.74C91.5317 112.74 112.74 91.5317 112.74 65.37C112.74 39.2083 91.5317 18 65.37 18C39.2083 18 18 39.2083 18 65.37C18 91.5317 39.2083 112.74 65.37 112.74Z" fill="url(#paint0_linear)"/>
<path d="M65 46.4902C64.1032 46.4902 63.375 45.762 63.375 44.8652V40.625C63.375 39.7282 64.1032 39 65 39C65.8968 39 66.625 39.7282 66.625 40.625V44.8652C66.625 45.762 65.8968 46.4902 65 46.4902Z" fill="white"/>
<path d="M79.2368 52.3876C78.8204 52.3876 78.405 52.2292 78.0881 51.9113C77.4534 51.2765 77.4534 50.2477 78.0881 49.6129L81.0873 46.6138C81.722 45.979 82.7509 45.979 83.3856 46.6138C84.0204 47.2485 84.0204 48.2774 83.3856 48.9121L80.3865 51.9113C80.0686 52.2271 79.6532 52.3876 79.2368 52.3876Z" fill="white"/>
<path d="M89.375 66.625H85.1348C84.238 66.625 83.5098 65.8968 83.5098 65C83.5098 64.1032 84.238 63.375 85.1348 63.375H89.375C90.2718 63.375 91 64.1032 91 65C91 65.8968 90.2718 66.625 89.375 66.625Z" fill="white"/>
<path d="M82.2359 83.8612C81.8195 83.8612 81.4042 83.7028 81.0873 83.3849L78.0881 80.3858C77.4534 79.751 77.4534 78.7222 78.0881 78.0874C78.7229 77.4526 79.7517 77.4526 80.3865 78.0874L83.3856 81.0865C84.0204 81.7213 84.0204 82.7501 83.3856 83.3849C83.0677 83.7028 82.6513 83.8612 82.2359 83.8612Z" fill="white"/>
<path d="M47.7639 83.8612C47.3475 83.8612 46.9321 83.7028 46.6152 83.3849C45.9805 82.7501 45.9805 81.7213 46.6152 81.0865L49.6144 78.0874C50.2491 77.4526 51.278 77.4526 51.9127 78.0874C52.5475 78.7222 52.5475 79.751 51.9127 80.3858L48.9136 83.3849C48.5967 83.7028 48.1803 83.8612 47.7639 83.8612Z" fill="white"/>
<path d="M44.8652 66.625H40.625C39.7282 66.625 39 65.8968 39 65C39 64.1032 39.7282 63.375 40.625 63.375H44.8652C45.762 63.375 46.4902 64.1032 46.4902 65C46.4902 65.8968 45.762 66.625 44.8652 66.625Z" fill="white"/>
<path d="M50.763 52.3876C50.3466 52.3876 49.9312 52.2292 49.6143 51.9113L46.6162 48.9121C45.9814 48.2774 45.9814 47.2485 46.6162 46.6138C47.251 45.979 48.2798 45.979 48.9146 46.6138L51.9137 49.6129C52.5485 50.2477 52.5485 51.2765 51.9137 51.9113C51.5928 52.2271 51.1784 52.3876 50.763 52.3876Z" fill="white"/>
<path d="M71.5 84.5V87.2087C71.5 89.2887 69.7886 91 67.7086 91H62.2923C60.4723 91 58.501 89.6137 58.501 86.58V84.5H71.5Z" fill="white"/>
<path d="M74.5551 53.2137C71.0014 50.3324 66.3214 49.205 61.7501 50.18C56.0087 51.3714 51.3501 56.0514 50.1587 61.7937C48.9451 67.6874 51.1551 73.5374 55.8787 77.1124C57.1574 78.066 58.0451 79.5387 58.3487 81.2511V81.2724C58.3924 81.251 58.4574 81.2511 58.5001 81.2511H71.5001C71.5437 81.2511 71.5651 81.251 71.6087 81.2724V81.25C71.9124 79.6037 72.8874 78.0864 74.3824 76.9164C78.0437 74.0127 80.1674 69.68 80.1674 65C80.1664 60.4064 78.1301 56.1164 74.5551 53.2137ZM73.1251 66.0837C72.2364 66.0837 71.5001 65.3474 71.5001 64.4587C71.5001 61.165 68.8351 58.5 65.5414 58.5C64.6527 58.5 63.9164 57.7637 63.9164 56.875C63.9164 55.9864 64.6527 55.25 65.5414 55.25C70.6114 55.25 74.7501 59.3887 74.7501 64.4587C74.7501 65.3464 74.0137 66.0837 73.1251 66.0837Z" fill="white"/>
<path d="M58.3486 81.25H58.5C58.4563 81.25 58.3913 81.25 58.3486 81.2713V81.25Z" fill="white"/>
<path d="M71.6087 81.25V81.2713C71.565 81.25 71.5437 81.25 71.5 81.25H71.6087Z" fill="white"/>
<defs>
<linearGradient id="paint0_linear" x1="78.1213" y1="-4.89933" x2="112.718" y2="131.614" gradientUnits="userSpaceOnUse">
<stop stop-color="#FFA1AA"/>
<stop offset="0.999789" stop-color="#FF5997"/>
</linearGradient>
</defs>
</svg>
