<svg width="224" height="220" viewBox="0 0 224 220" fill="none" xmlns="http://www.w3.org/2000/svg">
<circle cx="110.928" cy="112.11" r="57.7762" stroke="#ECECEC" stroke-width="15"/>
<path d="M110.37 159.74C136.532 159.74 157.74 138.532 157.74 112.37C157.74 86.2083 136.532 65 110.37 65C84.2083 65 63 86.2083 63 112.37C63 138.532 84.2083 159.74 110.37 159.74Z" fill="url(#paint0_linear)"/>
<path d="M110 93.4902C109.103 93.4902 108.375 92.762 108.375 91.8652V87.625C108.375 86.7282 109.103 86 110 86C110.897 86 111.625 86.7282 111.625 87.625V91.8652C111.625 92.762 110.897 93.4902 110 93.4902Z" fill="white"/>
<path d="M124.237 99.3876C123.82 99.3876 123.405 99.2292 123.088 98.9113C122.453 98.2765 122.453 97.2477 123.088 96.6129L126.087 93.6138C126.722 92.979 127.751 92.979 128.386 93.6138C129.02 94.2485 129.02 95.2774 128.386 95.9121L125.386 98.9113C125.069 99.2271 124.653 99.3876 124.237 99.3876Z" fill="white"/>
<path d="M134.375 113.625H130.135C129.238 113.625 128.51 112.897 128.51 112C128.51 111.103 129.238 110.375 130.135 110.375H134.375C135.272 110.375 136 111.103 136 112C136 112.897 135.272 113.625 134.375 113.625Z" fill="white"/>
<path d="M127.236 130.861C126.82 130.861 126.404 130.703 126.087 130.385L123.088 127.386C122.453 126.751 122.453 125.722 123.088 125.087C123.723 124.453 124.752 124.453 125.386 125.087L128.386 128.087C129.02 128.721 129.02 129.75 128.386 130.385C128.068 130.703 127.651 130.861 127.236 130.861Z" fill="white"/>
<path d="M92.7639 130.861C92.3475 130.861 91.9321 130.703 91.6152 130.385C90.9805 129.75 90.9805 128.721 91.6152 128.087L94.6144 125.087C95.2491 124.453 96.278 124.453 96.9127 125.087C97.5475 125.722 97.5475 126.751 96.9127 127.386L93.9136 130.385C93.5967 130.703 93.1803 130.861 92.7639 130.861Z" fill="white"/>
<path d="M89.8652 113.625H85.625C84.7282 113.625 84 112.897 84 112C84 111.103 84.7282 110.375 85.625 110.375H89.8652C90.762 110.375 91.4902 111.103 91.4902 112C91.4902 112.897 90.762 113.625 89.8652 113.625Z" fill="white"/>
<path d="M95.763 99.3876C95.3466 99.3876 94.9312 99.2292 94.6143 98.9113L91.6162 95.9121C90.9814 95.2774 90.9814 94.2485 91.6162 93.6138C92.251 92.979 93.2798 92.979 93.9146 93.6138L96.9137 96.6129C97.5485 97.2477 97.5485 98.2765 96.9137 98.9113C96.5928 99.2271 96.1784 99.3876 95.763 99.3876Z" fill="white"/>
<path d="M116.5 131.5V134.209C116.5 136.289 114.789 138 112.709 138H107.292C105.472 138 103.501 136.614 103.501 133.58V131.5H116.5Z" fill="white"/>
<path d="M119.555 100.214C116.001 97.3329 111.321 96.2055 106.75 97.1805C101.009 98.3718 96.3501 103.052 95.1587 108.794C93.9451 114.688 96.1551 120.538 100.879 124.113C102.157 125.067 103.045 126.539 103.349 128.252V128.273C103.392 128.252 103.457 128.252 103.5 128.252H116.5C116.544 128.252 116.565 128.252 116.609 128.273V128.251C116.912 126.604 117.887 125.087 119.382 123.917C123.044 121.013 125.167 116.681 125.167 112.001C125.166 107.407 123.13 103.117 119.555 100.214ZM118.125 113.084C117.236 113.084 116.5 112.348 116.5 111.459C116.5 108.166 113.835 105.501 110.541 105.501C109.653 105.501 108.916 104.764 108.916 103.876C108.916 102.987 109.653 102.251 110.541 102.251C115.611 102.251 119.75 106.389 119.75 111.459C119.75 112.347 119.014 113.084 118.125 113.084Z" fill="white"/>
<path d="M103.349 128.25H103.5C103.456 128.25 103.391 128.25 103.349 128.271V128.25Z" fill="white"/>
<path d="M116.609 128.25V128.271C116.565 128.25 116.544 128.25 116.5 128.25H116.609Z" fill="white"/>
<circle cx="110.688" cy="110.688" r="108.084" stroke="#ECECEC" stroke-width="1.97544"/>
<circle cx="110.172" cy="111.972" r="83.5495" stroke="#ECECEC" stroke-width="2.02705"/>
<circle cx="4.44366" cy="131.29" r="4.44366" fill="#ECECEC"/>
<circle cx="206.428" cy="60.7679" r="4.44366" fill="#ECECEC"/>
<circle cx="73.1182" cy="8.4837" r="4.44366" fill="#ECECEC"/>
<circle cx="113.112" cy="2.42382" r="2.42382" fill="#ECECEC"/>
<rect x="29.3035" y="123.22" width="11.9145" height="11.9145" rx="5.95727" transform="rotate(45 29.3035 123.22)" fill="#FFCF5D"/>
<path d="M217.577 118.403C221.124 118.403 224 115.528 224 111.98C224 108.433 221.124 105.558 217.577 105.558C214.03 105.558 211.154 108.433 211.154 111.98C211.154 115.528 214.03 118.403 217.577 118.403Z" fill="#FE8C7A"/>
<path opacity="0.4" d="M89.1211 196.279C90.8947 196.279 92.3325 195.021 92.3325 193.469C92.3325 191.917 90.8947 190.659 89.1211 190.659C87.3475 190.659 85.9097 191.917 85.9097 193.469C85.9097 195.021 87.3475 196.279 89.1211 196.279Z" fill="#DB6BFF"/>
<defs>
<linearGradient id="paint0_linear" x1="123.121" y1="42.1007" x2="157.718" y2="178.614" gradientUnits="userSpaceOnUse">
<stop stop-color="#FFA1AA"/>
<stop offset="0.999789" stop-color="#FF5997"/>
</linearGradient>
</defs>
</svg>
