<svg width="217" height="35" viewBox="0 0 217 35" fill="none" xmlns="http://www.w3.org/2000/svg">
<path d="M2.00781 23.1328C1.69531 23.1328 1.44792 23.0417 1.26562 22.8594C1.08854 22.6719 1 22.4141 1 22.0859V12.7734C1 12.4453 1.08854 12.1901 1.26562 12.0078C1.44792 11.8203 1.69531 11.7266 2.00781 11.7266H5.38281C6.50781 11.7266 7.42188 12.0755 8.125 12.7734C8.82812 13.4661 9.17969 14.375 9.17969 15.5C9.17969 16.6198 8.81771 17.5286 8.09375 18.2266C7.375 18.9245 6.44271 19.2734 5.29688 19.2734H3.01562V22.0859C3.01562 22.4193 2.92708 22.6771 2.75 22.8594C2.57292 23.0417 2.32552 23.1328 2.00781 23.1328ZM3.01562 17.6484H4.84375C5.56771 17.6484 6.13021 17.4609 6.53125 17.0859C6.93229 16.7109 7.13281 16.1823 7.13281 15.5C7.13281 14.8229 6.93229 14.2995 6.53125 13.9297C6.13542 13.5599 5.57552 13.375 4.85156 13.375H3.01562V17.6484ZM15.625 23.1875C13.9792 23.1875 12.6745 22.6667 11.7109 21.625C10.7526 20.5781 10.2734 19.1589 10.2734 17.3672C10.2734 15.5755 10.7526 14.1562 11.7109 13.1094C12.6745 12.0625 13.9792 11.5391 15.625 11.5391C17.2656 11.5391 18.5651 12.0625 19.5234 13.1094C20.487 14.1562 20.9688 15.5755 20.9688 17.3672C20.9688 19.1589 20.487 20.5781 19.5234 21.625C18.5651 22.6667 17.2656 23.1875 15.625 23.1875ZM13.2266 20.3594C13.8203 21.099 14.6198 21.4688 15.625 21.4688C16.6302 21.4688 17.4297 21.099 18.0234 20.3594C18.6172 19.6198 18.9141 18.6224 18.9141 17.3672C18.9141 16.112 18.6172 15.1146 18.0234 14.375C17.4297 13.6302 16.6302 13.2578 15.625 13.2578C14.6198 13.2578 13.8203 13.6276 13.2266 14.3672C12.6328 15.1068 12.3359 16.1068 12.3359 17.3672C12.3359 18.6224 12.6328 19.6198 13.2266 20.3594ZM25.4922 23.1328C25.1797 23.1328 24.9323 23.0547 24.75 22.8984C24.5677 22.737 24.4271 22.4792 24.3281 22.125L21.8281 13.1406C21.7604 12.901 21.7266 12.6875 21.7266 12.5C21.7266 12.224 21.8151 12.0052 21.9922 11.8438C22.1745 11.6771 22.4167 11.5938 22.7188 11.5938C23.2448 11.5938 23.5703 11.875 23.6953 12.4375L25.5781 20.2656H25.6406L27.7109 12.5469C27.7943 12.2135 27.9219 11.9714 28.0938 11.8203C28.2708 11.6693 28.5078 11.5938 28.8047 11.5938C29.3568 11.5938 29.7161 11.9036 29.8828 12.5234L31.9531 20.2656H32.0156L33.8984 12.4375C34.0234 11.875 34.349 11.5938 34.875 11.5938C35.1771 11.5938 35.4167 11.6771 35.5938 11.8438C35.776 12.0052 35.8672 12.224 35.8672 12.5C35.8672 12.6771 35.8333 12.8906 35.7656 13.1406L33.2578 22.1328C33.1641 22.4818 33.026 22.737 32.8438 22.8984C32.6615 23.0547 32.4167 23.1328 32.1094 23.1328C31.7865 23.1328 31.5312 23.0547 31.3438 22.8984C31.1615 22.7422 31.0208 22.487 30.9219 22.1328L28.8359 14.8438H28.7578L26.6719 22.1328C26.5781 22.4818 26.4375 22.737 26.25 22.8984C26.0625 23.0547 25.8099 23.1328 25.4922 23.1328ZM38.3984 23C38.0859 23 37.8385 22.9089 37.6562 22.7266C37.4792 22.5391 37.3906 22.2812 37.3906 21.9531V12.7734C37.3906 12.4453 37.4792 12.1901 37.6562 12.0078C37.8385 11.8203 38.0859 11.7266 38.3984 11.7266H43.8906C44.1719 11.7266 44.3958 11.8047 44.5625 11.9609C44.7292 12.112 44.8125 12.3177 44.8125 12.5781C44.8125 12.8385 44.7292 13.0469 44.5625 13.2031C44.3958 13.3542 44.1719 13.4297 43.8906 13.4297H39.4062V16.4766H43.6562C43.9167 16.4766 44.125 16.5495 44.2812 16.6953C44.4427 16.8359 44.5234 17.0286 44.5234 17.2734C44.5234 17.5182 44.4427 17.7135 44.2812 17.8594C44.125 18.0052 43.9167 18.0781 43.6562 18.0781H39.4062V21.2969H43.8906C44.1719 21.2969 44.3958 21.375 44.5625 21.5312C44.7292 21.6823 44.8125 21.888 44.8125 22.1484C44.8125 22.4089 44.7292 22.6172 44.5625 22.7734C44.3958 22.9245 44.1719 23 43.8906 23H38.3984ZM48.1797 22.8828C48.0026 23.0651 47.7578 23.1562 47.4453 23.1562C47.1328 23.1562 46.8854 23.0651 46.7031 22.8828C46.526 22.6953 46.4375 22.4375 46.4375 22.1094V12.7734C46.4375 12.4453 46.526 12.1901 46.7031 12.0078C46.8854 11.8203 47.1328 11.7266 47.4453 11.7266H50.9141C52.1276 11.7266 53.0807 12.0417 53.7734 12.6719C54.4661 13.2969 54.8125 14.151 54.8125 15.2344C54.8125 15.974 54.6302 16.6276 54.2656 17.1953C53.9062 17.7578 53.4036 18.1641 52.7578 18.4141L54.5391 21.5391C54.6849 21.7839 54.7578 22.0156 54.7578 22.2344C54.7578 22.5 54.6615 22.7214 54.4688 22.8984C54.276 23.0703 54.0339 23.1562 53.7422 23.1562C53.5026 23.1562 53.3099 23.1042 53.1641 23C53.0234 22.8958 52.875 22.7057 52.7188 22.4297L50.7109 18.7578H48.4531V22.1094C48.4531 22.4375 48.362 22.6953 48.1797 22.8828ZM48.4531 17.2109H50.7266C51.3672 17.2109 51.8646 17.0417 52.2188 16.7031C52.5729 16.3646 52.75 15.8906 52.75 15.2812C52.75 14.6875 52.5651 14.2188 52.1953 13.875C51.8255 13.5312 51.3229 13.3594 50.6875 13.3594H48.4531V17.2109ZM57.4453 23C57.1328 23 56.8854 22.9089 56.7031 22.7266C56.526 22.5391 56.4375 22.2812 56.4375 21.9531V12.7734C56.4375 12.4453 56.526 12.1901 56.7031 12.0078C56.8854 11.8203 57.1328 11.7266 57.4453 11.7266H62.9375C63.2188 11.7266 63.4427 11.8047 63.6094 11.9609C63.776 12.112 63.8594 12.3177 63.8594 12.5781C63.8594 12.8385 63.776 13.0469 63.6094 13.2031C63.4427 13.3542 63.2188 13.4297 62.9375 13.4297H58.4531V16.4766H62.7031C62.9635 16.4766 63.1719 16.5495 63.3281 16.6953C63.4896 16.8359 63.5703 17.0286 63.5703 17.2734C63.5703 17.5182 63.4896 17.7135 63.3281 17.8594C63.1719 18.0052 62.9635 18.0781 62.7031 18.0781H58.4531V21.2969H62.9375C63.2188 21.2969 63.4427 21.375 63.6094 21.5312C63.776 21.6823 63.8594 21.888 63.8594 22.1484C63.8594 22.4089 63.776 22.6172 63.6094 22.7734C63.4427 22.9245 63.2188 23 62.9375 23H57.4453ZM66.4922 23C66.1797 23 65.9323 22.9089 65.75 22.7266C65.5729 22.5391 65.4844 22.2812 65.4844 21.9531V12.7734C65.4844 12.4453 65.5729 12.1901 65.75 12.0078C65.9323 11.8203 66.1797 11.7266 66.4922 11.7266H69.6016C71.2891 11.7266 72.6042 12.2161 73.5469 13.1953C74.4896 14.1745 74.9609 15.5547 74.9609 17.3359C74.9609 19.1224 74.4896 20.513 73.5469 21.5078C72.6042 22.5026 71.2891 23 69.6016 23H66.4922ZM67.5 21.2969H69.3906C70.526 21.2969 71.3958 20.9583 72 20.2812C72.6042 19.6042 72.9062 18.625 72.9062 17.3438C72.9062 16.0833 72.6016 15.1172 71.9922 14.4453C71.3828 13.7682 70.5156 13.4297 69.3906 13.4297H67.5V21.2969ZM80.7734 23C80.4609 23 80.2135 22.9089 80.0312 22.7266C79.8542 22.5391 79.7656 22.2812 79.7656 21.9531V12.7734C79.7656 12.4453 79.8542 12.1901 80.0312 12.0078C80.2135 11.8203 80.4609 11.7266 80.7734 11.7266H84.4453C85.4714 11.7266 86.2891 11.9818 86.8984 12.4922C87.5078 13.0026 87.8125 13.6849 87.8125 14.5391C87.8125 15.1432 87.6146 15.6797 87.2188 16.1484C86.8229 16.6172 86.3359 16.8984 85.7578 16.9922V17.0547C86.5286 17.1276 87.1536 17.4167 87.6328 17.9219C88.1172 18.4271 88.3594 19.0521 88.3594 19.7969C88.3594 20.7917 88.0156 21.5755 87.3281 22.1484C86.6406 22.7161 85.6953 23 84.4922 23H80.7734ZM81.7812 16.4766H83.625C84.3281 16.4766 84.8698 16.3359 85.25 16.0547C85.6302 15.7682 85.8203 15.362 85.8203 14.8359C85.8203 14.3464 85.6562 13.9688 85.3281 13.7031C85.0052 13.4323 84.5417 13.2969 83.9375 13.2969H81.7812V16.4766ZM81.7812 21.4297H84.0312C84.7708 21.4297 85.3333 21.2786 85.7188 20.9766C86.1094 20.6745 86.3047 20.2344 86.3047 19.6562C86.3047 19.0833 86.1042 18.6484 85.7031 18.3516C85.3073 18.0547 84.7214 17.9062 83.9453 17.9062H81.7812V21.4297ZM93.8125 23.1328C93.5 23.1328 93.2552 23.0417 93.0781 22.8594C92.901 22.6771 92.8125 22.4193 92.8125 22.0859V18.5547L89.2891 13.1875C89.1536 12.9688 89.0859 12.7448 89.0859 12.5156C89.0859 12.25 89.1797 12.0312 89.3672 11.8594C89.5599 11.6823 89.7995 11.5938 90.0859 11.5938C90.2995 11.5938 90.474 11.638 90.6094 11.7266C90.7448 11.8099 90.8776 11.9609 91.0078 12.1797L93.8047 16.6328H93.8516L96.6562 12.1797C96.7812 11.9661 96.9115 11.8151 97.0469 11.7266C97.1875 11.638 97.3568 11.5938 97.5547 11.5938C97.8359 11.5938 98.0703 11.6823 98.2578 11.8594C98.4505 12.0312 98.5469 12.2474 98.5469 12.5078C98.5469 12.737 98.4766 12.9635 98.3359 13.1875L94.8203 18.5547V22.0859C94.8203 22.4193 94.7318 22.6771 94.5547 22.8594C94.3776 23.0417 94.1302 23.1328 93.8125 23.1328Z" fill="#171F48"/>
<path d="M130.549 0C129.7 0 127.807 0.216045 125.864 6.07484C120.052 3.31743 118.777 4.40334 118.141 5.03157C117.545 5.61433 116.36 7.08116 119.207 12.5505C113.166 14.5631 113 16.5957 113 17.1756C113 17.7157 113.224 19.8079 119.189 21.7495C116.369 27.361 117.72 28.9131 118.135 29.3253C118.524 29.7062 120.197 31.0309 125.811 28.2763C127.842 34.1891 129.732 34.3511 130.546 34.3511C131.394 34.3511 133.284 34.1351 135.222 28.3019C140.926 31.0792 142.381 29.8853 142.953 29.3253C143.549 28.7397 144.734 27.2757 141.887 21.8006C147.929 19.788 148.094 17.7555 148.094 17.1756C148.094 16.6355 147.871 14.5432 141.905 12.6017C144.725 6.99304 143.374 5.43808 142.953 5.03157C142.561 4.65065 140.885 3.32311 135.254 6.0919C133.139 0.110865 131.452 0 130.549 0ZM119.692 6.54957C119.881 6.3648 120.517 5.566 125.431 7.48482C125.408 7.56726 125.382 7.64685 125.361 7.73498C124.655 10.2309 123.116 11.4163 120.947 12.0218C120.836 12.053 120.732 12.0815 120.627 12.1127C118.55 7.4365 119.454 6.78552 119.692 6.54957ZM134.304 8.09884C134.356 8.07326 134.406 8.05052 134.458 8.03062C134.49 8.10453 134.516 8.1756 134.545 8.24951C135.55 10.7482 137.159 12.4226 139.761 13.355C139.819 13.3777 139.872 13.3948 139.924 13.4147C139.889 13.4886 139.857 13.5568 139.822 13.6336C138.681 16.0783 138.608 18.4178 139.822 20.8569C139.848 20.908 139.872 20.9592 139.898 21.0104C139.822 21.0416 139.744 21.0672 139.668 21.0957C137.101 22.0281 135.355 23.6285 134.452 26.1926C134.435 26.2495 134.411 26.3006 134.394 26.3546C134.318 26.3205 134.246 26.2893 134.165 26.2551C131.658 25.155 129.3 25.1124 126.784 26.2551C126.732 26.2807 126.68 26.3035 126.63 26.3234C126.599 26.2495 126.572 26.1784 126.543 26.0988C125.565 23.5915 123.929 21.9257 121.327 20.9933C121.269 20.9706 121.217 20.9535 121.164 20.9336C121.196 20.8597 121.231 20.7915 121.266 20.7176C122.407 18.2729 122.46 15.9475 121.266 13.4943C121.24 13.4431 121.217 13.3919 121.19 13.3408C121.266 13.3095 121.344 13.2839 121.42 13.2555C123.99 12.3202 125.71 10.7084 126.642 8.15285C126.66 8.10169 126.683 8.05052 126.7 7.99935C126.776 8.03062 126.848 8.06473 126.93 8.09316C129.439 9.17338 131.792 9.24161 134.304 8.09884ZM115.193 17.1756C115.193 16.8742 115.036 15.8111 119.913 13.8439C119.962 13.9264 120.008 14.0117 120.058 14.0941C121.362 16.3455 121.124 18.2501 120.032 20.1775C119.979 20.2684 119.93 20.3566 119.878 20.4475C115.085 18.5458 115.193 17.4513 115.193 17.1756ZM119.692 27.8044C119.471 27.5884 118.594 26.9459 120.621 22.1787C120.714 22.2043 120.804 22.2299 120.903 22.2555C123.453 22.9462 124.658 24.4529 125.283 26.5764C125.315 26.6787 125.344 26.7782 125.37 26.8777C120.604 28.8505 119.889 28.0006 119.692 27.8044ZM130.549 32.2049C130.29 32.2049 129.242 32.4636 127.153 27.5798C127.232 27.5372 127.316 27.4889 127.4 27.4462C129.7 26.1699 131.646 26.403 133.616 27.4718C133.717 27.5287 133.816 27.5827 133.918 27.6339C132.05 32.3385 130.798 32.2049 130.549 32.2049ZM141.408 27.8044C141.225 27.9835 140.668 28.8903 135.666 26.8862C135.692 26.8009 135.718 26.71 135.742 26.619C136.447 24.1231 137.987 22.9377 140.156 22.3322C140.27 22.301 140.38 22.2668 140.49 22.2384C142.561 26.8635 141.588 27.631 141.408 27.8044ZM145.904 17.1756C145.904 17.4769 146.061 18.5401 141.185 20.5072C141.135 20.4248 141.092 20.3452 141.045 20.2571C139.741 18.0056 139.979 16.101 141.071 14.1737C141.124 14.0799 141.176 13.9889 141.225 13.8979C146.015 15.8054 145.904 16.9027 145.904 17.1756ZM141.408 6.54957C141.629 6.76562 142.506 7.40807 140.479 12.1753C140.386 12.1497 140.296 12.1241 140.197 12.0985C137.647 11.4077 136.476 9.8869 135.817 7.77762C135.785 7.67812 135.756 7.58147 135.724 7.48198C140.496 5.5063 141.211 6.35627 141.408 6.54957ZM133.932 6.77983C133.857 6.82247 133.778 6.86227 133.7 6.90775C131.4 8.18412 129.471 7.91975 127.484 6.88217C127.383 6.831 127.287 6.77983 127.185 6.72866C129.102 1.9842 130.212 2.14624 130.551 2.14624C130.813 2.14624 131.838 2.01831 133.932 6.77983Z" fill="url(#paint0_linear)"/>
<path fill-rule="evenodd" clip-rule="evenodd" d="M159.75 22.389C159.75 22.6875 159.988 22.932 160.281 22.932H169.174C169.215 22.932 169.247 22.8978 169.247 22.858V22.082C169.247 22.0422 169.215 22.0081 169.174 22.0081H160.987C160.891 22.0081 160.813 21.9285 160.813 21.829V17.4683C160.813 17.3688 160.891 17.292 160.987 17.292H168.631C168.672 17.292 168.704 17.2579 168.704 17.2181V16.4648C168.704 16.425 168.672 16.3909 168.631 16.3909H160.987C160.891 16.3909 160.813 16.3113 160.813 16.2147V12.5248C160.813 12.4253 160.891 12.3486 160.987 12.3486H169.052C169.093 12.3486 169.125 12.3145 169.125 12.2747V11.4958C169.125 11.456 169.093 11.4219 169.052 11.4219H160.281C159.988 11.4219 159.75 11.6663 159.75 11.9648V22.389V22.389Z" fill="#042132"/>
<path fill-rule="evenodd" clip-rule="evenodd" d="M174.542 22.9291H183.418C183.458 22.9291 183.493 22.895 183.493 22.8552V22.0791C183.493 22.0365 183.458 22.0052 183.418 22.0052H175.172C175.073 22.0052 174.992 21.9256 174.992 21.8261V11.4958C174.992 11.456 174.957 11.4219 174.916 11.4219H174.068C174.028 11.4219 173.993 11.456 173.993 11.4958V22.389C173.996 22.6875 174.24 22.9291 174.542 22.9291Z" fill="#042132"/>
<path fill-rule="evenodd" clip-rule="evenodd" d="M206.179 18.6991L209.342 12.6186C209.377 12.556 209.447 12.5333 209.499 12.5333C209.554 12.5333 209.624 12.556 209.656 12.6186L212.813 18.6991C212.842 18.7531 212.839 18.8213 212.807 18.8725C212.775 18.9265 212.717 18.9606 212.653 18.9606H206.333C206.272 18.9606 206.214 18.9294 206.182 18.8753C206.15 18.8213 206.15 18.7559 206.179 18.6991ZM205.668 19.8646H213.324C213.391 19.8646 213.449 19.9016 213.481 19.9584L214.997 22.8892C215.009 22.9148 215.035 22.929 215.064 22.929H215.979C216.005 22.929 216.028 22.9148 216.043 22.8921C216.055 22.8693 216.057 22.8409 216.046 22.8182L210.403 11.979C210.373 11.9221 210.095 11.4189 209.493 11.4189C208.881 11.4189 208.599 11.9534 208.587 11.9761L202.947 22.821C202.935 22.8437 202.935 22.8722 202.95 22.8949C202.964 22.9177 202.988 22.9319 203.014 22.9319H203.929C203.958 22.9319 203.981 22.9177 203.995 22.8921L205.511 19.9641C205.543 19.9016 205.602 19.8646 205.668 19.8646Z" fill="#042132"/>
<path fill-rule="evenodd" clip-rule="evenodd" d="M197.937 18.8896C197.768 18.5968 197.539 18.3324 197.254 18.105C196.97 17.8804 196.633 17.6786 196.249 17.508C195.869 17.3374 195.459 17.1839 195.032 17.0446C194.606 16.9082 194.161 16.7774 193.708 16.6609C193.255 16.5415 192.814 16.4249 192.387 16.3084C191.971 16.1975 191.565 16.0724 191.173 15.936C190.795 15.8052 190.458 15.6574 190.176 15.4954C189.895 15.3362 189.671 15.1486 189.505 14.941C189.34 14.7335 189.258 14.4976 189.258 14.219C189.258 13.8864 189.343 13.6078 189.52 13.369C189.694 13.1302 189.95 12.9284 190.281 12.7721C190.603 12.6186 191.004 12.5361 191.507 12.4565C191.968 12.3855 192.5 12.3457 193.087 12.3457H197.234C197.251 12.3457 197.269 12.3371 197.283 12.3229C197.295 12.3087 197.304 12.2917 197.304 12.2718V11.4929C197.304 11.4531 197.272 11.4189 197.237 11.4189H197.17H193.092C192.686 11.4189 191.498 11.4474 190.827 11.6179C190.473 11.7004 190.133 11.8169 189.822 11.9591C189.508 12.1012 189.232 12.2831 189 12.4935C188.768 12.7038 188.579 12.9568 188.445 13.2496C188.312 13.5396 188.242 13.8779 188.242 14.2531C188.242 14.634 188.326 14.9723 188.495 15.2623C188.663 15.5494 188.893 15.8052 189.177 16.0241C189.459 16.2402 189.796 16.4335 190.179 16.5983C190.56 16.7604 190.969 16.9082 191.39 17.0361C191.811 17.164 192.256 17.2863 192.709 17.3971C193.162 17.508 193.604 17.6217 194.025 17.7354C194.452 17.852 194.858 17.9799 195.233 18.1135C195.613 18.2471 195.947 18.4035 196.229 18.5769C196.511 18.7503 196.734 18.9549 196.9 19.1824C197.066 19.4126 197.144 19.6713 197.144 19.9755C197.144 20.3564 197.042 20.6691 196.836 20.9306C196.633 21.1921 196.342 21.4053 195.974 21.5674C195.593 21.7351 195.128 21.8118 194.649 21.8829C194.181 21.954 193.635 21.9909 192.979 21.9966H188.37C188.332 21.9966 188.303 22.0307 188.303 22.0705V22.8494C188.303 22.8921 188.332 22.9233 188.37 22.9233L192.947 22.9262C193.345 22.9262 193.757 22.9091 194.167 22.8722C194.579 22.8381 194.983 22.7755 195.369 22.6902L195.457 22.6703C195.808 22.5936 196.142 22.5168 196.461 22.3804C196.804 22.2326 197.103 22.0421 197.359 21.8175C197.615 21.593 197.818 21.3201 197.969 21.0102C198.12 20.6975 198.195 20.328 198.195 19.9101C198.19 19.5263 198.105 19.1824 197.937 18.8896Z" fill="#042132"/>
<defs>
<linearGradient id="paint0_linear" x1="130.547" y1="34.3511" x2="130.547" y2="0" gradientUnits="userSpaceOnUse">
<stop stop-color="#007DF7"/>
<stop offset="0.5028" stop-color="#46DF83"/>
<stop offset="1" stop-color="#F8DA49"/>
</linearGradient>
</defs>
</svg>
