<svg width="132" height="132" viewBox="0 0 132 132" fill="none" xmlns="http://www.w3.org/2000/svg">
<circle cx="65.7762" cy="65.7762" r="57.7762" stroke="#ECECEC" stroke-width="15"/>
<path d="M65.37 112.74C91.5317 112.74 112.74 91.5317 112.74 65.37C112.74 39.2083 91.5317 18 65.37 18C39.2083 18 18 39.2083 18 65.37C18 91.5317 39.2083 112.74 65.37 112.74Z" fill="url(#paint0_linear)"/>
<path d="M65.002 42C63.842 42 61.2519 42.3019 58.5943 50.4886C50.6453 46.6356 48.9013 48.1529 48.0314 49.0308C47.217 49.8451 45.5962 51.8947 49.4893 59.5372C41.2264 62.3496 41 65.1897 41 66C41 66.7547 41.3059 69.6783 49.4654 72.3913C45.6081 80.2324 47.4554 82.4012 48.0234 82.9772C48.5557 83.5094 50.8439 85.3605 58.5228 81.5114C61.2996 89.7736 63.8857 90 64.998 90C66.158 90 68.7441 89.6981 71.3938 81.5472C79.1958 85.428 81.186 83.7597 81.9686 82.9772C82.783 82.1589 84.4038 80.1132 80.5107 72.4628C88.7736 69.6504 89 66.8103 89 66C89 65.2453 88.6941 62.3217 80.5346 59.6087C84.3919 51.7716 82.5447 49.5988 81.9686 49.0308C81.4323 48.4985 79.1402 46.6435 71.4375 50.5124C68.5455 42.1549 66.2374 42 65.002 42ZM50.1527 51.1519C50.4109 50.8937 51.2809 49.7776 58.0024 52.4588C57.9706 52.574 57.9349 52.6852 57.9071 52.8083C56.9417 56.2959 54.8363 57.9523 51.8688 58.7984C51.7179 58.8421 51.5749 58.8818 51.4318 58.9255C48.5915 52.3913 49.8269 51.4816 50.1527 51.1519ZM70.1385 53.3168C70.21 53.281 70.2775 53.2493 70.349 53.2214C70.3927 53.3247 70.4285 53.424 70.4682 53.5273C71.8427 57.0189 74.0434 59.3585 77.6028 60.6614C77.6823 60.6931 77.7538 60.717 77.8253 60.7448C77.7776 60.8481 77.7339 60.9434 77.6863 61.0506C76.1251 64.4667 76.0257 67.7359 77.6863 71.144C77.722 71.2155 77.7538 71.287 77.7895 71.3585C77.6863 71.4022 77.579 71.4379 77.4757 71.4777C73.964 72.7805 71.5765 75.0169 70.3411 78.5998C70.3172 78.6792 70.2854 78.7507 70.2616 78.8262C70.1583 78.7786 70.059 78.7349 69.9478 78.6872C66.5195 77.15 63.2938 77.0904 59.8536 78.6872C59.7821 78.7229 59.7106 78.7547 59.6431 78.7825C59.5994 78.6792 59.5636 78.5799 59.5239 78.4687C58.1851 74.9652 55.9486 72.6375 52.3892 71.3347C52.3098 71.3029 52.2383 71.279 52.1668 71.2512C52.2105 71.148 52.2581 71.0526 52.3058 70.9494C53.867 67.5333 53.9385 64.284 52.3058 60.856C52.27 60.7845 52.2383 60.713 52.2025 60.6415C52.3058 60.5978 52.4131 60.5621 52.5163 60.5223C56.032 59.2155 58.3838 56.9633 59.6589 53.3923C59.6828 53.3208 59.7146 53.2493 59.7384 53.1778C59.8417 53.2214 59.941 53.2691 60.0522 53.3088C63.4845 54.8183 66.7022 54.9136 70.1385 53.3168ZM43.9993 66C43.9993 65.5789 43.7847 64.0933 50.4546 61.3446C50.5221 61.4598 50.5857 61.5789 50.6532 61.6941C52.4369 64.8401 52.1111 67.5015 50.6175 70.1946C50.546 70.3218 50.4784 70.4449 50.4069 70.572C43.8523 67.9146 43.9993 66.3853 43.9993 66ZM50.1527 80.852C49.8508 80.5501 48.6511 79.6524 51.4239 72.9911C51.551 73.0268 51.6742 73.0626 51.8092 73.0983C55.2971 74.0636 56.9457 76.1688 57.7998 79.136C57.8435 79.279 57.8832 79.4181 57.919 79.5571C51.4001 82.3138 50.4228 81.1261 50.1527 80.852ZM65.002 87.001C64.6484 87.001 63.2143 87.3625 60.3581 80.5382C60.4654 80.4786 60.5806 80.4111 60.6958 80.3515C63.842 78.568 66.5036 78.8937 69.197 80.3873C69.336 80.4667 69.4711 80.5422 69.6101 80.6137C67.0558 87.1877 65.3436 87.001 65.002 87.001ZM79.8552 80.852C79.605 81.1023 78.8423 82.3694 72.0016 79.569C72.0373 79.4499 72.0731 79.3227 72.1049 79.1956C73.0702 75.708 75.1756 74.0516 78.1431 73.2056C78.298 73.1619 78.449 73.1142 78.5999 73.0745C81.4323 79.5372 80.1015 80.6097 79.8552 80.852ZM86.0047 66C86.0047 66.4211 86.2192 67.9067 79.5494 70.6554C79.4818 70.5402 79.4222 70.429 79.3587 70.3059C77.575 67.1599 77.9008 64.4985 79.3944 61.8054C79.4659 61.6743 79.5374 61.5472 79.605 61.4201C86.1557 64.0854 86.0047 65.6187 86.0047 66ZM79.8552 51.1519C80.1572 51.4538 81.3569 52.3515 78.584 59.0129C78.4569 58.9772 78.3338 58.9414 78.1987 58.9057C74.7108 57.9404 73.1099 55.8153 72.2081 52.8679C72.1644 52.7289 72.1247 52.5938 72.081 52.4548C78.6079 49.6941 79.5851 50.8818 79.8552 51.1519ZM69.63 51.4737C69.5267 51.5333 69.4194 51.5889 69.3122 51.6524C66.1659 53.4359 63.5282 53.0665 60.811 51.6167C60.6719 51.5452 60.5408 51.4737 60.4018 51.4022C63.0237 44.7726 64.5412 44.999 65.006 44.999C65.3635 44.999 66.7658 44.8203 69.63 51.4737Z" fill="white"/>
<defs>
<linearGradient id="paint0_linear" x1="78.1213" y1="18" x2="78.1213" y2="182.132" gradientUnits="userSpaceOnUse">
<stop stop-color="#FFB339"/>
<stop offset="1" stop-color="#FF128E"/>
</linearGradient>
</defs>
</svg>
