<svg width="132" height="132" viewBox="0 0 132 132" fill="none" xmlns="http://www.w3.org/2000/svg">
<circle cx="65.7762" cy="65.7762" r="57.7762" stroke="#ECECEC" stroke-width="15"/>
<circle cx="66.3682" cy="65.3682" r="47.3682" fill="url(#paint0_linear)"/>
<path d="M66.5 39C51.2995 39 39 51.3006 39 66.5C39 81.7005 51.3006 94 66.5 94C81.7005 94 94 81.6994 94 66.5C94 51.2995 81.6994 39 66.5 39ZM66.5 89.7031C53.6746 89.7031 43.2969 79.3246 43.2969 66.5C43.2969 53.6746 53.6754 43.2969 66.5 43.2969C79.3254 43.2969 89.7031 53.6754 89.7031 66.5C89.7031 79.3254 79.3246 89.7031 66.5 89.7031Z" fill="#FFFDFD"/>
<path d="M66.5 52.8442C65.3134 52.8442 64.3516 53.8061 64.3516 54.9927V68.8279C64.3516 70.0144 65.3134 70.9763 66.5 70.9763C67.6866 70.9763 68.6484 70.0144 68.6484 68.8279V54.9927C68.6484 53.8061 67.6866 52.8442 66.5 52.8442Z" fill="#FFFDFD"/>
<path d="M66.5 79.4077C68.1018 79.4077 69.4004 78.1092 69.4004 76.5073C69.4004 74.9055 68.1018 73.6069 66.5 73.6069C64.8982 73.6069 63.5996 74.9055 63.5996 76.5073C63.5996 78.1092 64.8982 79.4077 66.5 79.4077Z" fill="#FFFDFD"/>
<defs>
<linearGradient id="paint0_linear" x1="66.3682" y1="18" x2="66.3682" y2="112.736" gradientUnits="userSpaceOnUse">
<stop stop-color="#FF254C"/>
<stop offset="1" stop-color="#C62E52"/>
</linearGradient>
</defs>
</svg>
