<svg width="132" height="132" viewBox="0 0 132 132" fill="none" xmlns="http://www.w3.org/2000/svg">
<circle cx="65.7762" cy="65.7762" r="57.7762" stroke="#ECECEC" stroke-width="15"/>
<circle cx="66.3682" cy="65.3682" r="47.3682" fill="url(#paint0_linear)"/>
<path d="M42 59.3912C42 65.6213 44.6832 71.2421 48.974 75.1502V86.4608V87.2539V88.2309C48.974 89.0815 49.6679 89.8976 50.5122 90.0471L72.8913 93.9782C73.724 94.1161 74.3948 93.5989 74.4295 92.8057V92.7598L74.441 86.5872L80.6517 87.5068C83.1382 87.5068 85.1737 85.4837 85.1737 83.0124V78.771V75.1502V75.1042H87.2324C89.6149 75.1042 90.6673 73.3915 89.557 71.288L85.1737 62.966V62.2764V59.4142C85.1737 50.8279 80.085 43.4369 72.7293 40.046C69.9421 38.7356 66.831 38 63.5348 38C51.6456 38 42.0116 47.5749 42 59.3912ZM52.5477 48.3795C58.6889 42.276 68.6467 42.276 74.788 48.3795C80.6979 54.2532 80.9177 63.6442 75.4472 69.7823L75.2853 69.9087C75.8751 71.1846 76.9045 72.7593 78.5236 73.5525C79.0672 73.8168 78.94 74.61 78.3501 74.7019C76.5806 74.9778 74.0362 74.6674 71.6653 72.8858L71.6306 72.9088C65.605 76.4376 57.7174 75.6215 52.5477 70.4834C46.4064 64.3799 46.4064 54.4716 52.5477 48.3795Z" fill="white"/>
<path d="M57.671 61.1382C58.6227 61.1382 59.3943 60.3715 59.3943 59.4256C59.3943 58.4797 58.6227 57.7129 57.671 57.7129C56.7193 57.7129 55.9478 58.4797 55.9478 59.4256C55.9478 60.3715 56.7193 61.1382 57.671 61.1382Z" fill="white"/>
<path d="M69.6759 61.1382C70.6276 61.1382 71.3991 60.3715 71.3991 59.4256C71.3991 58.4797 70.6276 57.7129 69.6759 57.7129C68.7242 57.7129 67.9526 58.4797 67.9526 59.4256C67.9526 60.3715 68.7242 61.1382 69.6759 61.1382Z" fill="white"/>
<path d="M63.6734 61.1382C64.6252 61.1382 65.3967 60.3715 65.3967 59.4256C65.3967 58.4797 64.6252 57.7129 63.6734 57.7129C62.7217 57.7129 61.9502 58.4797 61.9502 59.4256C61.9502 60.3715 62.7217 61.1382 63.6734 61.1382Z" fill="white"/>
<defs>
<linearGradient id="paint0_linear" x1="66.3682" y1="18" x2="66.3682" y2="112.736" gradientUnits="userSpaceOnUse">
<stop stop-color="#25E6FF"/>
<stop offset="1" stop-color="#33B2FF"/>
</linearGradient>
</defs>
</svg>
