<svg width="224" height="220" viewBox="0 0 224 220" fill="none" xmlns="http://www.w3.org/2000/svg">
<circle cx="110.928" cy="112.11" r="57.7762" stroke="#ECECEC" stroke-width="15"/>
<circle cx="110.688" cy="110.688" r="108.084" stroke="#ECECEC" stroke-width="1.97544"/>
<circle cx="110.172" cy="111.972" r="83.5495" stroke="#ECECEC" stroke-width="2.02705"/>
<circle cx="4.44366" cy="131.29" r="4.44366" fill="#ECECEC"/>
<circle cx="206.428" cy="60.7679" r="4.44366" fill="#ECECEC"/>
<circle cx="73.1182" cy="8.4837" r="4.44366" fill="#ECECEC"/>
<circle cx="113.112" cy="2.42382" r="2.42382" fill="#ECECEC"/>
<rect x="29.3035" y="123.22" width="11.9145" height="11.9145" rx="5.95727" transform="rotate(45 29.3035 123.22)" fill="#FFCF5D"/>
<path d="M217.577 118.403C221.124 118.403 224 115.528 224 111.98C224 108.433 221.124 105.558 217.577 105.558C214.03 105.558 211.154 108.433 211.154 111.98C211.154 115.528 214.03 118.403 217.577 118.403Z" fill="#FE8C7A"/>
<path opacity="0.4" d="M89.1211 196.279C90.8947 196.279 92.3325 195.021 92.3325 193.469C92.3325 191.917 90.8947 190.659 89.1211 190.659C87.3475 190.659 85.9097 191.917 85.9097 193.469C85.9097 195.021 87.3475 196.279 89.1211 196.279Z" fill="#DB6BFF"/>
<circle cx="110.368" cy="112.368" r="47.3682" fill="url(#paint0_linear)"/>
<path d="M86 106.391C86 112.621 88.6832 118.242 92.974 122.15V133.461V134.254V135.231C92.974 136.082 93.6679 136.898 94.5122 137.047L116.891 140.978C117.724 141.116 118.395 140.599 118.429 139.806V139.76L118.441 133.587L124.652 134.507C127.138 134.507 129.174 132.484 129.174 130.012V125.771V122.15V122.104H131.232C133.615 122.104 134.667 120.392 133.557 118.288L129.174 109.966V109.276V106.414C129.174 97.8279 124.085 90.4369 116.729 87.046C113.942 85.7356 110.831 85 107.535 85C95.6456 85 86.0116 94.5749 86 106.391ZM96.5477 95.3795C102.689 89.276 112.647 89.276 118.788 95.3795C124.698 101.253 124.918 110.644 119.447 116.782L119.285 116.909C119.875 118.185 120.904 119.759 122.524 120.552C123.067 120.817 122.94 121.61 122.35 121.702C120.581 121.978 118.036 121.667 115.665 119.886L115.631 119.909C109.605 123.438 101.717 122.621 96.5477 117.483C90.4064 111.38 90.4064 101.472 96.5477 95.3795Z" fill="white"/>
<path d="M101.671 108.138C102.623 108.138 103.394 107.371 103.394 106.426C103.394 105.48 102.623 104.713 101.671 104.713C100.72 104.713 99.948 105.48 99.948 106.426C99.948 107.371 100.72 108.138 101.671 108.138Z" fill="white"/>
<path d="M113.676 108.138C114.628 108.138 115.399 107.371 115.399 106.426C115.399 105.48 114.628 104.713 113.676 104.713C112.724 104.713 111.953 105.48 111.953 106.426C111.953 107.371 112.724 108.138 113.676 108.138Z" fill="white"/>
<path d="M107.673 108.138C108.625 108.138 109.397 107.371 109.397 106.426C109.397 105.48 108.625 104.713 107.673 104.713C106.722 104.713 105.95 105.48 105.95 106.426C105.95 107.371 106.722 108.138 107.673 108.138Z" fill="white"/>
<defs>
<linearGradient id="paint0_linear" x1="110.368" y1="65" x2="110.368" y2="159.736" gradientUnits="userSpaceOnUse">
<stop stop-color="#25E6FF"/>
<stop offset="1" stop-color="#33B2FF"/>
</linearGradient>
</defs>
</svg>
