<svg width="224" height="220" viewBox="0 0 224 220" fill="none" xmlns="http://www.w3.org/2000/svg">
<circle cx="110.928" cy="112.11" r="57.7762" stroke="#ECECEC" stroke-width="15"/>
<circle cx="110.688" cy="110.688" r="108.084" stroke="#ECECEC" stroke-width="1.97544"/>
<circle cx="110.172" cy="111.972" r="83.5495" stroke="#ECECEC" stroke-width="2.02705"/>
<path d="M111.37 159.74C137.532 159.74 158.74 138.532 158.74 112.37C158.74 86.2083 137.532 65 111.37 65C85.2083 65 64 86.2083 64 112.37C64 138.532 85.2083 159.74 111.37 159.74Z" fill="url(#paint0_linear)"/>
<path d="M135.312 111.822C134.941 98.9375 124.389 88.6848 111.499 88.6848C98.6085 88.6848 88.0563 98.9375 87.6851 111.822V120.487C87.6801 120.858 87.7472 121.227 87.8827 121.573C87.9262 126.874 92.2531 131.139 97.5541 131.106C99.1956 131.074 100.506 129.728 100.495 128.086V114.901C100.506 113.26 99.1956 111.914 97.5541 111.882C96.064 111.889 94.5966 112.247 93.2711 112.928V111.822C93.5952 101.957 101.687 94.1266 111.558 94.1266C121.429 94.1266 129.52 101.957 129.845 111.822V112.868C128.542 112.227 127.112 111.89 125.66 111.882C124.861 111.882 124.095 112.2 123.532 112.767C122.969 113.334 122.655 114.102 122.66 114.901V128.086C122.655 128.885 122.969 129.653 123.532 130.22C124.095 130.787 124.861 131.106 125.66 131.106C130.915 131.074 135.17 126.827 135.213 121.573C135.213 121.573 135.213 121.415 135.213 121.316C135.283 121.072 135.323 120.82 135.332 120.566L135.312 111.822Z" fill="white"/>
<path d="M188.5 202C196.508 202 203 195.508 203 187.5C203 179.492 196.508 173 188.5 173C180.492 173 174 179.492 174 187.5C174 195.508 180.492 202 188.5 202Z" fill="url(#paint1_linear)"/>
<path d="M192.324 181.196H185.41C182.938 181.196 180.935 183.199 180.935 185.671V188.17C180.938 190.639 182.941 192.638 185.41 192.638H185.773V195.467C185.775 195.614 185.858 195.747 185.989 195.813C186.12 195.879 186.277 195.865 186.395 195.778L190.579 192.638H192.324C194.793 192.638 196.796 190.639 196.8 188.17V185.671C196.8 183.199 194.796 181.196 192.324 181.196ZM192.324 186.444C192.694 186.442 193.029 186.662 193.172 187.003C193.315 187.343 193.239 187.737 192.978 187.999C192.718 188.261 192.325 188.341 191.983 188.2C191.642 188.059 191.419 187.726 191.419 187.356C191.417 187.113 191.513 186.879 191.686 186.707C191.859 186.535 192.094 186.441 192.338 186.444H192.324ZM188.867 186.444C189.237 186.442 189.571 186.662 189.715 187.003C189.858 187.343 189.781 187.737 189.521 187.999C189.261 188.261 188.868 188.341 188.526 188.2C188.184 188.059 187.961 187.726 187.961 187.356C187.96 187.115 188.054 186.883 188.224 186.712C188.394 186.541 188.626 186.444 188.867 186.444ZM185.397 188.262C185.026 188.265 184.691 188.043 184.548 187.702C184.406 187.361 184.483 186.967 184.745 186.705C185.007 186.443 185.401 186.365 185.742 186.508C186.084 186.651 186.305 186.986 186.302 187.356C186.302 187.857 185.897 188.262 185.397 188.262Z" fill="white"/>
<path d="M34.3373 202.793C42.5922 202.793 49.2841 196.101 49.2841 187.846C49.2841 179.591 42.5922 172.899 34.3373 172.899C26.0823 172.899 19.3904 179.591 19.3904 187.846C19.3904 196.101 26.0823 202.793 34.3373 202.793Z" fill="url(#paint2_linear)"/>
<mask id="mask0" mask-type="alpha" maskUnits="userSpaceOnUse" x="25" y="181" width="18" height="14">
<path d="M25.6182 181.618H42.1684V194.647H25.6182V181.618Z" fill="white"/>
</mask>
<g mask="url(#mask0)">
<path fill-rule="evenodd" clip-rule="evenodd" d="M41.4209 188.504H40.0545C39.9025 188.504 39.7319 188.29 39.7319 188.005V184.287C39.7319 182.816 38.657 181.618 37.3348 181.618C36.0126 181.618 34.937 182.816 34.937 184.287V189.253V191.977C34.937 192.614 34.5241 193.153 34.0353 193.153C33.5457 193.153 33.1322 192.614 33.1322 191.977V189.253V188.005C33.1322 186.533 32.0567 185.335 30.7351 185.335C29.4129 185.335 28.3374 186.533 28.3374 188.005C28.3374 188.292 28.1674 188.505 28.0154 188.505H26.3656C25.9527 188.505 25.6177 188.84 25.6177 189.253C25.6177 189.666 25.9527 190 26.3656 190H28.0154C29.0168 190 29.8327 189.105 29.8327 188.005C29.8327 187.369 30.2456 186.83 30.7351 186.83C31.224 186.83 31.6375 187.369 31.6375 188.005V189.253V191.977C31.6375 193.45 32.7131 194.647 34.0353 194.647C35.3568 194.647 36.4324 193.45 36.4324 191.977V189.253V184.287C36.4324 183.651 36.8453 183.113 37.3348 183.113C37.8243 183.113 38.2372 183.651 38.2372 184.287V188.005C38.2372 189.104 39.0524 189.999 40.0545 189.999H41.4209C41.8338 189.999 42.1682 189.664 42.1682 189.251C42.1682 188.838 41.8338 188.504 41.4209 188.504Z" fill="white"/>
</g>
<path d="M16.9813 72.8745C26.3574 72.8745 33.9582 65.2737 33.9582 55.8976C33.9582 46.5215 26.3574 38.9207 16.9813 38.9207C7.60521 38.9207 0.00439453 46.5215 0.00439453 55.8976C0.00439453 65.2737 7.60521 72.8745 16.9813 72.8745Z" fill="url(#paint3_linear)"/>
<path d="M10.1751 59.6164C9.58906 59.6164 9.11401 59.1812 9.11401 58.6443V54.4189C9.11401 53.8821 9.58906 53.4468 10.1751 53.4468C10.7611 53.4468 11.2361 53.8821 11.2361 54.4189V58.6443C11.2361 58.9021 11.1243 59.1494 10.9253 59.3317C10.7264 59.514 10.4565 59.6164 10.1751 59.6164Z" fill="white"/>
<path d="M15.2399 64.3862C14.9547 64.3828 14.6827 64.2758 14.4837 64.0886C14.2847 63.9014 14.175 63.6495 14.1788 63.3882V49.8307C14.1788 49.2938 14.6539 48.8586 15.2399 48.8586C15.8259 48.8586 16.3009 49.2938 16.3009 49.8307V63.3882C16.3047 63.6495 16.195 63.9014 15.996 64.0886C15.797 64.2758 15.525 64.3828 15.2399 64.3862Z" fill="white"/>
<path d="M20.1065 61.8716C19.5205 61.8716 19.0454 61.4364 19.0454 60.8995V52.17C19.0454 51.6332 19.5205 51.1979 20.1065 51.1979C20.6925 51.1979 21.1675 51.6332 21.1675 52.17V60.8995C21.1675 61.4364 20.6925 61.8716 20.1065 61.8716Z" fill="white"/>
<path d="M24.9805 58.1194C24.3945 58.1194 23.9194 57.6841 23.9194 57.1473V55.9224C23.9194 55.3855 24.3945 54.9503 24.9805 54.9503C25.5665 54.9503 26.0415 55.3855 26.0415 55.9224V57.1473C26.0415 57.6841 25.5665 58.1194 24.9805 58.1194Z" fill="white"/>
<circle cx="4.44366" cy="131.29" r="4.44366" fill="#ECECEC"/>
<circle cx="206.428" cy="60.7678" r="4.44366" fill="#ECECEC"/>
<circle cx="73.1182" cy="8.48358" r="4.44366" fill="#ECECEC"/>
<circle cx="113.112" cy="2.42388" r="2.42382" fill="#ECECEC"/>
<rect x="29.3035" y="123.22" width="11.9145" height="11.9145" rx="5.95727" transform="rotate(45 29.3035 123.22)" fill="#FFCF5D"/>
<path d="M217.577 118.403C221.124 118.403 224 115.527 224 111.98C224 108.433 221.124 105.557 217.577 105.557C214.03 105.557 211.154 108.433 211.154 111.98C211.154 115.527 214.03 118.403 217.577 118.403Z" fill="#FE8C7A"/>
<path opacity="0.4" d="M89.1211 196.28C90.8947 196.28 92.3325 195.021 92.3325 193.47C92.3325 191.918 90.8947 190.66 89.1211 190.66C87.3475 190.66 85.9097 191.918 85.9097 193.47C85.9097 195.021 87.3475 196.28 89.1211 196.28Z" fill="#DB6BFF"/>
<path d="M185.5 56C194.613 56 202 48.6127 202 39.5C202 30.3873 194.613 23 185.5 23C176.387 23 169 30.3873 169 39.5C169 48.6127 176.387 56 185.5 56Z" fill="url(#paint4_linear)"/>
<path fill-rule="evenodd" clip-rule="evenodd" d="M185.5 42.7355C183.682 42.7355 182.208 41.2183 182.208 39.3466V34.6382C182.208 32.7672 183.682 31.25 185.5 31.25C187.318 31.25 188.792 32.7672 188.792 34.6382V39.3466C188.792 41.2183 187.318 42.7355 185.5 42.7355ZM191.688 39.0864C191.688 42.3942 189.223 45.119 186.086 45.4239V46.5431H187.631C187.955 46.5431 188.217 46.8131 188.217 47.1462C188.217 47.4793 187.955 47.75 187.631 47.75H183.369C183.045 47.75 182.783 47.4793 182.783 47.1462C182.783 46.8131 183.045 46.5431 183.369 46.5431H184.914V45.4239C181.777 45.119 179.312 42.3942 179.312 39.0864C179.312 38.7534 179.575 38.4833 179.899 38.4833C180.222 38.4833 180.485 38.7534 180.485 39.0864C180.485 41.9325 182.734 44.2478 185.5 44.2478C188.266 44.2478 190.515 41.9325 190.515 39.0864C190.515 38.7534 190.778 38.4833 191.101 38.4833C191.425 38.4833 191.688 38.7534 191.688 39.0864Z" fill="white"/>
<defs>
<linearGradient id="paint0_linear" x1="124.121" y1="42.1007" x2="158.718" y2="178.614" gradientUnits="userSpaceOnUse">
<stop stop-color="#FFA1AA"/>
<stop offset="0.999789" stop-color="#FF5997"/>
</linearGradient>
<linearGradient id="paint1_linear" x1="192.403" y1="165.99" x2="202.989" y2="207.76" gradientUnits="userSpaceOnUse">
<stop stop-color="#AC5AFF"/>
<stop offset="0.999789" stop-color="#7659FF"/>
</linearGradient>
<linearGradient id="paint2_linear" x1="38.3607" y1="172.899" x2="38.3607" y2="224.689" gradientUnits="userSpaceOnUse">
<stop stop-color="#FFB339"/>
<stop offset="1" stop-color="#FF128E"/>
</linearGradient>
<linearGradient id="paint3_linear" x1="21.5512" y1="43.6822" x2="21.5512" y2="78.5975" gradientUnits="userSpaceOnUse">
<stop stop-color="#64F3AF"/>
<stop offset="0.708333" stop-color="#0AB5FF"/>
</linearGradient>
<linearGradient id="paint4_linear" x1="189.86" y1="14.7025" x2="202" y2="62.6043" gradientUnits="userSpaceOnUse">
<stop stop-color="#6EE8FF"/>
<stop offset="1" stop-color="#3885FF"/>
</linearGradient>
</defs>
</svg>
