<svg width="224" height="220" viewBox="0 0 224 220" fill="none" xmlns="http://www.w3.org/2000/svg">
<circle cx="110.928" cy="112.11" r="57.7762" stroke="#ECECEC" stroke-width="15"/>
<circle cx="110.688" cy="110.688" r="108.084" stroke="#ECECEC" stroke-width="1.97544"/>
<circle cx="110.172" cy="111.972" r="83.5495" stroke="#ECECEC" stroke-width="2.02705"/>
<path d="M111.37 159.74C137.532 159.74 158.74 138.532 158.74 112.37C158.74 86.2083 137.532 65 111.37 65C85.2083 65 64 86.2083 64 112.37C64 138.532 85.2083 159.74 111.37 159.74Z" fill="url(#paint0_linear)"/>
<path d="M89 116.87L104.931 136L133 96" stroke="white" stroke-width="10" stroke-linecap="round" stroke-linejoin="round"/>
<path d="M188.5 202C196.508 202 203 195.508 203 187.5C203 179.492 196.508 173 188.5 173C180.492 173 174 179.492 174 187.5C174 195.508 180.492 202 188.5 202Z" fill="url(#paint1_linear)"/>
<path d="M192.324 181.196H185.41C182.938 181.196 180.935 183.199 180.935 185.671V188.17C180.938 190.639 182.941 192.638 185.41 192.638H185.773V195.467C185.775 195.614 185.858 195.747 185.989 195.813C186.12 195.879 186.277 195.865 186.395 195.778L190.579 192.638H192.324C194.793 192.638 196.796 190.639 196.8 188.17V185.671C196.8 183.199 194.796 181.196 192.324 181.196ZM192.324 186.444C192.694 186.442 193.029 186.662 193.172 187.003C193.315 187.343 193.239 187.737 192.978 187.999C192.718 188.261 192.325 188.341 191.983 188.2C191.642 188.059 191.419 187.726 191.419 187.356C191.417 187.113 191.513 186.879 191.686 186.707C191.859 186.535 192.094 186.441 192.338 186.444H192.324ZM188.867 186.444C189.237 186.442 189.571 186.662 189.715 187.003C189.858 187.343 189.781 187.737 189.521 187.999C189.261 188.261 188.868 188.341 188.526 188.2C188.184 188.059 187.962 187.726 187.962 187.356C187.96 187.115 188.054 186.883 188.224 186.712C188.394 186.541 188.626 186.444 188.867 186.444ZM185.397 188.262C185.027 188.265 184.691 188.043 184.549 187.702C184.406 187.361 184.483 186.967 184.745 186.705C185.007 186.443 185.401 186.365 185.742 186.508C186.084 186.651 186.305 186.986 186.302 187.356C186.302 187.857 185.897 188.262 185.397 188.262Z" fill="white"/>
<path d="M34.3374 202.793C42.5923 202.793 49.2843 196.101 49.2843 187.846C49.2843 179.591 42.5923 172.899 34.3374 172.899C26.0824 172.899 19.3905 179.591 19.3905 187.846C19.3905 196.101 26.0824 202.793 34.3374 202.793Z" fill="url(#paint2_linear)"/>
<mask id="mask0" mask-type="alpha" maskUnits="userSpaceOnUse" x="25" y="181" width="18" height="14">
<path d="M25.6183 181.618H42.1686V194.647H25.6183V181.618Z" fill="white"/>
</mask>
<g mask="url(#mask0)">
<path fill-rule="evenodd" clip-rule="evenodd" d="M41.4211 188.504H40.0547C39.9027 188.504 39.7321 188.29 39.7321 188.005V184.287C39.7321 182.816 38.6571 181.618 37.335 181.618C36.0128 181.618 34.9372 182.816 34.9372 184.287V189.253V191.977C34.9372 192.614 34.5243 193.153 34.0354 193.153C33.5459 193.153 33.1324 192.614 33.1324 191.977V189.253V188.005C33.1324 186.533 32.0568 185.335 30.7353 185.335C29.4131 185.335 28.3376 186.533 28.3376 188.005C28.3376 188.292 28.1675 188.505 28.0156 188.505H26.3658C25.9529 188.505 25.6179 188.84 25.6179 189.253C25.6179 189.666 25.9529 190 26.3658 190H28.0156C29.017 190 29.8329 189.105 29.8329 188.005C29.8329 187.369 30.2458 186.83 30.7353 186.83C31.2242 186.83 31.6377 187.369 31.6377 188.005V189.253V191.977C31.6377 193.45 32.7133 194.647 34.0354 194.647C35.357 194.647 36.4325 193.45 36.4325 191.977V189.253V184.287C36.4325 183.651 36.8454 183.113 37.335 183.113C37.8245 183.113 38.2374 183.651 38.2374 184.287V188.005C38.2374 189.104 39.0526 189.999 40.0547 189.999H41.4211C41.834 189.999 42.1684 189.664 42.1684 189.251C42.1684 188.838 41.834 188.504 41.4211 188.504Z" fill="white"/>
</g>
<path d="M16.9814 72.8745C26.3574 72.8745 33.9583 65.2737 33.9583 55.8976C33.9583 46.5215 26.3574 38.9207 16.9814 38.9207C7.60527 38.9207 0.00445557 46.5215 0.00445557 55.8976C0.00445557 65.2737 7.60527 72.8745 16.9814 72.8745Z" fill="url(#paint3_linear)"/>
<path d="M10.1751 59.6164C9.58906 59.6164 9.11401 59.1812 9.11401 58.6443V54.4189C9.11401 53.8821 9.58906 53.4468 10.1751 53.4468C10.7611 53.4468 11.2361 53.8821 11.2361 54.4189V58.6443C11.2361 58.9021 11.1243 59.1494 10.9253 59.3317C10.7264 59.514 10.4565 59.6164 10.1751 59.6164Z" fill="white"/>
<path d="M15.2399 64.3862C14.9547 64.3828 14.6827 64.2758 14.4837 64.0886C14.2847 63.9014 14.175 63.6495 14.1788 63.3882V49.8307C14.1788 49.2938 14.6539 48.8586 15.2399 48.8586C15.8259 48.8586 16.3009 49.2938 16.3009 49.8307V63.3882C16.3047 63.6495 16.195 63.9014 15.996 64.0886C15.797 64.2758 15.525 64.3828 15.2399 64.3862Z" fill="white"/>
<path d="M20.1063 61.8716C19.5203 61.8716 19.0453 61.4364 19.0453 60.8995V52.17C19.0453 51.6332 19.5203 51.1979 20.1063 51.1979C20.6923 51.1979 21.1674 51.6332 21.1674 52.17V60.8995C21.1674 61.4364 20.6923 61.8716 20.1063 61.8716Z" fill="white"/>
<path d="M24.9804 58.1194C24.3944 58.1194 23.9194 57.6841 23.9194 57.1473V55.9224C23.9194 55.3855 24.3944 54.9503 24.9804 54.9503C25.5664 54.9503 26.0415 55.3855 26.0415 55.9224V57.1473C26.0415 57.6841 25.5664 58.1194 24.9804 58.1194Z" fill="white"/>
<circle cx="4.44366" cy="131.29" r="4.44366" fill="#ECECEC"/>
<circle cx="206.428" cy="60.7678" r="4.44366" fill="#ECECEC"/>
<circle cx="73.1183" cy="8.48358" r="4.44366" fill="#ECECEC"/>
<circle cx="113.112" cy="2.42388" r="2.42382" fill="#ECECEC"/>
<rect x="29.3035" y="123.22" width="11.9145" height="11.9145" rx="5.95727" transform="rotate(45 29.3035 123.22)" fill="#FFCF5D"/>
<path d="M217.577 118.403C221.124 118.403 224 115.527 224 111.98C224 108.433 221.124 105.557 217.577 105.557C214.03 105.557 211.154 108.433 211.154 111.98C211.154 115.527 214.03 118.403 217.577 118.403Z" fill="#FE8C7A"/>
<path opacity="0.4" d="M89.1209 196.28C90.8946 196.28 92.3324 195.021 92.3324 193.47C92.3324 191.918 90.8946 190.66 89.1209 190.66C87.3473 190.66 85.9095 191.918 85.9095 193.47C85.9095 195.021 87.3473 196.28 89.1209 196.28Z" fill="#DB6BFF"/>
<path d="M185.5 56C194.613 56 202 48.6127 202 39.5C202 30.3873 194.613 23 185.5 23C176.387 23 169 30.3873 169 39.5C169 48.6127 176.387 56 185.5 56Z" fill="url(#paint4_linear)"/>
<path fill-rule="evenodd" clip-rule="evenodd" d="M185.5 42.7355C183.682 42.7355 182.208 41.2183 182.208 39.3466V34.6382C182.208 32.7672 183.682 31.25 185.5 31.25C187.318 31.25 188.792 32.7672 188.792 34.6382V39.3466C188.792 41.2183 187.318 42.7355 185.5 42.7355ZM191.687 39.0864C191.687 42.3942 189.223 45.119 186.086 45.4239V46.5431H187.631C187.955 46.5431 188.217 46.8131 188.217 47.1462C188.217 47.4793 187.955 47.75 187.631 47.75H183.369C183.045 47.75 182.783 47.4793 182.783 47.1462C182.783 46.8131 183.045 46.5431 183.369 46.5431H184.914V45.4239C181.776 45.119 179.312 42.3942 179.312 39.0864C179.312 38.7534 179.575 38.4833 179.898 38.4833C180.222 38.4833 180.485 38.7534 180.485 39.0864C180.485 41.9325 182.734 44.2478 185.5 44.2478C188.265 44.2478 190.515 41.9325 190.515 39.0864C190.515 38.7534 190.778 38.4833 191.101 38.4833C191.425 38.4833 191.687 38.7534 191.687 39.0864Z" fill="white"/>
<defs>
<linearGradient id="paint0_linear" x1="124.121" y1="42.1007" x2="158.718" y2="178.614" gradientUnits="userSpaceOnUse">
<stop stop-color="#FFA1AA"/>
<stop offset="0.999789" stop-color="#FF5997"/>
</linearGradient>
<linearGradient id="paint1_linear" x1="192.403" y1="165.99" x2="202.989" y2="207.76" gradientUnits="userSpaceOnUse">
<stop stop-color="#AC5AFF"/>
<stop offset="0.999789" stop-color="#7659FF"/>
</linearGradient>
<linearGradient id="paint2_linear" x1="38.3608" y1="172.899" x2="38.3608" y2="224.689" gradientUnits="userSpaceOnUse">
<stop stop-color="#FFB339"/>
<stop offset="1" stop-color="#FF128E"/>
</linearGradient>
<linearGradient id="paint3_linear" x1="21.5513" y1="43.6822" x2="21.5513" y2="78.5975" gradientUnits="userSpaceOnUse">
<stop stop-color="#64F3AF"/>
<stop offset="0.708333" stop-color="#0AB5FF"/>
</linearGradient>
<linearGradient id="paint4_linear" x1="189.86" y1="14.7025" x2="202" y2="62.6043" gradientUnits="userSpaceOnUse">
<stop stop-color="#6EE8FF"/>
<stop offset="1" stop-color="#3885FF"/>
</linearGradient>
</defs>
</svg>
