<svg width="132" height="132" viewBox="0 0 132 132" fill="none" xmlns="http://www.w3.org/2000/svg">
<circle cx="65.7762" cy="65.7762" r="57.7762" stroke="#ECECEC" stroke-width="15"/>
<path d="M65.37 112.74C91.5317 112.74 112.74 91.5317 112.74 65.37C112.74 39.2083 91.5317 18 65.37 18C39.2083 18 18 39.2083 18 65.37C18 91.5317 39.2083 112.74 65.37 112.74Z" fill="url(#paint0_linear)"/>
<path d="M89.3122 64.8226C88.9412 51.9377 78.389 41.6851 65.4989 41.6851C52.6087 41.6851 42.0566 51.9377 41.6853 64.8226V73.4873C41.6804 73.8586 41.7474 74.2273 41.883 74.5729C41.9264 79.8739 46.2533 84.1389 51.5543 84.1063C53.1958 84.0737 54.5064 82.728 54.4952 81.0863V67.9016C54.5064 66.2599 53.1958 64.9141 51.5543 64.8818C50.0643 64.8888 48.5969 65.2472 47.2713 65.9279V64.8226C47.5955 54.9568 55.687 47.1268 65.5581 47.1268C75.4292 47.1268 83.5207 54.9568 83.8449 64.8226V65.8687C82.5427 65.2274 81.112 64.8899 79.6605 64.8818C78.8614 64.8818 78.0953 65.2006 77.5321 65.7675C76.9689 66.3344 76.6552 67.1025 76.6604 67.9016V81.0863C76.6552 81.8854 76.9689 82.6535 77.5321 83.2204C78.0953 83.7873 78.8614 84.1063 79.6605 84.1063C84.9154 84.0739 89.1704 79.8277 89.2135 74.5729C89.2135 74.5729 89.2135 74.415 89.2135 74.3163C89.2832 74.072 89.3229 73.8202 89.3319 73.5663L89.3122 64.8226Z" fill="white"/>
<defs>
<linearGradient id="paint0_linear" x1="78.1213" y1="-4.89933" x2="112.718" y2="131.614" gradientUnits="userSpaceOnUse">
<stop stop-color="#FFA1AA"/>
<stop offset="0.999789" stop-color="#FF5997"/>
</linearGradient>
</defs>
</svg>
