<svg width="184" height="35" viewBox="0 0 184 35" fill="none" xmlns="http://www.w3.org/2000/svg">
<path d="M98.4951 0C97.647 0 95.7533 0.216045 93.8102 6.07484C87.9985 3.31743 86.7234 4.40334 86.0874 5.03157C85.492 5.61433 84.307 7.08116 87.1533 12.5505C81.1121 14.5631 80.9465 16.5957 80.9465 17.1756C80.9465 17.7157 81.1702 19.8079 87.1359 21.7495C84.3157 27.361 85.6662 28.9131 86.0816 29.3253C86.4707 29.7062 88.1437 31.0309 93.7579 28.2763C95.7881 34.1891 97.6789 34.3511 98.4922 34.3511C99.3402 34.3511 101.231 34.1351 103.168 28.3019C108.873 31.0792 110.328 29.8853 110.9 29.3253C111.495 28.7397 112.68 27.2757 109.834 21.8006C115.875 19.788 116.041 17.7555 116.041 17.1756C116.041 16.6355 115.817 14.5432 109.851 12.6017C112.672 6.99303 111.321 5.43808 110.9 5.03157C110.508 4.65065 108.832 3.32311 103.2 6.0919C101.086 0.110865 99.3983 0 98.4951 0ZM87.6383 6.54957C87.8271 6.3648 88.4632 5.566 93.3775 7.48482C93.3542 7.56726 93.3281 7.64685 93.3078 7.73498C92.602 10.2309 91.0626 11.4163 88.893 12.0218C88.7827 12.053 88.6781 12.0815 88.5735 12.1127C86.4969 7.43649 87.4002 6.78552 87.6383 6.54957ZM102.25 8.09884C102.303 8.07326 102.352 8.05052 102.404 8.03062C102.436 8.10453 102.462 8.1756 102.492 8.24951C103.496 10.7482 105.106 12.4226 107.708 13.355C107.766 13.3777 107.818 13.3948 107.871 13.4147C107.836 13.4886 107.804 13.5568 107.769 13.6336C106.627 16.0783 106.555 18.4178 107.769 20.8569C107.795 20.908 107.818 20.9592 107.844 21.0104C107.769 21.0416 107.69 21.0672 107.615 21.0957C105.047 22.0281 103.302 23.6285 102.399 26.1926C102.381 26.2495 102.358 26.3006 102.341 26.3546C102.265 26.3205 102.192 26.2893 102.111 26.2551C99.6045 25.155 97.2462 25.1124 94.7309 26.2551C94.6786 26.2807 94.6264 26.3035 94.577 26.3234C94.545 26.2495 94.5189 26.1784 94.4899 26.0988C93.5111 23.5915 91.8759 21.9257 89.2735 20.9933C89.2154 20.9706 89.1631 20.9535 89.1109 20.9336C89.1428 20.8597 89.1777 20.7915 89.2125 20.7176C90.354 18.2729 90.4062 15.9475 89.2125 13.4943C89.1864 13.4431 89.1631 13.3919 89.137 13.3408C89.2125 13.3095 89.2909 13.2839 89.3665 13.2555C91.9369 12.3202 93.6563 10.7084 94.5886 8.15285C94.606 8.10169 94.6293 8.05052 94.6467 7.99935C94.7222 8.03062 94.7948 8.06473 94.8761 8.09316C97.3856 9.17338 99.7382 9.24161 102.25 8.09884ZM83.1394 17.1756C83.1394 16.8742 82.9825 15.8111 87.8591 13.8439C87.9084 13.9264 87.9549 14.0117 88.0043 14.0941C89.3084 16.3455 89.0702 18.2501 87.9781 20.1775C87.9259 20.2684 87.8765 20.3566 87.8242 20.4475C83.0319 18.5458 83.1394 17.4513 83.1394 17.1756ZM87.6383 27.8044C87.4176 27.5884 86.5405 26.9459 88.5677 22.1787C88.6607 22.2043 88.7507 22.2299 88.8495 22.2555C91.3996 22.9462 92.6049 24.4529 93.2293 26.5764C93.2613 26.6787 93.2903 26.7782 93.3165 26.8777C88.5503 28.8505 87.8358 28.0006 87.6383 27.8044ZM98.4951 32.2049C98.2366 32.2049 97.1881 32.4636 95.0998 27.5798C95.1782 27.5372 95.2624 27.4889 95.3467 27.4462C97.647 26.1699 99.5929 26.403 101.562 27.4718C101.664 27.5287 101.763 27.5827 101.864 27.6339C99.9966 32.3385 98.7448 32.2049 98.4951 32.2049ZM109.355 27.8044C109.172 27.9835 108.614 28.8903 103.613 26.8862C103.639 26.8009 103.665 26.71 103.688 26.619C104.394 24.1231 105.933 22.9377 108.103 22.3322C108.216 22.301 108.327 22.2668 108.437 22.2384C110.508 26.8635 109.535 27.631 109.355 27.8044ZM113.851 17.1756C113.851 17.4769 114.008 18.5401 109.131 20.5072C109.082 20.4248 109.038 20.3452 108.992 20.2571C107.688 18.0056 107.926 16.101 109.018 14.1737C109.07 14.0799 109.122 13.9889 109.172 13.8979C113.961 15.8054 113.851 16.9027 113.851 17.1756ZM109.355 6.54957C109.575 6.76562 110.453 7.40807 108.425 12.1753C108.332 12.1497 108.242 12.1241 108.144 12.0985C105.593 11.4077 104.423 9.8869 103.764 7.77762C103.732 7.67812 103.703 7.58147 103.671 7.48198C108.443 5.5063 109.157 6.35627 109.355 6.54957ZM101.879 6.77983C101.803 6.82247 101.725 6.86227 101.646 6.90775C99.3461 8.18412 97.4175 7.91975 95.4309 6.88217C95.3292 6.831 95.2334 6.77983 95.1317 6.72866C97.0487 1.9842 98.1581 2.14624 98.498 2.14624C98.7594 2.14624 99.7846 2.01831 101.879 6.77983Z" fill="url(#paint0_linear)"/>
<path fill-rule="evenodd" clip-rule="evenodd" d="M127.696 22.389C127.696 22.6875 127.934 22.932 128.228 22.932H137.121C137.162 22.932 137.194 22.8978 137.194 22.858V22.082C137.194 22.0422 137.162 22.0081 137.121 22.0081H128.933C128.837 22.0081 128.759 21.9285 128.759 21.829V17.4683C128.759 17.3688 128.837 17.292 128.933 17.292H136.578C136.618 17.292 136.65 17.2579 136.65 17.2181V16.4648C136.65 16.425 136.618 16.3909 136.578 16.3909H128.933C128.837 16.3909 128.759 16.3113 128.759 16.2147V12.5248C128.759 12.4253 128.837 12.3486 128.933 12.3486H136.999C137.04 12.3486 137.072 12.3145 137.072 12.2747V11.4958C137.072 11.456 137.04 11.4219 136.999 11.4219H128.228C127.934 11.4219 127.696 11.6663 127.696 11.9648V22.389Z" fill="white"/>
<path fill-rule="evenodd" clip-rule="evenodd" d="M142.488 22.9291H151.364C151.405 22.9291 151.44 22.895 151.44 22.8552V22.0791C151.44 22.0365 151.405 22.0052 151.364 22.0052H143.119C143.02 22.0052 142.939 21.9256 142.939 21.8261V11.4958C142.939 11.456 142.904 11.4219 142.863 11.4219H142.015C141.974 11.4219 141.939 11.456 141.939 11.4958V22.389C141.942 22.6875 142.186 22.9291 142.488 22.9291Z" fill="white"/>
<path fill-rule="evenodd" clip-rule="evenodd" d="M174.126 18.6991L177.289 12.6186C177.324 12.556 177.394 12.5333 177.446 12.5333C177.501 12.5333 177.571 12.556 177.603 12.6186L180.76 18.6991C180.789 18.7531 180.786 18.8213 180.754 18.8725C180.722 18.9265 180.664 18.9606 180.6 18.9606H174.28C174.219 18.9606 174.161 18.9294 174.129 18.8753C174.097 18.8213 174.097 18.7559 174.126 18.6991ZM173.615 19.8646H181.271C181.338 19.8646 181.396 19.9016 181.428 19.9584L182.944 22.8892C182.956 22.9148 182.982 22.929 183.011 22.929H183.926C183.952 22.929 183.975 22.9148 183.99 22.8921C184.001 22.8693 184.004 22.8409 183.993 22.8182L178.349 11.979C178.32 11.9221 178.041 11.4189 177.44 11.4189C176.827 11.4189 176.546 11.9534 176.534 11.9761L170.894 22.821C170.882 22.8437 170.882 22.8722 170.897 22.8949C170.911 22.9177 170.934 22.9319 170.96 22.9319H171.875C171.904 22.9319 171.928 22.9177 171.942 22.8921L173.458 19.9641C173.49 19.9016 173.548 19.8646 173.615 19.8646Z" fill="white"/>
<path fill-rule="evenodd" clip-rule="evenodd" d="M165.883 18.8896C165.715 18.5968 165.486 18.3324 165.201 18.105C164.916 17.8804 164.579 17.6786 164.196 17.508C163.815 17.3374 163.406 17.1839 162.979 17.0446C162.552 16.9082 162.108 16.7774 161.655 16.6609C161.202 16.5415 160.76 16.4249 160.333 16.3084C159.918 16.1975 159.511 16.0724 159.119 15.936C158.741 15.8052 158.405 15.6574 158.123 15.4954C157.841 15.3362 157.617 15.1486 157.452 14.941C157.286 14.7335 157.205 14.4976 157.205 14.219C157.205 13.8864 157.289 13.6078 157.466 13.369C157.641 13.1302 157.896 12.9284 158.227 12.7721C158.55 12.6186 158.951 12.5361 159.453 12.4565C159.915 12.3855 160.446 12.3457 161.033 12.3457H165.181C165.198 12.3457 165.215 12.3371 165.23 12.3229C165.242 12.3087 165.25 12.2917 165.25 12.2718V11.4929C165.25 11.4531 165.218 11.4189 165.183 11.4189H165.117H161.039C160.632 11.4189 159.444 11.4474 158.773 11.6179C158.419 11.7004 158.079 11.8169 157.768 11.9591C157.455 12.1012 157.179 12.2831 156.947 12.4935C156.714 12.7038 156.525 12.9568 156.392 13.2496C156.258 13.5396 156.188 13.8779 156.188 14.2531C156.188 14.634 156.273 14.9723 156.441 15.2623C156.61 15.5494 156.839 15.8052 157.124 16.0241C157.405 16.2402 157.742 16.4335 158.126 16.5983C158.506 16.7604 158.916 16.9082 159.337 17.0361C159.758 17.164 160.202 17.2863 160.655 17.3971C161.109 17.508 161.55 17.6217 161.971 17.7354C162.398 17.852 162.805 17.9799 163.179 18.1135C163.56 18.2471 163.894 18.4035 164.176 18.5769C164.457 18.7503 164.681 18.9549 164.847 19.1824C165.012 19.4126 165.091 19.6713 165.091 19.9755C165.091 20.3564 164.989 20.6691 164.783 20.9306C164.579 21.1921 164.289 21.4053 163.92 21.5674C163.54 21.7351 163.075 21.8118 162.596 21.8829C162.128 21.954 161.582 21.9909 160.926 21.9966H156.316C156.279 21.9966 156.249 22.0307 156.249 22.0705V22.8494C156.249 22.8921 156.279 22.9233 156.316 22.9233L160.894 22.9262C161.292 22.9262 161.704 22.9091 162.114 22.8722C162.526 22.8381 162.93 22.7755 163.316 22.6902L163.403 22.6703C163.755 22.5936 164.089 22.5168 164.408 22.3804C164.751 22.2326 165.05 22.0421 165.305 21.8175C165.561 21.593 165.764 21.3201 165.915 21.0102C166.066 20.6975 166.142 20.328 166.142 19.9101C166.136 19.5263 166.052 19.1824 165.883 18.8896Z" fill="white"/>
<path d="M2.04688 26.0474C1.77344 26.0474 1.55697 25.9676 1.39746 25.8081C1.24251 25.644 1.16504 25.4185 1.16504 25.1313V16.9829C1.16504 16.6958 1.24251 16.4725 1.39746 16.313C1.55697 16.1489 1.77344 16.0669 2.04688 16.0669H5C5.98438 16.0669 6.78418 16.3722 7.39941 16.9829C8.01465 17.589 8.32227 18.3843 8.32227 19.3687C8.32227 20.3485 8.00553 21.1437 7.37207 21.7544C6.74316 22.3651 5.92741 22.6704 4.9248 22.6704H2.92871V25.1313C2.92871 25.423 2.85124 25.6486 2.69629 25.8081C2.54134 25.9676 2.32487 26.0474 2.04688 26.0474ZM2.92871 21.2485H4.52832C5.16178 21.2485 5.65397 21.0845 6.00488 20.7563C6.35579 20.4282 6.53125 19.9657 6.53125 19.3687C6.53125 18.7762 6.35579 18.3182 6.00488 17.9946C5.65853 17.6711 5.16862 17.5093 4.53516 17.5093H2.92871V21.2485ZM14.9326 25.0698C14.2992 25.7397 13.4469 26.0747 12.376 26.0747C11.305 26.0747 10.4528 25.7397 9.81934 25.0698C9.18587 24.3953 8.86914 23.4748 8.86914 22.3081C8.86914 21.146 9.18815 20.2277 9.82617 19.5532C10.4642 18.8742 11.3141 18.5347 12.376 18.5347C13.4424 18.5347 14.2923 18.8742 14.9258 19.5532C15.5638 20.2277 15.8828 21.146 15.8828 22.3081C15.8828 23.4748 15.5661 24.3953 14.9326 25.0698ZM11.0771 24.0923C11.3962 24.5161 11.8291 24.728 12.376 24.728C12.9229 24.728 13.3558 24.5161 13.6748 24.0923C13.9938 23.6685 14.1533 23.0737 14.1533 22.3081C14.1533 21.547 13.9938 20.9546 13.6748 20.5308C13.3558 20.1024 12.9229 19.8882 12.376 19.8882C11.8337 19.8882 11.4007 20.1024 11.0771 20.5308C10.7581 20.9546 10.5986 21.547 10.5986 22.3081C10.5986 23.0737 10.7581 23.6685 11.0771 24.0923ZM19.2256 26.0679C18.9385 26.0679 18.7106 25.9995 18.542 25.8628C18.3779 25.7215 18.2503 25.4982 18.1592 25.1929L16.5869 19.7788C16.5322 19.5692 16.5049 19.4006 16.5049 19.2729C16.5049 19.0588 16.5801 18.8833 16.7305 18.7466C16.8854 18.6099 17.0837 18.5415 17.3252 18.5415C17.749 18.5415 18.0133 18.7808 18.1182 19.2593L19.3213 24.2495H19.3555L20.6201 19.3208C20.7386 18.8013 21.0622 18.5415 21.5908 18.5415C22.1104 18.5415 22.4294 18.8013 22.5479 19.3208L23.8193 24.2495H23.8604L25.0635 19.2524C25.1683 18.7785 25.4281 18.5415 25.8428 18.5415C26.0843 18.5415 26.2803 18.6099 26.4307 18.7466C26.5811 18.8787 26.6562 19.0519 26.6562 19.2661C26.6562 19.4028 26.6266 19.5692 26.5674 19.7651L25.002 25.1929C24.9154 25.4937 24.7855 25.7147 24.6123 25.856C24.4391 25.9972 24.209 26.0679 23.9219 26.0679C23.6165 26.0679 23.3773 25.9995 23.2041 25.8628C23.0309 25.7215 22.9056 25.4959 22.8281 25.186L21.584 20.6333H21.5498L20.3057 25.1929C20.1644 25.7762 19.8044 26.0679 19.2256 26.0679ZM30.7646 26.0747C29.6572 26.0747 28.7936 25.7466 28.1738 25.0903C27.554 24.4295 27.2441 23.5112 27.2441 22.3354C27.2441 21.1779 27.554 20.255 28.1738 19.5669C28.7936 18.8787 29.6253 18.5347 30.6689 18.5347C31.6579 18.5347 32.46 18.8514 33.0752 19.4849C33.695 20.1138 34.0049 20.9227 34.0049 21.9116C34.0049 22.1668 33.9342 22.3651 33.793 22.5063C33.6562 22.6476 33.4626 22.7183 33.2119 22.7183H28.9395V22.7729C28.9395 23.3791 29.1035 23.8621 29.4316 24.2222C29.7598 24.5822 30.1995 24.7622 30.751 24.7622C31.1338 24.7622 31.4619 24.6893 31.7354 24.5435C32.0133 24.3976 32.2891 24.1493 32.5625 23.7983C32.7266 23.616 32.918 23.5249 33.1367 23.5249C33.3327 23.5249 33.4945 23.5841 33.6221 23.7026C33.7542 23.8211 33.8203 23.9806 33.8203 24.1812C33.8203 24.3133 33.7816 24.4569 33.7041 24.6118C33.4626 25.0721 33.0843 25.4321 32.5693 25.6919C32.0544 25.9471 31.4528 26.0747 30.7646 26.0747ZM28.9531 21.5972H32.3369C32.3187 21.0731 32.1569 20.6515 31.8516 20.3325C31.5462 20.0135 31.1543 19.854 30.6758 19.854C30.1973 19.854 29.7985 20.0158 29.4795 20.3394C29.1605 20.6584 28.985 21.0776 28.9531 21.5972ZM36.5752 25.8286C36.4202 25.9881 36.2129 26.0679 35.9531 26.0679C35.6934 26.0679 35.486 25.9881 35.3311 25.8286C35.1807 25.6691 35.1055 25.4504 35.1055 25.1724V19.4028C35.1055 19.1385 35.1784 18.9289 35.3242 18.7739C35.4746 18.619 35.6729 18.5415 35.9189 18.5415C36.1559 18.5415 36.3496 18.619 36.5 18.7739C36.6504 18.9289 36.7256 19.1385 36.7256 19.4028V19.9565H36.7598C36.86 19.5373 37.0514 19.2 37.334 18.9448C37.6211 18.6896 37.9469 18.562 38.3115 18.562C38.5758 18.562 38.7764 18.6235 38.9131 18.7466C39.0726 18.8787 39.1523 19.0838 39.1523 19.3618C39.1523 19.6261 39.068 19.8267 38.8994 19.9634C38.7354 20.1047 38.4847 20.1799 38.1475 20.189C37.2542 20.1935 36.8076 20.6925 36.8076 21.686V25.1724C36.8076 25.4504 36.7301 25.6691 36.5752 25.8286ZM42.8643 26.0747C41.7568 26.0747 40.8932 25.7466 40.2734 25.0903C39.6536 24.4295 39.3438 23.5112 39.3438 22.3354C39.3438 21.1779 39.6536 20.255 40.2734 19.5669C40.8932 18.8787 41.7249 18.5347 42.7686 18.5347C43.7575 18.5347 44.5596 18.8514 45.1748 19.4849C45.7946 20.1138 46.1045 20.9227 46.1045 21.9116C46.1045 22.1668 46.0339 22.3651 45.8926 22.5063C45.7559 22.6476 45.5622 22.7183 45.3115 22.7183H41.0391V22.7729C41.0391 23.3791 41.2031 23.8621 41.5312 24.2222C41.8594 24.5822 42.2992 24.7622 42.8506 24.7622C43.2334 24.7622 43.5615 24.6893 43.835 24.5435C44.113 24.3976 44.3887 24.1493 44.6621 23.7983C44.8262 23.616 45.0176 23.5249 45.2363 23.5249C45.4323 23.5249 45.5941 23.5841 45.7217 23.7026C45.8538 23.8211 45.9199 23.9806 45.9199 24.1812C45.9199 24.3133 45.8812 24.4569 45.8037 24.6118C45.5622 25.0721 45.1839 25.4321 44.6689 25.6919C44.154 25.9471 43.5524 26.0747 42.8643 26.0747ZM41.0527 21.5972H44.4365C44.4183 21.0731 44.2565 20.6515 43.9512 20.3325C43.6458 20.0135 43.2539 19.854 42.7754 19.854C42.2969 19.854 41.8981 20.0158 41.5791 20.3394C41.2601 20.6584 41.0846 21.0776 41.0527 21.5972ZM49.9121 26.0474C48.9961 26.0474 48.2646 25.7101 47.7178 25.0356C47.1755 24.3612 46.9043 23.4497 46.9043 22.3013C46.9043 21.1574 47.1755 20.2482 47.7178 19.5737C48.2646 18.8993 48.9961 18.562 49.9121 18.562C50.4225 18.562 50.8737 18.6828 51.2656 18.9243C51.6621 19.1659 51.9583 19.4917 52.1543 19.9019H52.1953V16.8257C52.1953 16.5431 52.2728 16.3244 52.4277 16.1694C52.5827 16.0099 52.7878 15.9302 53.043 15.9302C53.2982 15.9302 53.5033 16.0099 53.6582 16.1694C53.8177 16.3244 53.8975 16.5431 53.8975 16.8257V25.2134C53.8975 25.4823 53.82 25.6919 53.665 25.8423C53.5101 25.9927 53.3073 26.0679 53.0566 26.0679C52.8014 26.0679 52.5941 25.9927 52.4346 25.8423C52.2751 25.6919 52.1953 25.4823 52.1953 25.2134V24.646H52.1611C51.9788 25.0789 51.694 25.4207 51.3066 25.6714C50.9238 25.922 50.459 26.0474 49.9121 26.0474ZM50.4248 24.6528C50.9626 24.6528 51.3932 24.4409 51.7168 24.0171C52.0404 23.5933 52.2021 23.0236 52.2021 22.3081C52.2021 21.5972 52.0404 21.0298 51.7168 20.606C51.3932 20.1776 50.9626 19.9634 50.4248 19.9634C49.8779 19.9634 49.445 20.1753 49.126 20.5991C48.807 21.0184 48.6475 21.5881 48.6475 22.3081C48.6475 23.0327 48.8047 23.6047 49.1191 24.0239C49.4382 24.4432 49.8734 24.6528 50.4248 24.6528ZM59.6123 25.8423C59.4574 25.9927 59.2546 26.0679 59.0039 26.0679C58.7533 26.0679 58.5527 25.995 58.4023 25.8491C58.252 25.6987 58.1768 25.4868 58.1768 25.2134V16.8257C58.1768 16.5431 58.2542 16.3244 58.4092 16.1694C58.5687 16.0099 58.776 15.9302 59.0312 15.9302C59.2865 15.9302 59.4915 16.0099 59.6465 16.1694C59.8014 16.3244 59.8789 16.5431 59.8789 16.8257V19.9292H59.9199C60.1296 19.5008 60.4326 19.1659 60.8291 18.9243C61.2256 18.6828 61.679 18.562 62.1895 18.562C63.1055 18.562 63.8324 18.8993 64.3701 19.5737C64.9079 20.2437 65.1768 21.1551 65.1768 22.3081C65.1768 23.4657 64.9079 24.3794 64.3701 25.0493C63.8324 25.7147 63.1032 26.0474 62.1826 26.0474C61.6585 26.0474 61.1982 25.9289 60.8018 25.6919C60.4053 25.4549 60.0977 25.1222 59.8789 24.6938H59.8447V25.2134C59.8447 25.4823 59.7673 25.6919 59.6123 25.8423ZM61.6631 24.6528C62.2054 24.6528 62.6361 24.4432 62.9551 24.0239C63.2741 23.6001 63.4336 23.0282 63.4336 22.3081C63.4336 21.5881 63.2741 21.0184 62.9551 20.5991C62.6361 20.1753 62.2054 19.9634 61.6631 19.9634C61.1344 19.9634 60.7038 20.1799 60.3711 20.6128C60.0384 21.0412 59.8721 21.6063 59.8721 22.3081C59.8721 23.0145 60.0384 23.5819 60.3711 24.0103C60.7038 24.4386 61.1344 24.6528 61.6631 24.6528ZM67.125 28.6245C66.7422 28.6245 66.4482 28.5539 66.2432 28.4126C66.0426 28.2759 65.9424 28.0776 65.9424 27.8179C65.9424 27.6447 65.9993 27.5057 66.1133 27.4009C66.2318 27.2961 66.389 27.2437 66.585 27.2437C66.6305 27.2437 66.6898 27.2437 66.7627 27.2437C66.8356 27.2482 66.8994 27.2505 66.9541 27.2505C67.4189 27.2505 67.763 26.9725 67.9863 26.4165L68.1094 26.061L65.7373 19.8198C65.6735 19.6421 65.6416 19.4803 65.6416 19.3345C65.6416 19.1021 65.7236 18.9129 65.8877 18.7671C66.0563 18.6167 66.266 18.5415 66.5166 18.5415C66.7308 18.5415 66.9017 18.5939 67.0293 18.6987C67.1569 18.8035 67.2572 18.9744 67.3301 19.2114L69.0596 24.4819H69.0869L70.8164 19.2046C70.8893 18.9722 70.9896 18.8035 71.1172 18.6987C71.2493 18.5939 71.4225 18.5415 71.6367 18.5415C71.8783 18.5415 72.0765 18.6144 72.2314 18.7603C72.3864 18.9015 72.4639 19.0861 72.4639 19.314C72.4639 19.4735 72.432 19.6375 72.3682 19.8062L69.9824 26.1909C69.6543 27.0933 69.276 27.7244 68.8477 28.0845C68.4238 28.4445 67.8496 28.6245 67.125 28.6245Z" fill="white"/>
<defs>
<linearGradient id="paint0_linear" x1="98.4936" y1="34.3511" x2="98.4936" y2="0" gradientUnits="userSpaceOnUse">
<stop stop-color="#007DF7"/>
<stop offset="0.5028" stop-color="#46DF83"/>
<stop offset="1" stop-color="#F8DA49"/>
</linearGradient>
</defs>
</svg>
