<svg width="118" height="118" viewBox="0 0 118 118" fill="none" xmlns="http://www.w3.org/2000/svg">
<circle cx="59" cy="59" r="59" fill="url(#paint0_linear)"/>
<path d="M45.6446 41.869C45.6446 34.2133 51.6727 28.0952 59.0001 28.0952C66.3274 28.0952 72.3555 34.2133 72.3555 41.869V57.3894C72.3555 65.0451 66.3274 71.1632 59.0001 71.1632C51.6727 71.1632 45.6446 65.0451 45.6446 57.3894V41.869Z" fill="white"/>
<path d="M40.4328 57.3894C40.4328 56.2515 39.5578 55.329 38.4784 55.329C37.399 55.329 36.5239 56.2515 36.5239 57.3894C36.5239 69.5393 45.5859 79.429 57.0457 80.4475V85.7841H47.5991C46.5197 85.7841 45.6446 86.7065 45.6446 87.8444C45.6446 88.9823 46.5197 89.9047 47.5991 89.9047H58.9926L59.0001 89.9047L59.0076 89.9047H70.401C71.4804 89.9047 72.3555 88.9823 72.3555 87.8444C72.3555 86.7065 71.4804 85.7841 70.401 85.7841H60.9546V80.4475C72.4143 79.429 81.4763 69.5393 81.4763 57.3894C81.4763 56.2515 80.6013 55.329 79.5219 55.329C78.4424 55.329 77.5674 56.2515 77.5674 57.3894C77.5674 67.8474 69.3032 76.4133 59.0001 76.4133C48.697 76.4133 40.4328 67.8474 40.4328 57.3894Z" fill="white"/>
<defs>
<linearGradient id="paint0_linear" x1="59" y1="0" x2="59" y2="118" gradientUnits="userSpaceOnUse">
<stop stop-color="#25E6FF"/>
<stop offset="1" stop-color="#33B2FF"/>
</linearGradient>
</defs>
</svg>
