<svg width="132" height="132" viewBox="0 0 132 132" fill="none" xmlns="http://www.w3.org/2000/svg">
<circle cx="65.7762" cy="65.7762" r="57.7762" stroke="#ECECEC" stroke-width="15"/>
<path d="M66.37 113.74C92.5317 113.74 113.74 92.5317 113.74 66.37C113.74 40.2083 92.5317 19 66.37 19C40.2083 19 19 40.2083 19 66.37C19 92.5317 40.2083 113.74 66.37 113.74Z" fill="url(#paint0_linear)"/>
<path d="M78.8639 45.7739H56.275C48.2005 45.7739 41.6548 52.3196 41.6548 60.3941V68.5572C41.6667 76.6233 48.2089 83.1558 56.275 83.1558H57.4627V92.3987C57.4667 92.8774 57.7388 93.3135 58.167 93.5276C58.5952 93.7417 59.1073 93.6977 59.4927 93.4137L73.1627 83.1558H78.8639C86.93 83.1558 93.4721 76.6233 93.4841 68.5572V60.3941C93.4841 52.3196 86.9384 45.7739 78.8639 45.7739ZM78.8639 62.9208C80.0712 62.912 81.1645 63.6326 81.6326 64.7455C82.1007 65.8584 81.851 67.1437 81.0004 68.0005C80.1498 68.8573 78.8663 69.1163 77.7501 68.6563C76.6338 68.1963 75.9053 67.1083 75.9053 65.901C75.8994 65.105 76.2145 64.3403 76.7793 63.7795C77.3442 63.2187 78.1112 62.9091 78.9071 62.9208H78.8639ZM67.5694 62.9208C68.7767 62.912 69.87 63.6326 70.3381 64.7455C70.8062 65.8584 70.5566 67.1437 69.706 68.0005C68.8554 68.8573 67.5719 69.1163 66.4556 68.6563C65.3393 68.1963 64.6109 67.1083 64.6108 65.901C64.6051 65.1126 64.9142 64.3545 65.4697 63.795C66.0252 63.2354 66.781 62.9207 67.5694 62.9208ZM56.2318 68.8596C55.0225 68.8683 53.9279 68.1454 53.4611 67.0298C52.9943 65.9143 53.2478 64.6272 54.1029 63.7721C54.958 62.917 56.2451 62.6634 57.3607 63.1302C58.4762 63.5971 59.1991 64.6917 59.1904 65.901C59.1904 67.5349 57.8658 68.8596 56.2318 68.8596Z" fill="white"/>
<defs>
<linearGradient id="paint0_linear" x1="79.1213" y1="-3.89933" x2="113.703" y2="132.556" gradientUnits="userSpaceOnUse">
<stop stop-color="#AC5AFF"/>
<stop offset="0.999789" stop-color="#7659FF"/>
</linearGradient>
</defs>
</svg>
