<svg width="224" height="220" viewBox="0 0 224 220" fill="none" xmlns="http://www.w3.org/2000/svg">
<circle cx="110.928" cy="112.11" r="57.7762" stroke="#ECECEC" stroke-width="15"/>
<circle cx="110.688" cy="110.688" r="108.084" stroke="#ECECEC" stroke-width="1.97544"/>
<circle cx="110.172" cy="111.972" r="83.5495" stroke="#ECECEC" stroke-width="2.02705"/>
<path d="M188.273 201.361C196.033 201.361 202.323 195.071 202.323 187.311C202.323 179.552 196.033 173.261 188.273 173.261C180.513 173.261 174.223 179.552 174.223 187.311C174.223 195.071 180.513 201.361 188.273 201.361Z" fill="url(#paint0_linear)"/>
<path d="M195.374 187.149C195.264 183.327 192.134 180.286 188.311 180.286C184.488 180.286 181.358 183.327 181.248 187.149V189.719C181.247 189.829 181.267 189.938 181.307 190.041C181.32 191.613 182.603 192.878 184.175 192.868C184.662 192.859 185.051 192.46 185.048 191.973V188.062C185.051 187.575 184.662 187.176 184.175 187.167C183.733 187.169 183.298 187.275 182.905 187.477V187.149C183.001 184.223 185.401 181.9 188.329 181.9C191.257 181.9 193.656 184.223 193.753 187.149V187.459C193.366 187.269 192.942 187.169 192.512 187.167C192.275 187.166 192.047 187.261 191.88 187.429C191.713 187.597 191.62 187.825 191.622 188.062V191.973C191.62 192.21 191.713 192.438 191.88 192.606C192.047 192.774 192.275 192.868 192.512 192.868C194.07 192.859 195.332 191.599 195.345 190.041C195.345 190.041 195.345 189.994 195.345 189.965C195.366 189.892 195.377 189.818 195.38 189.742L195.374 187.149Z" fill="white"/>
<path d="M111.37 159.74C137.532 159.74 158.74 138.532 158.74 112.37C158.74 86.2083 137.532 65 111.37 65C85.2083 65 64 86.2083 64 112.37C64 138.532 85.2083 159.74 111.37 159.74Z" fill="url(#paint1_linear)"/>
<path d="M123.864 91.7742H101.275C93.2005 91.7742 86.6548 98.3198 86.6548 106.394V114.557C86.6667 122.624 93.2089 129.156 101.275 129.156H102.463V138.399C102.467 138.878 102.739 139.314 103.167 139.528C103.595 139.742 104.107 139.698 104.493 139.414L118.163 129.156H123.864C131.93 129.156 138.472 122.624 138.484 114.557V106.394C138.484 98.3198 131.938 91.7742 123.864 91.7742ZM123.864 108.921C125.071 108.912 126.164 109.633 126.633 110.746C127.101 111.859 126.851 113.144 126 114.001C125.15 114.858 123.866 115.117 122.75 114.657C121.634 114.197 120.905 113.109 120.905 111.901C120.899 111.105 121.214 110.341 121.779 109.78C122.344 109.219 123.111 108.909 123.907 108.921H123.864ZM112.569 108.921C113.777 108.912 114.87 109.633 115.338 110.746C115.806 111.859 115.557 113.144 114.706 114.001C113.855 114.858 112.572 115.117 111.456 114.657C110.339 114.197 109.611 113.109 109.611 111.901C109.605 111.113 109.914 110.355 110.47 109.795C111.025 109.236 111.781 108.921 112.569 108.921ZM101.232 114.86C100.023 114.869 98.9279 114.146 98.4611 113.03C97.9943 111.915 98.2478 110.627 99.1029 109.772C99.958 108.917 101.245 108.664 102.361 109.13C103.476 109.597 104.199 110.692 104.19 111.901C104.19 113.535 102.866 114.86 101.232 114.86Z" fill="white"/>
<path d="M34.3373 202.793C42.5922 202.793 49.2841 196.101 49.2841 187.846C49.2841 179.591 42.5922 172.899 34.3373 172.899C26.0823 172.899 19.3904 179.591 19.3904 187.846C19.3904 196.101 26.0823 202.793 34.3373 202.793Z" fill="url(#paint2_linear)"/>
<mask id="mask0" mask-type="alpha" maskUnits="userSpaceOnUse" x="25" y="181" width="18" height="14">
<path d="M25.6182 181.618H42.1684V194.647H25.6182V181.618Z" fill="white"/>
</mask>
<g mask="url(#mask0)">
<path fill-rule="evenodd" clip-rule="evenodd" d="M41.4209 188.504H40.0545C39.9025 188.504 39.7319 188.29 39.7319 188.005V184.287C39.7319 182.816 38.657 181.618 37.3348 181.618C36.0126 181.618 34.937 182.816 34.937 184.287V189.253V191.977C34.937 192.614 34.5241 193.153 34.0353 193.153C33.5457 193.153 33.1322 192.614 33.1322 191.977V189.253V188.005C33.1322 186.533 32.0567 185.335 30.7351 185.335C29.4129 185.335 28.3374 186.533 28.3374 188.005C28.3374 188.292 28.1674 188.505 28.0154 188.505H26.3656C25.9527 188.505 25.6177 188.84 25.6177 189.253C25.6177 189.666 25.9527 190 26.3656 190H28.0154C29.0168 190 29.8327 189.105 29.8327 188.005C29.8327 187.369 30.2456 186.83 30.7351 186.83C31.224 186.83 31.6375 187.369 31.6375 188.005V189.253V191.977C31.6375 193.45 32.7131 194.647 34.0353 194.647C35.3568 194.647 36.4324 193.45 36.4324 191.977V189.253V184.287C36.4324 183.651 36.8453 183.113 37.3348 183.113C37.8243 183.113 38.2372 183.651 38.2372 184.287V188.005C38.2372 189.104 39.0524 189.999 40.0545 189.999H41.4209C41.8338 189.999 42.1682 189.664 42.1682 189.251C42.1682 188.839 41.8338 188.504 41.4209 188.504Z" fill="white"/>
</g>
<path d="M16.9813 72.8745C26.3574 72.8745 33.9582 65.2736 33.9582 55.8976C33.9582 46.5215 26.3574 38.9207 16.9813 38.9207C7.60521 38.9207 0.00439453 46.5215 0.00439453 55.8976C0.00439453 65.2736 7.60521 72.8745 16.9813 72.8745Z" fill="url(#paint3_linear)"/>
<path d="M10.1751 59.6164C9.58906 59.6164 9.11401 59.1811 9.11401 58.6443V54.4189C9.11401 53.882 9.58906 53.4468 10.1751 53.4468C10.7611 53.4468 11.2361 53.882 11.2361 54.4189V58.6443C11.2361 58.9021 11.1243 59.1493 10.9253 59.3316C10.7264 59.5139 10.4565 59.6164 10.1751 59.6164Z" fill="white"/>
<path d="M15.2399 64.3861C14.9547 64.3826 14.6827 64.2756 14.4837 64.0884C14.2847 63.9012 14.175 63.6493 14.1788 63.388V49.8305C14.1788 49.2936 14.6539 48.8584 15.2399 48.8584C15.8259 48.8584 16.3009 49.2936 16.3009 49.8305V63.388C16.3047 63.6493 16.195 63.9012 15.996 64.0884C15.797 64.2756 15.525 64.3826 15.2399 64.3861Z" fill="white"/>
<path d="M20.1065 61.8714C19.5205 61.8714 19.0454 61.4362 19.0454 60.8993V52.1699C19.0454 51.633 19.5205 51.1978 20.1065 51.1978C20.6925 51.1978 21.1675 51.633 21.1675 52.1699V60.8993C21.1675 61.4362 20.6925 61.8714 20.1065 61.8714Z" fill="white"/>
<path d="M24.9805 58.1192C24.3945 58.1192 23.9194 57.684 23.9194 57.1471V55.9223C23.9194 55.3854 24.3945 54.9502 24.9805 54.9502C25.5665 54.9502 26.0415 55.3854 26.0415 55.9223V57.1471C26.0415 57.684 25.5665 58.1192 24.9805 58.1192Z" fill="white"/>
<circle cx="4.44366" cy="131.29" r="4.44366" fill="#ECECEC"/>
<circle cx="206.428" cy="60.7679" r="4.44366" fill="#ECECEC"/>
<circle cx="73.1182" cy="8.48346" r="4.44366" fill="#ECECEC"/>
<circle cx="113.112" cy="2.42382" r="2.42382" fill="#ECECEC"/>
<rect x="29.3035" y="123.22" width="11.9145" height="11.9145" rx="5.95727" transform="rotate(45 29.3035 123.22)" fill="#FFCF5D"/>
<path d="M217.577 118.403C221.124 118.403 224 115.527 224 111.98C224 108.433 221.124 105.557 217.577 105.557C214.03 105.557 211.154 108.433 211.154 111.98C211.154 115.527 214.03 118.403 217.577 118.403Z" fill="#FE8C7A"/>
<path opacity="0.4" d="M89.1211 196.28C90.8947 196.28 92.3325 195.022 92.3325 193.47C92.3325 191.918 90.8947 190.66 89.1211 190.66C87.3475 190.66 85.9097 191.918 85.9097 193.47C85.9097 195.022 87.3475 196.28 89.1211 196.28Z" fill="#DB6BFF"/>
<path d="M185.5 56C194.613 56 202 48.6127 202 39.5C202 30.3873 194.613 23 185.5 23C176.387 23 169 30.3873 169 39.5C169 48.6127 176.387 56 185.5 56Z" fill="url(#paint4_linear)"/>
<path fill-rule="evenodd" clip-rule="evenodd" d="M185.5 42.7355C183.682 42.7355 182.208 41.2183 182.208 39.3466V34.6382C182.208 32.7672 183.682 31.25 185.5 31.25C187.318 31.25 188.792 32.7672 188.792 34.6382V39.3466C188.792 41.2183 187.318 42.7355 185.5 42.7355ZM191.688 39.0864C191.688 42.3942 189.223 45.119 186.086 45.4239V46.5431H187.631C187.955 46.5431 188.217 46.8131 188.217 47.1462C188.217 47.4793 187.955 47.75 187.631 47.75H183.369C183.045 47.75 182.783 47.4793 182.783 47.1462C182.783 46.8131 183.045 46.5431 183.369 46.5431H184.914V45.4239C181.777 45.119 179.312 42.3942 179.312 39.0864C179.312 38.7534 179.575 38.4833 179.899 38.4833C180.222 38.4833 180.485 38.7534 180.485 39.0864C180.485 41.9325 182.734 44.2478 185.5 44.2478C188.266 44.2478 190.515 41.9325 190.515 39.0864C190.515 38.7534 190.778 38.4833 191.101 38.4833C191.425 38.4833 191.688 38.7534 191.688 39.0864Z" fill="white"/>
<defs>
<linearGradient id="paint0_linear" x1="192.055" y1="166.47" x2="202.316" y2="206.959" gradientUnits="userSpaceOnUse">
<stop stop-color="#FFA1AA"/>
<stop offset="0.999789" stop-color="#FF5997"/>
</linearGradient>
<linearGradient id="paint1_linear" x1="124.121" y1="42.1007" x2="158.703" y2="178.556" gradientUnits="userSpaceOnUse">
<stop stop-color="#AC5AFF"/>
<stop offset="0.999789" stop-color="#7659FF"/>
</linearGradient>
<linearGradient id="paint2_linear" x1="38.3607" y1="172.899" x2="38.3607" y2="224.689" gradientUnits="userSpaceOnUse">
<stop stop-color="#FFB339"/>
<stop offset="1" stop-color="#FF128E"/>
</linearGradient>
<linearGradient id="paint3_linear" x1="21.5512" y1="43.6821" x2="21.5512" y2="78.5974" gradientUnits="userSpaceOnUse">
<stop stop-color="#64F3AF"/>
<stop offset="0.708333" stop-color="#0AB5FF"/>
</linearGradient>
<linearGradient id="paint4_linear" x1="189.86" y1="14.7025" x2="202" y2="62.6043" gradientUnits="userSpaceOnUse">
<stop stop-color="#6EE8FF"/>
<stop offset="1" stop-color="#3885FF"/>
</linearGradient>
</defs>
</svg>
