<svg width="132" height="132" viewBox="0 0 132 132" fill="none" xmlns="http://www.w3.org/2000/svg">
<circle cx="65.7762" cy="65.7762" r="57.7762" stroke="#ECECEC" stroke-width="15"/>
<circle cx="65.3682" cy="65.6466" r="47.3682" fill="url(#paint0_linear)"/>
<path d="M54.6458 51.8928C54.6458 45.7464 59.4854 40.8345 65.3682 40.8345C71.251 40.8345 76.0906 45.7464 76.0906 51.8928V64.3534C76.0906 70.4997 71.251 75.4117 65.3682 75.4117C59.4854 75.4117 54.6458 70.4997 54.6458 64.3534V51.8928Z" fill="white"/>
<path d="M50.4614 64.3533C50.4614 63.4398 49.7589 62.6992 48.8923 62.6992C48.0257 62.6992 47.3232 63.4398 47.3232 64.3533C47.3232 74.1079 54.5986 82.0479 63.7991 82.8656V87.1501H56.2149C55.3483 87.1501 54.6458 87.8906 54.6458 88.8042C54.6458 89.7177 55.3483 90.4583 56.2149 90.4583H65.3622L65.3682 90.4583L65.3743 90.4583H74.5215C75.3881 90.4583 76.0906 89.7177 76.0906 88.8042C76.0906 87.8906 75.3881 87.1501 74.5215 87.1501H66.9374V82.8656C76.1378 82.0479 83.4133 74.1079 83.4133 64.3533C83.4133 63.4398 82.7107 62.6992 81.8441 62.6992C80.9775 62.6992 80.275 63.4398 80.275 64.3533C80.275 72.7496 73.6401 79.6267 65.3682 79.6267C57.0964 79.6267 50.4614 72.7496 50.4614 64.3533Z" fill="white"/>
<defs>
<linearGradient id="paint0_linear" x1="65.3682" y1="18.2783" x2="65.3682" y2="113.015" gradientUnits="userSpaceOnUse">
<stop stop-color="#25E6FF"/>
<stop offset="1" stop-color="#33B2FF"/>
</linearGradient>
</defs>
</svg>
