<svg width="224" height="220" viewBox="0 0 224 220" fill="none" xmlns="http://www.w3.org/2000/svg">
<circle cx="110.928" cy="112.11" r="57.7762" stroke="#ECECEC" stroke-width="15"/>
<circle cx="110.688" cy="110.688" r="108.084" stroke="#ECECEC" stroke-width="1.97544"/>
<circle cx="110.172" cy="111.972" r="83.5495" stroke="#ECECEC" stroke-width="2.02705"/>
<path d="M188.273 201.362C196.033 201.362 202.323 195.071 202.323 187.312C202.323 179.552 196.033 173.262 188.273 173.262C180.513 173.262 174.223 179.552 174.223 187.312C174.223 195.071 180.513 201.362 188.273 201.362Z" fill="url(#paint0_linear)"/>
<path d="M195.374 187.149C195.264 183.328 192.134 180.287 188.311 180.287C184.488 180.287 181.358 183.328 181.248 187.149V189.719C181.247 189.829 181.267 189.939 181.307 190.041C181.32 191.613 182.603 192.878 184.175 192.869C184.662 192.859 185.051 192.46 185.048 191.973V188.062C185.051 187.575 184.662 187.176 184.175 187.167C183.733 187.169 183.298 187.275 182.905 187.477V187.149C183.001 184.223 185.401 181.901 188.329 181.901C191.257 181.901 193.656 184.223 193.753 187.149V187.459C193.366 187.269 192.942 187.169 192.512 187.167C192.275 187.167 192.047 187.261 191.88 187.429C191.713 187.598 191.62 187.825 191.622 188.062V191.973C191.62 192.21 191.713 192.438 191.88 192.606C192.047 192.774 192.275 192.869 192.512 192.869C194.07 192.859 195.332 191.6 195.345 190.041C195.345 190.041 195.345 189.994 195.345 189.965C195.366 189.893 195.377 189.818 195.38 189.743L195.374 187.149Z" fill="white"/>
<path d="M185.463 56.0249C194.775 56.0249 202.323 48.4765 202.323 39.1651C202.323 29.8536 194.775 22.3052 185.463 22.3052C176.152 22.3052 168.603 29.8536 168.603 39.1651C168.603 48.4765 176.152 56.0249 185.463 56.0249Z" fill="url(#paint1_linear)"/>
<path d="M189.91 31.8345H181.87C178.996 31.8345 176.667 34.1642 176.667 37.0381V39.9435C176.671 42.8143 178.999 45.1394 181.87 45.1394H182.293V48.4291C182.294 48.5995 182.391 48.7547 182.544 48.8309C182.696 48.9071 182.878 48.8914 183.015 48.7904L187.881 45.1394H189.91C192.781 45.1394 195.109 42.8143 195.114 39.9435V37.0381C195.114 34.1642 192.784 31.8345 189.91 31.8345ZM189.91 37.9374C190.34 37.9342 190.729 38.1907 190.895 38.5868C191.062 38.9829 190.973 39.4404 190.67 39.7453C190.368 40.0503 189.911 40.1425 189.513 39.9787C189.116 39.815 188.857 39.4278 188.857 38.9981C188.855 38.7148 188.967 38.4426 189.168 38.243C189.369 38.0434 189.642 37.9332 189.925 37.9374H189.91ZM185.89 37.9374C186.32 37.9342 186.709 38.1907 186.875 38.5868C187.042 38.9829 186.953 39.4404 186.65 39.7453C186.348 40.0503 185.891 40.1425 185.494 39.9787C185.096 39.815 184.837 39.4278 184.837 38.9981C184.835 38.7175 184.945 38.4476 185.143 38.2485C185.34 38.0494 185.609 37.9373 185.89 37.9374ZM181.855 40.0511C181.424 40.0542 181.035 39.7969 180.869 39.3999C180.702 39.0028 180.793 38.5447 181.097 38.2404C181.401 37.936 181.859 37.8458 182.257 38.0119C182.654 38.1781 182.911 38.5677 182.908 38.9981C182.908 39.5796 182.436 40.0511 181.855 40.0511Z" fill="white"/>
<path d="M34.3373 202.793C42.5922 202.793 49.2841 196.101 49.2841 187.846C49.2841 179.591 42.5922 172.899 34.3373 172.899C26.0823 172.899 19.3904 179.591 19.3904 187.846C19.3904 196.101 26.0823 202.793 34.3373 202.793Z" fill="url(#paint2_linear)"/>
<mask id="mask0" mask-type="alpha" maskUnits="userSpaceOnUse" x="25" y="181" width="18" height="14">
<path d="M25.6182 181.618H42.1684V194.647H25.6182V181.618Z" fill="white"/>
</mask>
<g mask="url(#mask0)">
<path fill-rule="evenodd" clip-rule="evenodd" d="M41.4209 188.504H40.0545C39.9025 188.504 39.7319 188.29 39.7319 188.005V184.287C39.7319 182.815 38.657 181.618 37.3348 181.618C36.0126 181.618 34.937 182.815 34.937 184.287V189.252V191.977C34.937 192.614 34.5241 193.152 34.0353 193.152C33.5457 193.152 33.1322 192.614 33.1322 191.977V189.252V188.005C33.1322 186.533 32.0567 185.335 30.7351 185.335C29.4129 185.335 28.3374 186.533 28.3374 188.005C28.3374 188.291 28.1674 188.505 28.0154 188.505H26.3656C25.9527 188.505 25.6177 188.84 25.6177 189.252C25.6177 189.665 25.9527 190 26.3656 190H28.0154C29.0168 190 29.8327 189.105 29.8327 188.005C29.8327 187.368 30.2456 186.83 30.7351 186.83C31.224 186.83 31.6375 187.368 31.6375 188.005V189.252V191.977C31.6375 193.449 32.7131 194.647 34.0353 194.647C35.3568 194.647 36.4324 193.449 36.4324 191.977V189.252V184.287C36.4324 183.65 36.8453 183.113 37.3348 183.113C37.8243 183.113 38.2372 183.65 38.2372 184.287V188.005C38.2372 189.104 39.0524 189.999 40.0545 189.999H41.4209C41.8338 189.999 42.1682 189.664 42.1682 189.251C42.1682 188.838 41.8338 188.504 41.4209 188.504Z" fill="white"/>
</g>
<path d="M16.9813 72.8747C26.3574 72.8747 33.9582 65.2739 33.9582 55.8978C33.9582 46.5217 26.3574 38.9209 16.9813 38.9209C7.60521 38.9209 0.00439453 46.5217 0.00439453 55.8978C0.00439453 65.2739 7.60521 72.8747 16.9813 72.8747Z" fill="url(#paint3_linear)"/>
<path d="M10.1751 59.6169C9.58906 59.6169 9.11401 59.1816 9.11401 58.6448V54.4194C9.11401 53.8825 9.58906 53.4473 10.1751 53.4473C10.7611 53.4473 11.2361 53.8825 11.2361 54.4194V58.6448C11.2361 58.9026 11.1243 59.1498 10.9253 59.3321C10.7264 59.5144 10.4565 59.6169 10.1751 59.6169Z" fill="white"/>
<path d="M15.2399 64.3865C14.9547 64.3831 14.6827 64.2761 14.4837 64.0889C14.2847 63.9017 14.175 63.6498 14.1788 63.3885V49.831C14.1788 49.2941 14.6539 48.8589 15.2399 48.8589C15.8259 48.8589 16.3009 49.2941 16.3009 49.831V63.3885C16.3047 63.6498 16.195 63.9017 15.996 64.0889C15.797 64.2761 15.525 64.3831 15.2399 64.3865Z" fill="white"/>
<path d="M20.1065 61.8719C19.5205 61.8719 19.0454 61.4367 19.0454 60.8998V52.1703C19.0454 51.6335 19.5205 51.1982 20.1065 51.1982C20.6925 51.1982 21.1675 51.6335 21.1675 52.1703V60.8998C21.1675 61.4367 20.6925 61.8719 20.1065 61.8719Z" fill="white"/>
<path d="M24.9805 58.1197C24.3945 58.1197 23.9194 57.6845 23.9194 57.1476V55.9228C23.9194 55.3859 24.3945 54.9507 24.9805 54.9507C25.5665 54.9507 26.0415 55.3859 26.0415 55.9228V57.1476C26.0415 57.6845 25.5665 58.1197 24.9805 58.1197Z" fill="white"/>
<circle cx="4.44366" cy="131.29" r="4.44366" fill="#ECECEC"/>
<circle cx="206.428" cy="60.7679" r="4.44366" fill="#ECECEC"/>
<circle cx="73.1182" cy="8.4837" r="4.44366" fill="#ECECEC"/>
<circle cx="113.112" cy="2.42382" r="2.42382" fill="#ECECEC"/>
<rect x="29.3035" y="123.22" width="11.9145" height="11.9145" rx="5.95727" transform="rotate(45 29.3035 123.22)" fill="#FFCF5D"/>
<path d="M217.577 118.403C221.124 118.403 224 115.527 224 111.98C224 108.433 221.124 105.557 217.577 105.557C214.03 105.557 211.154 108.433 211.154 111.98C211.154 115.527 214.03 118.403 217.577 118.403Z" fill="#FE8C7A"/>
<path opacity="0.4" d="M89.1211 196.28C90.8947 196.28 92.3325 195.022 92.3325 193.47C92.3325 191.918 90.8947 190.66 89.1211 190.66C87.3475 190.66 85.9097 191.918 85.9097 193.47C85.9097 195.022 87.3475 196.28 89.1211 196.28Z" fill="#DB6BFF"/>
<circle cx="110.798" cy="111.98" r="47.3682" fill="url(#paint4_linear)"/>
<path d="M100.076 98.2263C100.076 92.0799 104.915 87.168 110.798 87.168C116.681 87.168 121.52 92.0799 121.52 98.2263V110.687C121.52 116.833 116.681 121.745 110.798 121.745C104.915 121.745 100.076 116.833 100.076 110.687V98.2263Z" fill="white"/>
<path d="M95.8912 110.687C95.8912 109.773 95.1887 109.033 94.3221 109.033C93.4555 109.033 92.7529 109.773 92.7529 110.687C92.7529 120.441 100.028 128.381 109.229 129.199V133.484H101.645C100.778 133.484 100.076 134.224 100.076 135.138C100.076 136.051 100.778 136.792 101.645 136.792H110.792L110.798 136.792L110.804 136.792H119.951C120.818 136.792 121.52 136.051 121.52 135.138C121.52 134.224 120.818 133.484 119.951 133.484H112.367V129.199C121.568 128.381 128.843 120.441 128.843 110.687C128.843 109.773 128.14 109.033 127.274 109.033C126.407 109.033 125.705 109.773 125.705 110.687C125.705 119.083 119.07 125.96 110.798 125.96C102.526 125.96 95.8912 119.083 95.8912 110.687Z" fill="white"/>
<defs>
<linearGradient id="paint0_linear" x1="192.055" y1="166.47" x2="202.316" y2="206.959" gradientUnits="userSpaceOnUse">
<stop stop-color="#FFA1AA"/>
<stop offset="0.999789" stop-color="#FF5997"/>
</linearGradient>
<linearGradient id="paint1_linear" x1="190.002" y1="14.1549" x2="202.31" y2="62.7219" gradientUnits="userSpaceOnUse">
<stop stop-color="#AC5AFF"/>
<stop offset="0.999789" stop-color="#7659FF"/>
</linearGradient>
<linearGradient id="paint2_linear" x1="38.3607" y1="172.899" x2="38.3607" y2="224.688" gradientUnits="userSpaceOnUse">
<stop stop-color="#FFB339"/>
<stop offset="1" stop-color="#FF128E"/>
</linearGradient>
<linearGradient id="paint3_linear" x1="21.5512" y1="43.6824" x2="21.5512" y2="78.5977" gradientUnits="userSpaceOnUse">
<stop stop-color="#64F3AF"/>
<stop offset="0.708333" stop-color="#0AB5FF"/>
</linearGradient>
<linearGradient id="paint4_linear" x1="110.798" y1="64.6118" x2="110.798" y2="159.348" gradientUnits="userSpaceOnUse">
<stop stop-color="#25E6FF"/>
<stop offset="1" stop-color="#33B2FF"/>
</linearGradient>
</defs>
</svg>
