<svg width="132" height="132" viewBox="0 0 132 132" fill="none" xmlns="http://www.w3.org/2000/svg">
<circle cx="65.7762" cy="65.7762" r="57.7762" stroke="#ECECEC" stroke-width="15"/>
<path d="M65.37 112.74C91.5317 112.74 112.74 91.5317 112.74 65.37C112.74 39.2083 91.5317 18 65.37 18C39.2083 18 18 39.2083 18 65.37C18 91.5317 39.2083 112.74 65.37 112.74Z" fill="url(#paint0_linear)"/>
<mask id="mask0" mask-type="alpha" maskUnits="userSpaceOnUse" x="37" y="45" width="54" height="42">
<path d="M37.7373 45.6333H90.1887V86.9255H37.7373V45.6333Z" fill="white"/>
</mask>
<g mask="url(#mask0)">
<path fill-rule="evenodd" clip-rule="evenodd" d="M87.8197 67.4556H83.4893C83.0077 67.4556 82.4669 66.7786 82.4669 65.8746V54.0913C82.4669 49.4274 79.0602 45.6318 74.87 45.6318C70.6797 45.6318 67.271 49.4274 67.271 54.0913V69.828V78.4632C67.271 80.4823 65.9624 82.1877 64.413 82.1877C62.8617 82.1877 61.5511 80.4823 61.5511 78.4632V69.828V65.8746C61.5511 61.2087 58.1424 57.4131 53.9541 57.4131C49.7639 57.4131 46.3552 61.2087 46.3552 65.8746C46.3552 66.7825 45.8164 67.4595 45.3348 67.4595H40.1063C38.7977 67.4595 37.7358 68.5194 37.7358 69.828C37.7358 71.1366 38.7977 72.1965 40.1063 72.1965H45.3348C48.5086 72.1965 51.0942 69.3603 51.0942 65.8746C51.0942 63.8574 52.4028 62.1501 53.9541 62.1501C55.5035 62.1501 56.8141 63.8574 56.8141 65.8746V69.828V78.4632C56.8141 83.1291 60.2228 86.9247 64.413 86.9247C68.6013 86.9247 72.01 83.1291 72.01 78.4632V69.828V54.0913C72.01 52.0742 73.3186 50.3708 74.87 50.3708C76.4213 50.3708 77.7299 52.0742 77.7299 54.0913V65.8746C77.7299 69.3583 80.3136 72.1926 83.4893 72.1926H87.8197C89.1283 72.1926 90.1882 71.1327 90.1882 69.8241C90.1882 68.5155 89.1283 67.4556 87.8197 67.4556Z" fill="white"/>
</g>
<defs>
<linearGradient id="paint0_linear" x1="78.1213" y1="18" x2="78.1213" y2="182.132" gradientUnits="userSpaceOnUse">
<stop stop-color="#FFB339"/>
<stop offset="1" stop-color="#FF128E"/>
</linearGradient>
</defs>
</svg>
