<svg width="224" height="220" viewBox="0 0 224 220" fill="none" xmlns="http://www.w3.org/2000/svg">
<circle cx="110.928" cy="112.11" r="57.7762" stroke="#ECECEC" stroke-width="15"/>
<circle cx="110.688" cy="110.688" r="108.084" stroke="#ECECEC" stroke-width="1.97544"/>
<circle cx="110.172" cy="111.972" r="83.5495" stroke="#ECECEC" stroke-width="2.02705"/>
<path d="M33 199C40.1797 199 46 193.18 46 186C46 178.82 40.1797 173 33 173C25.8203 173 20 178.82 20 186C20 193.18 25.8203 199 33 199Z" fill="url(#paint0_linear)"/>
<path d="M39.5706 185.85C39.4688 182.314 36.5729 179.5 33.0354 179.5C29.4978 179.5 26.602 182.314 26.5001 185.85V188.228C26.4987 188.33 26.5171 188.431 26.5543 188.526C26.5662 189.98 27.7537 191.151 29.2085 191.142C29.659 191.133 30.0186 190.764 30.0156 190.313V186.695C30.0186 186.244 29.659 185.875 29.2085 185.866C28.7996 185.868 28.3968 185.966 28.0331 186.153V185.85C28.122 183.142 30.3426 180.993 33.0516 180.993C35.7606 180.993 37.9812 183.142 38.0701 185.85V186.137C37.7128 185.961 37.3202 185.868 36.9218 185.866C36.7025 185.866 36.4923 185.953 36.3377 186.109C36.1831 186.265 36.097 186.475 36.0985 186.695V190.313C36.097 190.532 36.1831 190.743 36.3377 190.899C36.4923 191.054 36.7025 191.142 36.9218 191.142C38.3639 191.133 39.5317 189.968 39.5435 188.526C39.5435 188.526 39.5435 188.482 39.5435 188.455C39.5626 188.388 39.5735 188.319 39.576 188.249L39.5706 185.85Z" fill="white"/>
<path d="M188.5 202C196.508 202 203 195.508 203 187.5C203 179.492 196.508 173 188.5 173C180.492 173 174 179.492 174 187.5C174 195.508 180.492 202 188.5 202Z" fill="url(#paint1_linear)"/>
<path d="M192.324 181.196H185.41C182.938 181.196 180.935 183.199 180.935 185.671V188.17C180.938 190.639 182.941 192.638 185.41 192.638H185.773V195.467C185.775 195.614 185.858 195.747 185.989 195.813C186.12 195.879 186.277 195.865 186.395 195.778L190.579 192.638H192.324C194.793 192.638 196.796 190.639 196.8 188.17V185.671C196.8 183.199 194.796 181.196 192.324 181.196ZM192.324 186.444C192.694 186.442 193.029 186.662 193.172 187.003C193.315 187.343 193.239 187.737 192.978 187.999C192.718 188.261 192.325 188.341 191.983 188.2C191.642 188.059 191.419 187.726 191.419 187.356C191.417 187.113 191.513 186.879 191.686 186.707C191.859 186.535 192.094 186.441 192.338 186.444H192.324ZM188.867 186.444C189.237 186.442 189.571 186.662 189.715 187.003C189.858 187.343 189.781 187.737 189.521 187.999C189.261 188.261 188.868 188.341 188.526 188.2C188.184 188.059 187.962 187.726 187.962 187.356C187.96 187.115 188.054 186.883 188.224 186.712C188.394 186.541 188.626 186.444 188.867 186.444ZM185.397 188.262C185.027 188.265 184.691 188.043 184.549 187.702C184.406 187.361 184.483 186.967 184.745 186.705C185.007 186.443 185.401 186.365 185.742 186.508C186.084 186.651 186.305 186.986 186.302 187.356C186.302 187.857 185.897 188.262 185.397 188.262Z" fill="white"/>
<path d="M110.37 159.74C136.532 159.74 157.74 138.532 157.74 112.37C157.74 86.2083 136.532 65 110.37 65C84.2083 65 63 86.2083 63 112.37C63 138.532 84.2083 159.74 110.37 159.74Z" fill="url(#paint2_linear)"/>
<path d="M87 113.87L102.931 133L131 93" stroke="white" stroke-width="10" stroke-linecap="round" stroke-linejoin="round"/>
<path d="M16.9814 72.8745C26.3574 72.8745 33.9583 65.2736 33.9583 55.8976C33.9583 46.5215 26.3574 38.9207 16.9814 38.9207C7.60527 38.9207 0.00445557 46.5215 0.00445557 55.8976C0.00445557 65.2736 7.60527 72.8745 16.9814 72.8745Z" fill="url(#paint3_linear)"/>
<path d="M10.1751 59.6164C9.58906 59.6164 9.11401 59.1811 9.11401 58.6443V54.4189C9.11401 53.882 9.58906 53.4468 10.1751 53.4468C10.7611 53.4468 11.2361 53.882 11.2361 54.4189V58.6443C11.2361 58.9021 11.1243 59.1493 10.9253 59.3316C10.7264 59.5139 10.4565 59.6164 10.1751 59.6164Z" fill="white"/>
<path d="M15.2399 64.3861C14.9547 64.3826 14.6827 64.2756 14.4837 64.0884C14.2847 63.9012 14.175 63.6493 14.1788 63.388V49.8305C14.1788 49.2936 14.6539 48.8584 15.2399 48.8584C15.8259 48.8584 16.3009 49.2936 16.3009 49.8305V63.388C16.3047 63.6493 16.195 63.9012 15.996 64.0884C15.797 64.2756 15.525 64.3826 15.2399 64.3861Z" fill="white"/>
<path d="M20.1063 61.8714C19.5203 61.8714 19.0453 61.4362 19.0453 60.8993V52.1699C19.0453 51.633 19.5203 51.1978 20.1063 51.1978C20.6923 51.1978 21.1674 51.633 21.1674 52.1699V60.8993C21.1674 61.4362 20.6923 61.8714 20.1063 61.8714Z" fill="white"/>
<path d="M24.9804 58.1192C24.3944 58.1192 23.9194 57.684 23.9194 57.1471V55.9223C23.9194 55.3854 24.3944 54.9502 24.9804 54.9502C25.5664 54.9502 26.0415 55.3854 26.0415 55.9223V57.1471C26.0415 57.684 25.5664 58.1192 24.9804 58.1192Z" fill="white"/>
<circle cx="4.44366" cy="131.29" r="4.44366" fill="#ECECEC"/>
<circle cx="206.428" cy="60.7679" r="4.44366" fill="#ECECEC"/>
<circle cx="73.1183" cy="8.48346" r="4.44366" fill="#ECECEC"/>
<circle cx="113.112" cy="2.42382" r="2.42382" fill="#ECECEC"/>
<rect x="29.3035" y="123.22" width="11.9145" height="11.9145" rx="5.95727" transform="rotate(45 29.3035 123.22)" fill="#FFCF5D"/>
<path d="M217.577 118.403C221.124 118.403 224 115.527 224 111.98C224 108.433 221.124 105.557 217.577 105.557C214.03 105.557 211.154 108.433 211.154 111.98C211.154 115.527 214.03 118.403 217.577 118.403Z" fill="#FE8C7A"/>
<path opacity="0.4" d="M89.1209 196.28C90.8946 196.28 92.3324 195.022 92.3324 193.47C92.3324 191.918 90.8946 190.66 89.1209 190.66C87.3473 190.66 85.9095 191.918 85.9095 193.47C85.9095 195.022 87.3473 196.28 89.1209 196.28Z" fill="#DB6BFF"/>
<path d="M185.5 56C194.613 56 202 48.6127 202 39.5C202 30.3873 194.613 23 185.5 23C176.387 23 169 30.3873 169 39.5C169 48.6127 176.387 56 185.5 56Z" fill="url(#paint4_linear)"/>
<path fill-rule="evenodd" clip-rule="evenodd" d="M185.5 42.7355C183.682 42.7355 182.208 41.2183 182.208 39.3466V34.6382C182.208 32.7672 183.682 31.25 185.5 31.25C187.318 31.25 188.792 32.7672 188.792 34.6382V39.3466C188.792 41.2183 187.318 42.7355 185.5 42.7355ZM191.687 39.0864C191.687 42.3942 189.223 45.119 186.086 45.4239V46.5431H187.631C187.955 46.5431 188.217 46.8131 188.217 47.1462C188.217 47.4793 187.955 47.75 187.631 47.75H183.369C183.045 47.75 182.783 47.4793 182.783 47.1462C182.783 46.8131 183.045 46.5431 183.369 46.5431H184.914V45.4239C181.776 45.119 179.312 42.3942 179.312 39.0864C179.312 38.7534 179.575 38.4833 179.898 38.4833C180.222 38.4833 180.485 38.7534 180.485 39.0864C180.485 41.9325 182.734 44.2478 185.5 44.2478C188.265 44.2478 190.515 41.9325 190.515 39.0864C190.515 38.7534 190.778 38.4833 191.101 38.4833C191.425 38.4833 191.687 38.7534 191.687 39.0864Z" fill="white"/>
<defs>
<linearGradient id="paint0_linear" x1="36.4994" y1="166.716" x2="45.994" y2="204.18" gradientUnits="userSpaceOnUse">
<stop stop-color="#FFA1AA"/>
<stop offset="0.999789" stop-color="#FF5997"/>
</linearGradient>
<linearGradient id="paint1_linear" x1="192.403" y1="165.99" x2="202.989" y2="207.76" gradientUnits="userSpaceOnUse">
<stop stop-color="#AC5AFF"/>
<stop offset="0.999789" stop-color="#7659FF"/>
</linearGradient>
<linearGradient id="paint2_linear" x1="123.121" y1="65" x2="123.121" y2="229.132" gradientUnits="userSpaceOnUse">
<stop stop-color="#FFB339"/>
<stop offset="1" stop-color="#FF128E"/>
</linearGradient>
<linearGradient id="paint3_linear" x1="21.5513" y1="43.6821" x2="21.5513" y2="78.5974" gradientUnits="userSpaceOnUse">
<stop stop-color="#64F3AF"/>
<stop offset="0.708333" stop-color="#0AB5FF"/>
</linearGradient>
<linearGradient id="paint4_linear" x1="189.86" y1="14.7025" x2="202" y2="62.6043" gradientUnits="userSpaceOnUse">
<stop stop-color="#6EE8FF"/>
<stop offset="1" stop-color="#3885FF"/>
</linearGradient>
</defs>
</svg>
